<?xml version="1.0" standalone="no"?>
<!DOCTYPE svg PUBLIC "-//W3C//DTD SVG 1.1//EN" "http://www.w3.org/Graphics/SVG/1.1/DTD/svg11.dtd">
<svg xmlns="http://www.w3.org/2000/svg">
<metadata>Iconscout</metadata>
<defs>
<font id="unicons-11" horiz-adv-x="1000" >
<font-face font-family="unicons-11" font-weight="400" font-stretch="normal" units-per-em="1000" ascent="850" descent="-150" />
<missing-glyph horiz-adv-x="1000" />
<glyph glyph-name="arrow-to-bottom" unicode="&#xea94;" d="M485 106a21 21 0 0 1 30 0l187 188a21 21 0 0 1-29 29l-152-152v575a21 21 0 0 1-42 0v-575l-152 152a21 21 0 0 1-29-29l187-188z m328-131h-625a21 21 0 0 1 0-42h625a21 21 0 0 1 0 42z" horiz-adv-x="1000" />

<glyph glyph-name="scroll" unicode="&#xea95;" d="M485 460a21 21 0 0 1 30 0l229 229a21 21 0 0 1-30 30l-214-215-214 215a21 21 0 0 1-30-30l229-229z m259-449l-229 229a21 21 0 0 1-30 0l-229-229a21 21 0 0 1 30-30l214 215 214-215a21 21 0 0 1 30 0 21 21 0 0 1 0 30z" horiz-adv-x="1000" />

<glyph glyph-name="scroll-h" unicode="&#xea96;" d="M161 594a21 21 0 0 1-30-30l215-214-215-214a21 21 0 1 1 30-30l229 229a21 21 0 0 1 0 30l-229 229z m708-458l-214 214 214 214a21 21 0 0 1-30 30l-229-229a21 21 0 0 1 0-30l229-229a21 21 0 0 1 30 0 21 21 0 0 1 0 30z" horiz-adv-x="1000" />

<glyph glyph-name="arrows-merge" unicode="&#xea97;" d="M327 490a21 21 0 0 1-29-30l89-89h-262v208a21 21 0 0 1-42 0v-458a21 21 0 0 1 42 0v208h262l-89-89a21 21 0 1 1 29-30l125 125a21 21 0 0 1 0 30l-125 125z m569 110a21 21 0 0 1-21-21v-208h-262l89 89a21 21 0 0 1-29 30l-125-125a21 21 0 0 1 0-30l125-125a21 21 0 0 1 29 0 21 21 0 0 1 0 30l-89 89h262v-208a21 21 0 0 1 42 0v458a21 21 0 0 1-21 21z" horiz-adv-x="1000" />

<glyph glyph-name="exchange" unicode="&#xea98;" d="M896 308h-625a21 21 0 1 1 0-41h574l-151-152a21 21 0 0 1 29-30l188 188a21 21 0 0 1-15 35z m-146 105a21 21 0 0 1-21 20h-574l151 152a21 21 0 1 1-29 30l-188-188a21 21 0 0 1 15-35h625a21 21 0 0 1 21 20z" horiz-adv-x="1000" />

<glyph glyph-name="compress-point" unicode="&#xea99;" d="M911-31l-340 339h158a21 21 0 0 1 0 42h-200l257 256a21 21 0 0 1-30 30l-256-257v200a21 21 0 0 1-42 0v-158l-339 340a21 21 0 0 1-30-30l340-339h-158a21 21 0 0 1 0-42h200l-257-256a21 21 0 1 1 30-30l256 257v-200a21 21 0 0 1 42 0v158l339-340a21 21 0 0 1 30 0 21 21 0 0 1 0 30z" horiz-adv-x="1000" />

<glyph glyph-name="arrows-left-down" unicode="&#xea9a;" d="M869 156a21 21 0 0 1-30 0l-110-110v429a104 104 0 0 1-104 104h-429l110 110a21 21 0 0 1-29 30l-146-146a21 21 0 0 1 0-29l146-146a21 21 0 0 1 29 0 21 21 0 0 1 0 29l-110 111h429c35 0 63-28 63-63v-429l-111 110a21 21 0 0 1-29-29l146-146a21 21 0 0 1 29 0l146 146a21 21 0 0 1 0 29z" horiz-adv-x="1000" />

<glyph glyph-name="exchange-alt" unicode="&#xea9b;" d="M729 308h-625a21 21 0 0 1-15-35l188-188a21 21 0 0 1 29 0 21 21 0 0 1 0 30l-151 152h574a21 21 0 1 1 0 41z m182 119l-188 188a21 21 0 0 1-29-30l152-152h-575a21 21 0 0 1 0-41h625a21 21 0 0 1 15 35z" horiz-adv-x="1000" />

<glyph glyph-name="caret-right" unicode="&#xea9c;" d="M822 368l-624 354a21 21 0 0 1-31-18v-708a21 21 0 0 1 31-18l624 354a21 21 0 0 1 0 36z m-614-336v636l562-318-562-318z" horiz-adv-x="1000" />

<glyph glyph-name="maximize-left" unicode="&#xea9d;" d="M154 725h159a21 21 0 0 1 0 42h-209a21 21 0 0 1-21-21v-208a21 21 0 0 1 42 0v158l298-298a21 21 0 0 1 29 29l-298 298z m742-542a21 21 0 0 1-21-20v-159l-298 298a21 21 0 0 1-29-29l298-298h-158a21 21 0 0 1 0-42h208a21 21 0 0 1 21 21v209a21 21 0 0 1-21 20z" horiz-adv-x="1000" />

<glyph glyph-name="arrow-resize-diagonal" unicode="&#xea9e;" d="M896 767h-292a21 21 0 0 1 0-42h242l-721-721v242a21 21 0 0 1-42 0v-292a21 21 0 0 1 21-21h292a21 21 0 0 1 0 42h-242l721 721v-242a21 21 0 0 1 42 0v292a21 21 0 0 1-21 21z" horiz-adv-x="1000" />

<glyph glyph-name="compress-arrows" unicode="&#xea9f;" d="M438 308h-209a21 21 0 0 1 0-41h158l-298-298a21 21 0 0 1 30-30l298 298v-158a21 21 0 0 1 41 0v209a21 21 0 0 1-20 20z m125 84h208a21 21 0 0 1 0 41h-158l298 298a21 21 0 0 1-30 30l-298-298v158a21 21 0 0 1-41 0v-208a21 21 0 0 1 21-21z m-125 250a21 21 0 0 1-21-21v-158l-298 298a21 21 0 0 1-30-30l298-298h-158a21 21 0 0 1 0-41h209a21 21 0 0 1 20 21v208a21 21 0 0 1-20 21z m473-673l-298 298h158a21 21 0 0 1 0 41h-208a21 21 0 0 1-21-20v-209a21 21 0 0 1 41 0v158l298-298a21 21 0 0 1 30 30z" horiz-adv-x="1000" />

<glyph glyph-name="angle-left-b" unicode="&#xeaa0;" d="M629 115l-235 235 235 235a21 21 0 0 1-29 30l-250-250a21 21 0 0 1 0-30l250-250a21 21 0 0 1 29 0 21 21 0 0 1 0 30z" horiz-adv-x="1000" />

<glyph glyph-name="expand-from-corner" unicode="&#xeaa1;" d="M479 350h-375a21 21 0 0 1-21-21v-375a21 21 0 0 1 21-21h375a21 21 0 0 1 21 21v375a21 21 0 0 1-21 21z m-21-375h-333v333h333v-333z m438 792h-292a21 21 0 0 1 0-42h242l-298-298a21 21 0 0 1 29-29l298 298v-242a21 21 0 0 1 42 0v292a21 21 0 0 1-21 21z" horiz-adv-x="1000" />

<glyph glyph-name="arrow-up" unicode="&#xeaa2;" d="M744 364a20 20 0 0 1 0 1l-229 229a21 21 0 0 1-30 0l-229-229a21 21 0 0 1 30-30l193 194v-408a21 21 0 0 1 42 0v408l193-194a21 21 0 0 1 30 29z" horiz-adv-x="1000" />

<glyph glyph-name="expand-alt" unicode="&#xeaa3;" d="M423 302l-298-298v159a21 21 0 0 1-42 0v-209a21 21 0 0 1 21-21h209a21 21 0 0 1 0 42h-159l298 298a21 21 0 0 1-29 29z m473 465h-208a21 21 0 0 1 0-42h158l-298-298a21 21 0 0 1 29-29l298 298v-159a21 21 0 0 1 42 0v209a21 21 0 0 1-21 21z" horiz-adv-x="1000" />

<glyph glyph-name="top-arrow-to-top" unicode="&#xeaa4;" d="M515 594a21 21 0 0 1-30 0l-187-188a21 21 0 0 1 29-29l152 152v-575a21 21 0 0 1 42 0v575l152-152a21 21 0 0 1 29 0 21 21 0 0 1 0 29l-187 188z m298 173h-625a21 21 0 0 1 0-42h625a21 21 0 0 1 0 42z" horiz-adv-x="1000" />

<glyph glyph-name="chart-down" unicode="&#xeaa5;" d="M896 392a21 21 0 0 1-21-21v-200l-319 319a21 21 0 0 1-29 0l-152-152-256 256a21 21 0 0 1-30-30l271-270a21 21 0 0 1 30 0l152 152 304-304h-200a21 21 0 0 1 0-42h250a21 21 0 0 1 21 21v250a21 21 0 0 1-21 21z" horiz-adv-x="1000" />

<glyph glyph-name="import" unicode="&#xeaa6;" d="M485 231a21 21 0 0 1 30 0l187 188a21 21 0 0 1-29 29l-152-152v450a21 21 0 0 1-42 0v-450l-152 152a21 21 0 0 1-29-29l187-188z m411 36a21 21 0 0 1-21-21v-208c0-35-28-63-63-63h-625c-34 0-62 28-62 63v208a21 21 0 0 1-42 0v-208a104 104 0 0 1 105-105h625a104 104 0 0 1 104 105v208a21 21 0 0 1-21 21z" horiz-adv-x="1000" />

<glyph glyph-name="scaling-right" unicode="&#xeaa7;" d="M896 767h-208a21 21 0 0 1 0-42h158l-346-346-118 118a21 21 0 0 1-29-29l118-118-346-346v159a21 21 0 0 1-42 0v-209a21 21 0 0 1 21-21h209a21 21 0 0 1 0 42h-159l346 346 118-118a21 21 0 0 1 29 29l-118 118 346 346v-158a21 21 0 0 1 42 0v208a21 21 0 0 1-21 21z" horiz-adv-x="1000" />

<glyph glyph-name="align-center-v" unicode="&#xeaa8;" d="M610 94l-89-90v200a21 21 0 0 1-42 0v-200l-89 90a21 21 0 0 1-30-30l125-125a21 21 0 0 1 30 0l125 125a21 21 0 0 1-30 30z m-220 512l89 90v-200a21 21 0 0 1 42 0v200l89-90a21 21 0 0 1 30 0 21 21 0 0 1 0 30l-125 125a21 21 0 0 1-30 0l-125-125a21 21 0 0 1 30-30z m298-235h-375a21 21 0 0 1 0-42h375a21 21 0 0 1 0 42z" horiz-adv-x="1000" />

<glyph glyph-name="expand-right" unicode="&#xeaa9;" d="M381 261l-256-257v159a21 21 0 0 1-42 0v-209a21 21 0 0 1 21-21h209a21 21 0 0 1 0 42h-159l257 256a21 21 0 0 1-30 30z m515 506h-208a21 21 0 0 1 0-42h158l-257-256a21 21 0 0 1 30-30l256 257v-158a21 21 0 0 1 42 0v208a21 21 0 0 1-21 21z m-514-270a21 21 0 0 1-29-29l265-265a21 21 0 0 1 29 29l-265 265z" horiz-adv-x="1000" />

<glyph glyph-name="arrows-right-down" unicode="&#xeaaa;" d="M869 573l-146 146a21 21 0 0 1-29-30l110-110h-429a104 104 0 0 1-104-104v-429l-110 110a21 21 0 0 1-30-29l146-146a21 21 0 0 1 29 0l146 146a21 21 0 0 1-29 29l-110-110v429c0 35 28 63 62 63h429l-110-111a21 21 0 1 1 29-29l146 146a21 21 0 0 1 0 29z" horiz-adv-x="1000" />

<glyph glyph-name="comment-lock" unicode="&#xeaab;" d="M803 224a21 21 0 0 1-26-14 345 345 0 0 0-330-235h-293l69 68a21 21 0 0 1 0 30 340 340 0 0 0-58 401 281 281 0 0 0 131 129 371 371 0 0 0 183 37 20 20 0 0 1 21 20 21 21 0 0 1-20 22 409 409 0 0 1-202-41 324 324 0 0 1-150-149 382 382 0 0 1 51-434l-90-89a21 21 0 0 1 15-36h343a387 387 0 0 1 370 265 21 21 0 0 1-14 26z m-11 374v65a104 104 0 1 1-209 0v-65a104 104 0 0 1-83-102v-83a104 104 0 0 1 104-105h167a104 104 0 0 1 104 105v83a104 104 0 0 1-83 102z m-167 65a63 63 0 1 0 125 0v-63h-125v63z m208-250c0-35-28-63-62-63h-167c-34 0-62 28-62 63v83c0 34 28 62 62 62h167c34 0 62-28 62-62v-83z" horiz-adv-x="1000" />

<glyph glyph-name="scaling-left" unicode="&#xeaac;" d="M896 183a21 21 0 0 1-21-20v-159l-346 346 118 118a21 21 0 0 1-29 29l-118-118-346 346h159a21 21 0 0 1 0 42h-209a21 21 0 0 1-21-21v-208a21 21 0 0 1 42 0v158l346-346-118-118a21 21 0 1 1 29-29l118 118 346-346h-158a21 21 0 0 1 0-42h208a21 21 0 0 1 21 21v209a21 21 0 0 1-21 20z" horiz-adv-x="1000" />

<glyph glyph-name="align-center-h" unicode="&#xeaad;" d="M354 371h-200l90 89a21 21 0 0 1-30 30l-125-125a21 21 0 0 1 0-30l125-125a21 21 0 0 1 30 0 21 21 0 0 1 0 30l-89 89h199a21 21 0 0 1 0 42z m146 187a21 21 0 0 1-21-20v-375a21 21 0 0 1 42 0v375a21 21 0 0 1-21 20z m411-193l-125 125a21 21 0 0 1-30-30l90-89h-200a21 21 0 0 1 0-42h200l-90-89a21 21 0 1 1 30-30l125 125a21 21 0 0 1 0 30z" horiz-adv-x="1000" />

<glyph glyph-name="corner-up-right-alt" unicode="&#xeaae;" d="M827 427l-146 146a21 21 0 0 1-29-29l110-111h-491a104 104 0 0 1-104-104v-187a21 21 0 0 1 41 0v187c0 35 28 63 63 63h491l-110-111a21 21 0 1 1 29-29l146 146a21 21 0 0 1 0 29z" horiz-adv-x="1000" />

<glyph glyph-name="arrows-resize" unicode="&#xeaaf;" d="M911 365l-125 125a21 21 0 0 1-30-30l90-89h-325v167a21 21 0 0 1-42 0v-167h-325l90 89a21 21 0 0 1-30 30l-125-125a21 21 0 0 1 0-30l125-125a21 21 0 0 1 30 0 21 21 0 0 1 0 30l-89 89h324v-166a21 21 0 0 1 42 0v166h325l-90-89a21 21 0 1 1 30-30l125 125a21 21 0 0 1 0 30z" horiz-adv-x="1000" />

<glyph glyph-name="arrow-growth" unicode="&#xeab0;" d="M896 600h-250a21 21 0 0 1 0-42h200l-304-304-152 152a21 21 0 0 1-29 1c0 0 0 0-1-1l-271-270a21 21 0 1 1 30-30l256 256 152-152a21 21 0 0 1 29 0l319 319v-200a21 21 0 0 1 42 0v250a21 21 0 0 1-21 21z" horiz-adv-x="1000" />

<glyph glyph-name="expand-left" unicode="&#xeab1;" d="M647 497a21 21 0 0 1-29 0l-265-265a21 21 0 1 1 29-29l265 265a21 21 0 0 1 0 29z m-237-58a21 21 0 0 1 1 30l-257 256h159a21 21 0 0 1 0 42h-209a21 21 0 0 1-21-21v-208a21 21 0 0 1 42 0v158l256-257a21 21 0 0 1 29 0z m486-256a21 21 0 0 1-21-20v-159l-256 257a21 21 0 0 1-30-30l257-256h-158a21 21 0 0 1 0-42h208a21 21 0 0 1 21 21v209a21 21 0 0 1-21 20z" horiz-adv-x="1000" />

<glyph glyph-name="arrows-resize-h" unicode="&#xeab2;" d="M438 600a21 21 0 0 1-21-21v-208h-263l90 89a21 21 0 0 1-30 30l-125-125a21 21 0 0 1 0-30l125-125a21 21 0 0 1 30 0 21 21 0 0 1 0 30l-89 89h262v-208a21 21 0 0 1 41 0v458a21 21 0 0 1-20 21z m473-235l-125 125a21 21 0 0 1-30-30l90-89h-263v208a21 21 0 0 1-41 0v-458a21 21 0 0 1 41 0v208h263l-90-89a21 21 0 1 1 30-30l125 125a21 21 0 0 1 0 30z" horiz-adv-x="1000" />

<glyph glyph-name="arrows-shrink-h" unicode="&#xeab3;" d="M104 600a21 21 0 0 1-21-21v-458a21 21 0 0 1 42 0v458a21 21 0 0 1-21 21z m515-110a21 21 0 0 1-30-30l90-89h-358l90 89a21 21 0 0 1-30 30l-125-125a21 21 0 0 1 0-30l125-125a21 21 0 0 1 30 0 21 21 0 0 1 0 30l-90 89h358l-90-89a21 21 0 1 1 30-30l125 125a21 21 0 0 1 0 30l-125 125z m277 110a21 21 0 0 1-21-21v-458a21 21 0 0 1 42 0v458a21 21 0 0 1-21 21z" horiz-adv-x="1000" />

<glyph glyph-name="arrows-h-alt" unicode="&#xeab4;" d="M438 371h-284l90 89a21 21 0 0 1-30 30l-125-125a21 21 0 0 1 0-30l125-125a21 21 0 0 1 30 0 21 21 0 0 1 0 30l-89 89h283a21 21 0 0 1 0 42z m473-6l-125 125a21 21 0 0 1-30-30l90-89h-283a21 21 0 0 1 0-42h283l-90-89a21 21 0 1 1 30-30l125 125a21 21 0 0 1 0 30z" horiz-adv-x="1000" />

<glyph glyph-name="arrows-h" unicode="&#xeab5;" d="M911 365l-188 187a21 21 0 0 1-29-29l152-152h-692l152 152a21 21 0 0 1-29 29l-188-187a21 21 0 0 1 0-30l188-187a21 21 0 0 1 29 0 21 21 0 0 1 0 29l-151 152h691l-152-152a21 21 0 1 1 29-29l188 187a21 21 0 0 1 0 30z" horiz-adv-x="1000" />

<glyph glyph-name="corner-down-right-alt" unicode="&#xeab6;" d="M869 323l-146 146a21 21 0 0 1-29-30l110-110h-491c-35 0-63 28-63 63v187a21 21 0 0 1-42 0v-187a104 104 0 0 1 105-104h491l-110-111a21 21 0 1 1 29-29l146 146a21 21 0 0 1 0 29z" horiz-adv-x="1000" />

<glyph glyph-name="left-arrow-to-left" unicode="&#xeab7;" d="M104 725a21 21 0 0 1-21-21v-708a21 21 0 0 1 42 0v708a21 21 0 0 1-21 21z m792-354h-575l152 152a21 21 0 0 1-29 29l-188-187a21 21 0 0 1 0-30l188-187a21 21 0 0 1 29 0 21 21 0 0 1 0 29l-152 152h575a21 21 0 0 1 0 42z" horiz-adv-x="1000" />

<glyph glyph-name="angle-left" unicode="&#xeab8;" d="M598 177l-173 173 173 173a21 21 0 0 1-29 29l-188-187a21 21 0 0 1 0-30l188-187a21 21 0 0 1 29 0 21 21 0 0 1 0 29z" horiz-adv-x="1000" />

<glyph glyph-name="arrows-maximize" unicode="&#xeab9;" d="M896 267a21 21 0 0 1-21-21v-242l-721 721h242a21 21 0 0 1 0 42h-292a21 21 0 0 1-21-21v-292a21 21 0 0 1 42 0v242l721-721h-242a21 21 0 0 1 0-42h292a21 21 0 0 1 21 21v292a21 21 0 0 1-21 21z" horiz-adv-x="1000" />

<glyph glyph-name="angle-right" unicode="&#xeaba;" d="M619 365l-188 187a21 21 0 0 1-29-29l173-173-173-173a21 21 0 1 1 29-29l188 187a21 21 0 0 1 0 30z" horiz-adv-x="1000" />

<glyph glyph-name="expand-arrows" unicode="&#xeabb;" d="M896 767h-208a21 21 0 0 1 0-42h158l-346-346-346 346h159a21 21 0 0 1 0 42h-209a21 21 0 0 1-21-21v-208a21 21 0 0 1 42 0v158l346-346-346-346v159a21 21 0 0 1-42 0v-209a21 21 0 0 1 21-21h209a21 21 0 0 1 0 42h-159l346 346 346-346h-158a21 21 0 0 1 0-42h208a21 21 0 0 1 21 21v209a21 21 0 0 1-42 0v-159l-346 346 346 346v-158a21 21 0 0 1 42 0v208a21 21 0 0 1-21 21z" horiz-adv-x="1000" />

<glyph glyph-name="expand-arrows-alt" unicode="&#xeabc;" d="M423 302l-298-298v159a21 21 0 0 1-42 0v-209a21 21 0 0 1 21-21h209a21 21 0 0 1 0 42h-159l298 298a21 21 0 0 1-29 29z m-269 423h159a21 21 0 0 1 0 42h-209a21 21 0 0 1-21-21v-208a21 21 0 0 1 42 0v158l298-298a21 21 0 0 1 29 29l-298 298z m742 42h-208a21 21 0 0 1 0-42h158l-298-298a21 21 0 0 1 29-29l298 298v-159a21 21 0 0 1 42 0v209a21 21 0 0 1-21 21z m0-584a21 21 0 0 1-21-20v-159l-298 298a21 21 0 0 1-29-29l298-298h-158a21 21 0 0 1 0-42h208a21 21 0 0 1 21 21v209a21 21 0 0 1-21 20z" horiz-adv-x="1000" />

<glyph glyph-name="chart-pie-alt" unicode="&#xeabd;" d="M604 767c-12 0-21-9-21-21v-292c0-12 9-21 21-21h292c12 0 21 9 21 21 0 171-142 313-313 313z m21-292v250c133-8 238-117 250-250h-250z m188-146h-334v334c0 12-8 20-21 20-208 0-375-166-375-375s167-375 375-375 375 167 375 375c0 13-8 21-20 21z m-334-354c-183-12-341 129-354 313-12 183 129 341 313 354v-334c0-12 8-20 20-20h334c-13-167-146-300-313-313z" horiz-adv-x="1000" />

<glyph glyph-name="compress-alt" unicode="&#xeabe;" d="M438 308h-167a21 21 0 0 1 0-41h116l-298-298a21 21 0 1 1 30-30l298 298v-116a21 21 0 0 1 41 0v167a21 21 0 0 1-20 20z m473 452a21 21 0 0 1-30 1l-298-298v116a21 21 0 0 1-41 0v-166a21 21 0 0 1 21-21h166a21 21 0 0 1 0 41h-116l298 298a21 21 0 0 1 0 29z" horiz-adv-x="1000" />

<glyph glyph-name="chart-bar" unicode="&#xeabf;" d="M896-25h-63v688a21 21 0 0 1-41 0v-688h-125v354a21 21 0 0 1-42 0v-354h-125v521a21 21 0 0 1-42 0v-521h-125v188a21 21 0 0 1-41 0v-188h-167v771a21 21 0 0 1-42 0v-792a21 21 0 0 1 21-21h792a21 21 0 0 1 0 42z" horiz-adv-x="1000" />

<glyph glyph-name="corner-up-left-alt" unicode="&#xeac0;" d="M729 433h-491l110 111a21 21 0 0 1-29 29l-146-146a21 21 0 0 1 0-29l146-146a21 21 0 0 1 29 0 21 21 0 0 1 0 29l-110 111h491c35 0 63-28 63-63v-187a21 21 0 0 1 41 0v187a104 104 0 0 1-104 104z" horiz-adv-x="1000" />

<glyph glyph-name="compress-alt-left" unicode="&#xeac1;" d="M438 600a21 21 0 0 1-21-21v-116l-298 298a21 21 0 0 1-30-30l298-298h-116a21 21 0 0 1 0-41h167a21 21 0 0 1 20 21v166a21 21 0 0 1-20 21z m473-631l-298 298h116a21 21 0 0 1 0 41h-166a21 21 0 0 1-21-20v-167a21 21 0 0 1 41 0v116l298-298a21 21 0 0 1 30 30z" horiz-adv-x="1000" />

<glyph glyph-name="left-arrow-from-left" unicode="&#xeac2;" d="M729 371h-575l152 152a21 21 0 0 1-29 29l-188-187a21 21 0 0 1 0-30l188-187a21 21 0 0 1 29 0 21 21 0 0 1 0 29l-151 152h574a21 21 0 0 1 0 42z m167 312a21 21 0 0 1-21-20v-625a21 21 0 0 1 42 0v625a21 21 0 0 1-21 20z" horiz-adv-x="1000" />

<glyph glyph-name="arrow-from-right" unicode="&#xeac3;" d="M104 683a21 21 0 0 1-21-20v-625a21 21 0 0 1 42 0v625a21 21 0 0 1-21 20z m807-318l-188 187a21 21 0 0 1-29-29l152-152h-575a21 21 0 0 1 0-42h575l-152-152a21 21 0 1 1 29-29l188 187a21 21 0 0 1 0 30z" horiz-adv-x="1000" />

<glyph glyph-name="calculator-alt" unicode="&#xeac4;" d="M229 538h42v-42a21 21 0 0 1 42 0v42h41a21 21 0 0 1 0 41h-41v42a21 21 0 0 1-42 0v-42h-42a21 21 0 0 1 0-41z m33-396l-44-44a21 21 0 0 1 29-30l45 44 44-44a21 21 0 0 1 29 0 21 21 0 0 1 0 29l-44 45 44 44a21 21 0 1 1-29 29l-44-44-45 44a21 21 0 1 1-29-29l44-44z m509 437h-125a21 21 0 0 1 0-41h125a21 21 0 0 1 0 41z m-125-396h125a21 21 0 0 1 0 42h-125a21 21 0 0 1 0-42z m187 625h-666a125 125 0 0 1-125-125v-666a125 125 0 0 1 125-125h666a125 125 0 0 1 125 125v666a125 125 0 0 1-125 125z m-354-875h-312a83 83 0 0 0-84 84v312h396v-396z m0 438h-396v312a83 83 0 0 0 84 84h312v-396z m438-354a83 83 0 0 0-84-84h-312v396h396v-312z m0 354h-396v396h312a83 83 0 0 0 84-84v-312z m-271-313h125a21 21 0 0 1 0 42h-125a21 21 0 0 1 0-42z" horiz-adv-x="1000" />

<glyph glyph-name="top-arrow-from-top" unicode="&#xeac5;" d="M327 544l152 152v-575a21 21 0 0 1 42 0v575l152-152a21 21 0 0 1 29 0 21 21 0 0 1 0 29l-187 188a21 21 0 0 1-30 0l-187-188a21 21 0 0 1 29-29z m486-569h-625a21 21 0 0 1 0-42h625a21 21 0 0 1 0 42z" horiz-adv-x="1000" />

<glyph glyph-name="arrows-resize-v" unicode="&#xeac6;" d="M688 371h-167v325l89-90a21 21 0 0 1 30 0 21 21 0 0 1 0 30l-125 125a21 21 0 0 1-30 0l-125-125a21 21 0 0 1 30-30l89 90v-325h-166a21 21 0 0 1 0-42h166v-325l-89 90a21 21 0 0 1-30-30l125-125a21 21 0 0 1 30 0l125 125a21 21 0 0 1-30 30l-89-90v325h166a21 21 0 0 1 0 42z" horiz-adv-x="1000" />

<glyph glyph-name="angle-right-b" unicode="&#xeac7;" d="M650 365l-250 250a21 21 0 0 1-29-30l235-235-235-235a21 21 0 1 1 29-30l250 250a21 21 0 0 1 0 30z" horiz-adv-x="1000" />

<glyph glyph-name="arrow-to-right" unicode="&#xeac8;" d="M556 552a21 21 0 0 1-29-29l152-152h-575a21 21 0 0 1 0-42h575l-152-152a21 21 0 1 1 29-29l188 187a21 21 0 0 1 0 30l-188 187z m340 131a21 21 0 0 1-21-20v-625a21 21 0 0 1 42 0v625a21 21 0 0 1-21 20z" horiz-adv-x="1000" />

<glyph glyph-name="arrows-up-right" unicode="&#xeac9;" d="M869 156l-146 146a21 21 0 0 1-29-29l110-110h-429c-34 0-62 28-62 62v429l110-110a21 21 0 0 1 29 0 21 21 0 0 1 0 29l-146 146a21 21 0 0 1-29 0l-146-146a21 21 0 0 1 30-29l110 110v-429a104 104 0 0 1 104-104h429l-110-110a21 21 0 1 1 29-30l146 146a21 21 0 0 1 0 29z" horiz-adv-x="1000" />

<glyph glyph-name="arrow-break" unicode="&#xeaca;" d="M271 392h458a21 21 0 0 1 0 41h-208v263l89-90a21 21 0 0 1 30 0 21 21 0 0 1 0 30l-125 125a21 21 0 0 1-30 0l-125-125a21 21 0 0 1 30-30l89 90v-263h-208a21 21 0 0 1 0-41z m458-84h-458a21 21 0 0 1 0-41h208v-263l-89 90a21 21 0 0 1-30-30l125-125a21 21 0 0 1 30 0l125 125a21 21 0 0 1-30 30l-89-90v263h208a21 21 0 0 1 0 41z" horiz-adv-x="1000" />

<glyph glyph-name="dollar-alt" unicode="&#xeacb;" d="M729 475a21 21 0 0 1 21 21v21c0 4-1 8-4 11a146 146 0 0 1-142 114h-83v104a21 21 0 0 1-42 0v-104h-83a146 146 0 0 1-146-146v-21a146 146 0 0 1 146-146h83v-229h-83a104 104 0 0 0-104 104 21 21 0 0 1-42 0v-21c0-4 1-8 4-12a146 146 0 0 1 142-113h83v-104a21 21 0 0 1 42 0v104h83a146 146 0 0 1 146 146v21a146 146 0 0 1-146 146h-83v229l83 0a104 104 0 0 0 104-104 21 21 0 0 1 21-21z m-250-104h-83a104 104 0 0 0-104 104v21a104 104 0 0 0 104 104h83v-229z m125-42a104 104 0 0 0 104-104v-21a104 104 0 0 0-104-104h-83v229h83z" horiz-adv-x="1000" />

<glyph glyph-name="usd-square" unicode="&#xeacc;" d="M448 517h198a21 21 0 0 1 0 41h-125v63a21 21 0 0 1-42 0v-63h-31a115 115 0 1 1 0-229h104a73 73 0 0 0 0-146h-198a21 21 0 0 1 0-41h125v-63a21 21 0 0 1 42 0v63h31a115 115 0 1 1 0 229h-104a73 73 0 0 0 0 146z m344 250h-584a125 125 0 0 1-125-125v-584a125 125 0 0 1 125-125h584a125 125 0 0 1 125 125v584a125 125 0 0 1-125 125z m83-709a83 83 0 0 0-83-83h-584a83 83 0 0 0-83 83v584a83 83 0 0 0 83 83h584a83 83 0 0 0 83-83v-584z" horiz-adv-x="1000" />

<glyph glyph-name="arrow-left" unicode="&#xeacd;" d="M729 371h-408l194 193a21 21 0 1 1-30 30l-229-229a21 21 0 0 1 0-30l229-229a21 21 0 0 1 30 30l-194 193h408a21 21 0 0 1 0 42z" horiz-adv-x="1000" />

<glyph glyph-name="angle-double-up" unicode="&#xeace;" d="M515 323a21 21 0 0 1-30 0l-146-146a21 21 0 0 1 30-29l131 131 131-131a21 21 0 0 1 30 0 21 21 0 0 1 0 29l-146 146z m-146 75l131 131 131-131a21 21 0 0 1 30 0 21 21 0 0 1 0 29l-146 146a21 21 0 0 1-30 0l-146-146a21 21 0 0 1 30-29z" horiz-adv-x="1000" />

<glyph glyph-name="arrows-v-alt" unicode="&#xeacf;" d="M390 606l89 90v-284a21 21 0 0 1 42 0v284l89-90a21 21 0 0 1 30 0 21 21 0 0 1 0 30l-125 125a21 21 0 0 1-30 0l-125-125a21 21 0 0 1 30-30z m220-512l-89-90v284a21 21 0 0 1-42 0v-284l-89 90a21 21 0 0 1-30-30l125-125a21 21 0 0 1 30 0l125 125a21 21 0 0 1-30 30z" horiz-adv-x="1000" />
</font>
</defs>
</svg>
