<svg width="171" height="36" viewBox="0 0 171 36" fill="none" xmlns="http://www.w3.org/2000/svg">
<g clip-path="url(#clip0)">
<path d="M0 0.203125H36.2997V35.2031H0V0.203125Z" fill="#9DB1F5"/>
<path d="M24.1888 14.4223C23.5122 13.4579 22.5416 12.7205 21.2766 12.3234C20.9531 12.2383 20.6001 12.1532 20.2764 12.0965C19.9529 12.0398 19.5999 12.0114 19.2468 12.0114C19.0703 12.0114 18.8351 12.0114 18.5997 12.0114C18.3644 12.0114 18.1879 12.0114 17.9526 12.0114C17.7761 12.0114 17.5996 12.0114 17.3642 12.0114C17.1877 12.0114 16.9524 12.0114 16.7759 12.0114C16.5994 12.0114 16.3641 12.0114 16.1876 12.0114C16.0111 12.0114 15.7758 12.0114 15.5993 12.0114C15.4228 12.0114 15.2463 12.0114 15.0109 12.0114C14.8344 12.0114 14.5991 12.0114 14.4226 12.0114C14.2461 12.0114 14.0108 12.0114 13.8343 12.0114C13.6578 12.0114 13.4225 12.0114 13.246 12.0114V12.5503C13.246 12.5503 13.246 12.5503 13.3048 12.5503C13.3048 12.5503 13.3048 12.5503 13.3636 12.5503C13.9225 12.607 14.3638 12.6354 14.6285 12.7772C14.9521 12.919 15.0698 13.3161 15.0698 13.9117V21.513C15.0698 22.137 14.9227 22.5058 14.6285 22.6475C14.3932 22.7327 14.0696 22.8177 13.7166 22.8744C13.4519 22.8177 13.1577 22.7327 12.9812 22.6192C12.7459 22.449 12.54 22.137 12.3341 21.7966L7.89221 11.8129H7.24504L2.97969 21.7399C2.80319 22.1654 2.56786 22.4773 2.24428 22.6475C1.97952 22.7894 1.5677 22.8744 1.06763 22.8744V23.4134H5.15649V22.8744H4.8035C4.74465 22.8744 4.71524 22.8744 4.65641 22.8744C4.59759 22.8744 4.56816 22.8744 4.50933 22.8744C4.33283 22.8744 4.0975 22.8177 3.95042 22.7042C3.77392 22.6192 3.68568 22.449 3.68568 22.2221C3.68568 22.137 3.68568 22.052 3.74451 21.9952C3.80333 21.9101 3.80334 21.8534 3.83275 21.7683L4.74465 19.5276H9.45126L10.3926 21.7683C10.4514 21.8534 10.4808 21.9385 10.5397 22.0803C10.5985 22.1654 10.5985 22.3073 10.5985 22.3923C10.5985 22.5625 10.5103 22.7042 10.422 22.7327C10.2749 22.8177 10.1573 22.8744 9.98076 22.8744C9.8925 22.8744 9.83367 22.8744 9.74543 22.8744C9.68659 22.8744 9.59835 22.8744 9.56894 22.8744H9.15709V23.4134H13.3342H14.0696H19.3645C21.1294 23.4134 22.5416 22.8744 23.6299 21.8818C24.7183 20.8323 25.2772 19.4709 25.2772 17.8259C25.2183 16.5212 24.8655 15.4433 24.1888 14.4223ZM4.98 18.8185L6.89205 14.2237C6.89205 14.167 6.95087 14.1386 6.95087 14.1386C6.95087 14.0819 7.00972 14.0535 7.00972 14.0535C7.00972 13.9968 7.06854 13.9685 7.06854 13.9117C7.06854 13.855 7.12737 13.8266 7.12737 13.7699C7.18622 13.9401 7.21563 14.1103 7.30387 14.3372C7.39213 14.5074 7.45096 14.6776 7.53921 14.9045C7.53921 14.9612 7.59804 14.9895 7.59804 15.0462C7.65687 15.1031 7.65687 15.1314 7.65687 15.1881L9.18652 18.8185C9.12768 18.8185 4.98 18.8185 4.98 18.8185ZM22.1885 21.2861C21.6003 22.2789 20.5118 22.8177 18.9233 22.8177C18.0997 22.8177 17.5113 22.7327 17.2466 22.5058C16.9818 22.2789 16.8347 21.7683 16.8347 20.9173V12.5503C16.923 12.5503 17.0701 12.5503 17.1583 12.4936C17.2466 12.4936 17.3937 12.4936 17.4819 12.4936C17.5702 12.4936 17.6584 12.4936 17.8055 12.4936C17.8937 12.4936 18.0408 12.4936 18.129 12.4936C19.8646 12.4936 21.1294 12.9758 21.9531 13.8834C22.7768 14.791 23.1298 16.0673 23.1298 17.7407C23.1298 19.0738 22.8357 20.2366 22.1885 21.2861Z" fill="white"/>
<path d="M30.9844 17.2316C31.9258 17.2883 32.8082 17.5435 33.6026 18.0259C34.3673 18.508 34.7791 19.3021 34.7791 20.2949C34.7791 21.2592 34.4261 22.0532 33.7495 22.5639C33.073 23.1311 32.2493 23.3863 31.308 23.3863H25.2189V22.8758C25.2189 22.8758 25.2189 22.8758 25.2777 22.8758C25.2777 22.8758 25.2777 22.8758 25.3366 22.8758C25.9248 22.8191 26.3367 22.7908 26.6013 22.6489C26.8661 22.5072 27.0426 22.1101 27.0426 21.5144V13.9131C27.0426 13.2891 26.8957 12.9204 26.6013 12.7786C26.2779 12.6368 25.8659 12.5517 25.3366 12.5517C25.3366 12.5517 25.3366 12.5517 25.2777 12.5517C25.2777 12.5517 25.2777 12.5517 25.2189 12.5517V12.0128H30.9256C31.7493 12.0128 32.4552 12.2397 33.1024 12.6368C33.7495 13.0339 34.1026 13.6862 34.1026 14.5088C34.1026 15.4164 33.7789 16.0971 33.1613 16.4659C32.5435 16.8345 31.808 17.0897 30.9844 17.2316ZM28.8076 17.572V21.5144C28.8076 22.0818 28.9841 22.422 29.3076 22.5639C29.6313 22.7341 30.0431 22.7908 30.5432 22.7908C31.3963 22.7908 31.9846 22.5356 32.3082 21.9682C32.6317 21.4294 32.8082 20.777 32.8082 20.0396C32.8082 18.7632 32.3965 18.0825 31.5728 17.8556C30.7198 17.6571 29.8078 17.572 28.8076 17.572ZM28.8076 17.0047C29.7196 17.0047 30.5432 16.9197 31.2198 16.6928C31.8963 16.4659 32.22 15.8702 32.22 14.764C32.22 14.055 32.0728 13.5444 31.808 13.1473C31.5433 12.7503 30.9844 12.5233 30.2196 12.5233H28.8076V17.0047Z" fill="white"/>
<path d="M51.4466 19.506C51.7688 18.7174 51.9838 18.2385 52.1448 17.7316L53.0849 17.6471L55.0723 22.3508C55.3139 22.914 55.663 23.6464 55.9049 24.2097L54.4007 24.2942L53.81 22.8295H51.5003C51.3662 23.1675 51.0975 23.9561 50.9633 24.266H49.4325L51.4466 19.506ZM51.8226 21.8157H53.434L52.6014 19.675L51.8226 21.8157Z" fill="#9DB1F5"/>
<path d="M58.1604 24.3787C57.4889 24.3787 56.71 24.1533 56.2536 23.8435L56.3073 22.4916C56.6833 22.8295 57.462 23.1957 58.214 23.1957C58.7243 23.1957 59.0465 22.9422 59.0465 22.4634C59.0465 21.4776 56.4684 21.3368 56.4684 19.5905C56.4684 18.3794 57.3278 17.6471 58.5364 17.6471C59.154 17.6471 59.8254 17.8725 60.2014 18.1258L59.906 19.2525C59.53 19.0271 59.0465 18.8301 58.59 18.8301C58.1335 18.8301 57.838 19.0835 57.838 19.5342C57.838 20.4918 60.4163 20.5763 60.4163 22.4071C60.3357 23.5901 59.4763 24.3787 58.1604 24.3787Z" fill="#9DB1F5"/>
<path d="M61.3834 24.208C61.4371 23.7856 61.4371 22.6026 61.4371 21.9831V19.9833C61.4371 19.4199 61.4371 18.2089 61.3834 17.7581C61.7056 17.7581 62.5919 17.7581 62.8873 17.7018C62.8336 17.9553 62.8336 18.6876 62.8336 19.0538V22.828C62.8336 23.1659 62.8336 23.8701 62.8873 24.1235H61.3834V24.208Z" fill="#9DB1F5"/>
<path d="M65.5995 19.506C65.9218 18.7174 66.1367 18.2385 66.2978 17.7316L67.2378 17.6471L69.2252 22.3508C69.4669 22.914 69.816 23.6464 70.0576 24.2097L68.5537 24.2942L67.9629 22.8295H65.6802C65.5458 23.1675 65.2773 23.9561 65.143 24.266H63.6927L65.5995 19.506ZM66.0293 21.8157H67.6407L66.8081 19.675L66.0293 21.8157Z" fill="#9DB1F5"/>
<path d="M70.8368 21.9832V19.8427C70.8368 19.2793 70.8368 18.1526 70.7831 17.7021L71.6425 17.6176L74.9189 21.758V19.9272C74.9189 19.3638 74.9189 18.1526 74.8383 17.7021C75.1608 17.7021 75.9932 17.7021 76.2887 17.6457C76.235 17.8993 76.235 18.6315 76.235 18.9977L76.1812 22.8283C76.1812 23.1662 76.1812 23.9266 76.1812 24.1801L75.3487 24.2647L72.0722 20.1242V22.7719C72.0722 23.1098 72.0722 23.8141 72.126 24.0675H70.6756C70.7831 23.7577 70.8368 22.5747 70.8368 21.9832Z" fill="#9DB1F5"/>
<path d="M81.6327 24.2104H79.5111C79.5648 23.788 79.5648 22.605 79.5648 21.9854V19.9856C79.5648 19.4222 79.5648 18.2392 79.5111 17.8168C79.8334 17.8168 80.5047 17.7605 81.4179 17.7605C83.647 17.7605 84.9091 19.028 84.9091 20.8588C84.9091 22.8585 83.5932 24.2104 81.6327 24.2104ZM81.5521 18.859C81.3373 18.859 81.1761 18.859 80.9613 18.9153C80.9613 19.0562 80.9613 19.2532 80.9613 19.3941V22.605C80.9613 22.7459 80.9613 22.9149 80.9613 23.0274C81.1761 23.0837 81.2836 23.0837 81.5521 23.0837C82.9487 23.0837 83.4857 22.1261 83.4857 20.9433C83.5126 19.6476 82.7875 18.859 81.5521 18.859Z" fill="#9DB1F5"/>
<path d="M89.9315 24.2386C89.3943 24.1822 88.696 24.1822 88.0247 24.1822C87.3264 24.1822 86.5745 24.1822 85.9567 24.2386C86.0104 23.8162 86.0104 22.5768 86.0104 22.0136V20.0138C86.0104 19.4504 86.0104 18.1829 85.9567 17.7605C86.5476 17.8168 87.1921 17.8168 87.8903 17.8168C88.5619 17.8168 89.2064 17.8168 89.7434 17.7605C89.6898 18.1549 89.663 18.4928 89.663 18.9717C89.2064 18.9717 88.7229 18.9717 88.1322 18.9717C87.8903 18.9717 87.595 18.9717 87.3533 18.9717C87.3533 19.1125 87.3533 19.3095 87.3533 19.4504V20.3235H89.3406C89.3406 20.6334 89.287 21.0278 89.287 21.422H87.3533V22.605C87.3533 22.7459 87.3533 22.9431 87.3533 23.0837C87.595 23.0837 87.8903 23.0837 88.1322 23.0837C88.8035 23.0837 89.3405 23.0837 89.8777 23.0274C89.9315 23.4218 89.9315 23.7598 89.9315 24.2386Z" fill="#9DB1F5"/>
<path d="M91.7845 17.731L93.3691 22.1529L94.3627 19.28C94.5239 18.7449 94.7387 18.2379 94.873 17.7591H96.3769L94.5239 22.4628C94.2016 23.2514 94.0135 23.7303 93.8525 24.2372L92.9393 24.3217L91.0863 19.6744C90.8715 19.1112 90.5491 18.3787 90.3343 17.8155L91.7845 17.731Z" fill="#9DB1F5"/>
<path d="M101.023 24.2386C100.486 24.1822 99.788 24.1822 99.1167 24.1822C98.4184 24.1822 97.6665 24.1822 97.0486 24.2386C97.1024 23.8162 97.1024 22.5768 97.1024 22.0136V20.0138C97.1024 19.4504 97.1024 18.1829 97.0486 17.7605C97.6396 17.8168 98.2841 17.8168 98.9823 17.8168C99.6537 17.8168 100.298 17.8168 100.835 17.7605C100.782 18.1549 100.755 18.4928 100.755 18.9717C100.298 18.9717 99.8149 18.9717 99.2241 18.9717C98.9823 18.9717 98.6869 18.9717 98.4453 18.9717C98.4453 19.1125 98.4453 19.3095 98.4453 19.4504V20.3235H100.433C100.433 20.6334 100.379 21.0278 100.379 21.422H98.4453V22.605C98.4453 22.7459 98.4453 22.9431 98.4453 23.0837C98.6869 23.0837 98.9823 23.0837 99.2241 23.0837C99.8955 23.0837 100.433 23.0837 100.97 23.0274C101.077 23.4218 101.023 23.7598 101.023 24.2386Z" fill="#9DB1F5"/>
<path d="M105.965 24.2362C105.374 24.1799 104.729 24.1799 104.058 24.1799C103.36 24.1799 102.661 24.1799 102.07 24.2362C102.124 23.8138 102.124 22.5745 102.124 21.9831V19.9833C102.124 19.4199 102.124 18.2089 102.07 17.7581C102.393 17.7581 103.279 17.7581 103.574 17.7018C103.521 17.9553 103.521 18.6876 103.521 19.0538V22.49C103.521 22.6308 103.521 22.828 103.521 23.0252C103.736 23.0252 103.977 23.0252 104.219 23.0252C104.89 23.0252 105.454 23.0252 105.991 22.9689C105.991 23.3631 105.965 23.7575 105.965 24.2362Z" fill="#9DB1F5"/>
<path d="M106.421 21.1678C106.421 19.168 107.71 17.6471 109.617 17.6471C111.443 17.6471 112.652 19.0835 112.652 20.858C112.652 22.8577 111.362 24.3787 109.456 24.3787C107.603 24.3787 106.421 22.8858 106.421 21.1678ZM111.201 21.0269C111.201 19.6469 110.449 18.8019 109.456 18.8019C108.408 18.8019 107.71 19.7877 107.71 20.9706C107.71 22.3508 108.462 23.1957 109.456 23.1957C110.557 23.1957 111.201 22.2099 111.201 21.0269Z" fill="#9DB1F5"/>
<path d="M115.096 22.883C115.096 23.221 115.096 23.9251 115.15 24.1786H113.646C113.699 23.7561 113.699 22.5731 113.699 21.9535V19.9537C113.699 19.3905 113.699 18.1793 113.646 17.7286C113.968 17.7286 115.042 17.6722 115.579 17.6722C117.271 17.6722 118.157 18.5454 118.157 19.7002C118.157 20.9959 117.325 22.038 115.472 22.038C115.337 22.038 115.257 22.038 115.15 22.038V22.8266H115.096V22.883ZM115.606 18.8834C115.445 18.8834 115.311 18.8834 115.096 18.8834V21.024C115.23 21.024 115.337 21.024 115.472 21.024C116.304 21.024 116.761 20.6297 116.761 19.9256C116.761 19.2215 116.385 18.8834 115.606 18.8834Z" fill="#9DB1F5"/>
<path d="M118.964 21.9845L119.205 19.9566C119.286 19.3933 119.42 18.2103 119.447 17.7316L120.306 17.6753C120.468 18.0695 120.682 18.5766 120.897 18.9709L122.267 22.069L123.583 18.9428C123.744 18.5484 123.986 17.9851 124.12 17.6471H124.979C125.033 18.1822 125.194 19.337 125.275 19.9566L125.57 21.9845C125.651 22.6043 125.812 23.7309 125.946 24.2097L124.55 24.2942C124.55 24.0407 124.469 23.252 124.388 22.914L124.093 20.5763C123.69 21.6185 122.697 24.0125 122.562 24.3224L121.945 24.3787L120.414 20.6327L120.118 22.9422C120.065 23.2802 119.984 23.9843 119.984 24.2379H118.615C118.722 23.7309 118.883 22.5761 118.964 21.9845Z" fill="#9DB1F5"/>
<path d="M130.887 24.2386C130.35 24.1822 129.652 24.1822 128.98 24.1822C128.282 24.1822 127.53 24.1822 126.912 24.2386C126.966 23.8162 126.966 22.5768 126.966 22.0136V20.0138C126.966 19.4504 126.966 18.1829 126.912 17.7605C127.503 17.8168 128.148 17.8168 128.846 17.8168C129.518 17.8168 130.162 17.8168 130.699 17.7605C130.645 18.1549 130.619 18.4928 130.619 18.9717C130.162 18.9717 129.679 18.9717 129.088 18.9717C128.846 18.9717 128.551 18.9717 128.309 18.9717C128.309 19.1125 128.309 19.3095 128.309 19.4504V20.3235H130.296C130.296 20.6334 130.243 21.0278 130.243 21.422H128.309V22.605C128.309 22.7459 128.309 22.9431 128.309 23.0837C128.551 23.0837 128.846 23.0837 129.088 23.0837C129.759 23.0837 130.296 23.0837 130.834 23.0274C130.887 23.4218 130.887 23.7598 130.887 24.2386Z" fill="#9DB1F5"/>
<path d="M131.935 21.9832V19.8427C131.935 19.2793 131.935 18.1526 131.881 17.7021L132.74 17.6176L136.017 21.758V19.9272C136.017 19.3638 136.017 18.1526 135.936 17.7021C136.258 17.7021 137.091 17.7021 137.386 17.6457C137.333 17.8993 137.333 18.6315 137.333 18.9977L137.279 22.8283C137.279 23.1662 137.279 23.9266 137.279 24.1801L136.446 24.2647L133.17 20.1242V22.7719C133.17 23.1098 133.17 23.8141 133.224 24.0675H131.773C131.881 23.7577 131.935 22.5747 131.935 21.9832Z" fill="#9DB1F5"/>
<path d="M143.564 18.9709C142.946 18.9709 142.409 18.9709 141.657 18.9709C141.657 19.1961 141.657 19.3933 141.657 19.5342V22.8858C141.657 23.2239 141.657 23.928 141.711 24.1815H140.207C140.261 23.7591 140.261 22.5761 140.261 21.9564V20.351C140.261 20.0129 140.261 19.3933 140.261 18.9146C139.562 18.9146 138.945 18.9146 138.327 18.9146C138.381 18.5766 138.381 18.0977 138.381 17.6471C139.213 17.7034 139.992 17.7034 140.986 17.7034C141.979 17.7034 142.812 17.7034 143.644 17.6471C143.618 18.1258 143.564 18.492 143.564 18.9709Z" fill="#9DB1F5"/>
<path d="M146.383 24.2104C146.437 23.788 146.437 22.605 146.437 21.9854V19.9856C146.437 19.4222 146.437 18.2392 146.383 17.8168C146.679 17.8168 147.672 17.7605 148.451 17.7605C150.116 17.7605 150.68 18.6336 150.68 19.4222C150.68 20.1265 150.277 20.6052 149.686 20.8024C150.519 21.0278 150.922 21.6192 150.922 22.3233C150.922 23.3655 150.143 24.1822 148.558 24.1822C148.585 24.2104 146.383 24.2104 146.383 24.2104ZM148.317 20.408C148.988 20.408 149.364 20.0983 149.364 19.6194C149.364 19.0844 148.988 18.8308 148.317 18.8308C148.075 18.8308 147.914 18.8308 147.726 18.8872V20.4644C147.887 20.3799 148.209 20.408 148.317 20.408ZM148.505 23.1119C149.203 23.1119 149.633 22.8585 149.633 22.2388C149.633 21.7037 149.257 21.3657 148.344 21.3657C148.129 21.3657 147.941 21.3657 147.753 21.422V23.1119C147.995 23.0556 148.236 23.1119 148.505 23.1119Z" fill="#9DB1F5"/>
<path d="M153.313 19.506C153.635 18.7174 153.85 18.2385 154.011 17.7316L154.951 17.6471L156.938 22.3508C157.18 22.914 157.529 23.6464 157.771 24.2097L156.267 24.2942L155.676 22.8295H153.366C153.232 23.1675 152.964 23.9561 152.829 24.266H151.352L153.313 19.506ZM153.662 21.8157H155.273L154.441 19.675L153.662 21.8157Z" fill="#9DB1F5"/>
<path d="M158.522 21.9832V19.8427C158.522 19.2793 158.522 18.1526 158.468 17.7021L159.328 17.6176L162.604 21.758V19.9272C162.604 19.3638 162.604 18.1526 162.524 17.7021C162.846 17.7021 163.679 17.7021 163.974 17.6457C163.92 17.8993 163.92 18.6315 163.92 18.9977L163.867 22.8283C163.867 23.1662 163.867 23.9266 163.867 24.1801L163.034 24.2647L159.758 20.1242V22.7719C159.758 23.1098 159.758 23.8141 159.811 24.0675H158.361C158.468 23.7577 158.522 22.5747 158.522 21.9832Z" fill="#9DB1F5"/>
<path d="M166.848 21.2523V22.8577C166.848 23.1957 166.848 23.8998 166.902 24.1533H165.398C165.452 23.7309 165.452 22.5479 165.452 21.9282V19.9286C165.452 19.3652 165.452 18.154 165.398 17.7034C165.72 17.7034 166.606 17.7034 166.902 17.6471C166.848 17.9006 166.848 18.6329 166.848 18.9989V20.52L167.761 19.337C168.137 18.9146 168.621 18.2103 169.05 17.6753H170.715L168.137 20.7735L169.534 22.5479C169.856 22.9422 170.474 23.6746 170.823 24.1252L169.211 24.266L166.848 21.2523Z" fill="#9DB1F5"/>
</g>
<defs>
<clipPath id="clip0">
<rect width="171" height="35" fill="white" transform="translate(0 0.203125)"/>
</clipPath>
</defs>
</svg>
