<svg width="119" height="35" viewBox="0 0 119 35" fill="none" xmlns="http://www.w3.org/2000/svg">
<path d="M67.4707 0.168297C65.7353 0.504835 64.223 1.49201 63.6032 2.69234C63.3181 3.2308 63.2809 3.45516 63.2809 4.43112C63.2809 5.42951 63.3181 5.62022 63.6156 6.12503C64.2354 7.17951 65.5122 7.90868 67.7806 8.46958C68.4004 8.62663 69.4417 8.87343 70.0615 9.04169C71.4622 9.38945 72.1068 9.69234 72.4786 10.1971C73.0117 10.9039 72.739 11.8125 71.8465 12.2837C70.8052 12.8334 68.6855 12.867 67.5575 12.3398C66.727 11.9584 66.07 11.0609 66.07 10.2869C66.07 10.1186 65.9089 10.0962 64.3346 10.0962H62.6116L62.6859 10.6795C62.9587 12.9455 64.6321 14.4712 67.4831 15.0657C68.45 15.2564 70.9416 15.2228 71.896 14.9872C73.7182 14.5497 75.057 13.6747 75.7016 12.4632C76.0114 11.8911 76.0486 11.7228 76.0486 10.601C76.0486 9.51285 76.0114 9.29971 75.7387 8.82855C75.3421 8.1106 74.4124 7.34778 73.4703 6.95516C73.0488 6.78689 71.9456 6.46157 71.0159 6.24842C67.4459 5.4183 66.9377 5.21637 66.6898 4.55451C66.1568 3.07374 68.1277 2.06413 70.4209 2.64746C71.3134 2.87182 71.8712 3.36541 72.082 4.11701L72.2307 4.65548L73.9289 4.68913L75.6148 4.72278V4.35259C75.6148 3.34298 74.9826 2.12022 74.1149 1.40227C72.7142 0.25804 69.7764 -0.280421 67.4707 0.168297Z" fill="#9DB1F5"/>
<path d="M6.03849 0.415009C5.96412 0.538406 0.113281 14.4711 0.0265106 14.7291C-0.0230728 14.9086 0.100886 14.9198 1.74953 14.8974L3.53453 14.8637L4.15432 13.2596L4.77412 11.6666L7.7987 11.689L10.8233 11.7227L11.4059 13.2932L11.9885 14.8637L13.8231 14.8974C15.5213 14.9198 15.6453 14.9086 15.5957 14.7291C15.5585 14.6169 14.5544 12.1602 13.352 9.25475C12.1496 6.3493 10.8357 3.17462 10.439 2.18744L9.69526 0.392573L7.89787 0.358919C6.9062 0.347701 6.06328 0.370137 6.03849 0.415009ZM8.85235 6.54001C9.37297 7.91982 9.79443 9.10892 9.79443 9.17623C9.79443 9.27719 9.24901 9.31084 7.83589 9.31084C6.75745 9.31084 5.84016 9.28841 5.80297 9.25475C5.7286 9.17623 7.72433 4.03841 7.82349 4.03841C7.87308 4.03841 8.33172 5.1602 8.85235 6.54001Z" fill="#9DB1F5"/>
<path d="M23.4283 2.97251V5.61994L23.0688 5.23853C22.2135 4.36353 20.4905 3.89238 19.0774 4.13917C17.6271 4.4084 16.623 5.00296 15.8421 6.10231C15.0983 7.14558 14.8504 8.00937 14.8504 9.53501C14.8504 10.6119 14.9 10.9709 15.1603 11.6889C15.7057 13.2257 16.6106 14.2129 17.9618 14.7962C18.5815 15.0542 18.8047 15.0879 20.0195 15.0879C21.2467 15.0879 21.445 15.0542 22.0152 14.785C22.3499 14.6167 22.8457 14.2802 23.0936 14.0334L23.5399 13.5847L23.5771 14.2241L23.6143 14.8635L25.1389 14.8972L26.6512 14.9308V7.62795V0.336289H25.0398H23.4283V2.97251ZM21.854 6.43885C22.3995 6.64078 23.106 7.39238 23.292 7.97571C23.6762 9.14238 23.5771 10.8699 23.044 11.7898C22.2755 13.1696 20.2302 13.4276 19.0154 12.2834C18.1601 11.4869 17.7882 10.0062 18.0981 8.61513C18.346 7.43725 18.8171 6.80904 19.7096 6.46129C20.255 6.24815 21.321 6.23693 21.854 6.43885Z" fill="#9DB1F5"/>
<path d="M95.8199 1.51438V2.69226H97.4313H99.0428V1.51438V0.336491H97.4313H95.8199V1.51438Z" fill="#9DB1F5"/>
<path d="M108.116 7.59461L108.154 14.8638L109.728 14.8975L111.29 14.9312L111.339 11.476C111.377 8.23404 111.389 7.98724 111.637 7.50487C111.786 7.22442 112.096 6.86545 112.319 6.71961C112.678 6.48404 112.876 6.45038 113.757 6.45038C114.699 6.45038 114.798 6.47282 115.133 6.76449C115.765 7.31417 115.814 7.60583 115.864 11.4087L115.926 14.9199H117.463H119V11.0161C119 6.34942 118.938 5.99045 117.909 5.01449C117.066 4.22923 115.207 3.84782 113.868 4.19557C112.951 4.44237 112.343 4.79013 111.761 5.3959L111.315 5.87827V3.10743V0.3366H109.703H108.092L108.116 7.59461Z" fill="#9DB1F5"/>
<path d="M101.77 2.80447V4.37498H100.778H99.7865V5.3285V6.28203H100.778H101.77V9.61376C101.77 13.1362 101.832 13.5737 102.328 14.1122C102.96 14.7965 104.72 15.1554 106.53 14.9759L107.348 14.8974V13.7868V12.6763H106.418C104.931 12.6763 104.993 12.8221 104.993 9.25479V6.28203H106.17H107.348V5.3285V4.37498H106.17H104.993V2.80447V1.23395H103.381H101.77V2.80447Z" fill="#9DB1F5"/>
<path d="M32.2292 4.10552C29.5641 4.46449 28.1757 5.44046 27.8411 7.20167L27.7543 7.62795H29.3657H30.9648L31.064 7.26898C31.2747 6.38276 31.8697 6.05744 33.2456 6.05744C34.3984 6.05744 34.8695 6.29302 35.0926 6.95488C35.4521 8.0318 34.8323 8.40199 32.1052 8.73853C31.1136 8.86193 29.9855 9.06385 29.6137 9.18725C28.151 9.68084 27.4568 10.6007 27.4568 12.003C27.4692 12.9453 27.6799 13.4949 28.2873 14.0895C29.0682 14.8523 29.7996 15.0879 31.4234 15.0879C32.9729 15.0879 33.7043 14.9084 34.6959 14.3139L35.3033 13.9437L35.4025 14.4036L35.5141 14.8635L37.1131 14.8972L38.6998 14.9308L38.6254 14.6392C38.3899 13.8203 38.3155 12.4292 38.3031 9.50135C38.3031 6.5286 38.2783 6.23693 38.0676 5.8443C37.7701 5.32828 37.1007 4.7786 36.4809 4.54302C35.5265 4.18404 33.3572 3.95969 32.2292 4.10552ZM35.0306 11.7225C34.7083 12.6985 33.8158 13.2369 32.5143 13.2369C31.0268 13.2369 30.2087 12.261 30.8037 11.2177C31.0764 10.7353 31.7581 10.4661 33.32 10.2193C34.0762 10.0959 34.7951 9.95007 34.9191 9.88276C35.1174 9.7818 35.1422 9.83789 35.1794 10.4437C35.2042 10.8251 35.1298 11.386 35.0306 11.7225Z" fill="#9DB1F5"/>
<path d="M45.0217 4.21801C44.1416 4.43115 43.9432 4.53211 43.1747 5.19397L42.5177 5.75487V5.05936V4.37506H41.0302H39.5427V9.6475V14.9199H41.0798H42.6169L42.6665 11.4648C42.7037 8.12186 42.7161 8.00968 42.9888 7.49365C43.435 6.68596 43.8813 6.45038 44.9473 6.45038C45.6663 6.45038 45.8894 6.49525 46.1125 6.67474C46.7695 7.2132 46.7819 7.30295 46.8315 11.2404L46.8811 14.9199H48.4057H49.9304L49.98 11.4087C50.0172 8.0882 50.0296 7.88628 50.2899 7.38147C50.6494 6.67474 51.1576 6.39429 52.0997 6.39429C52.9674 6.39429 53.4632 6.60743 53.7607 7.10102C53.9591 7.41513 53.9963 7.8975 54.0458 11.1619L54.1078 14.8638L55.6945 14.8975L57.2812 14.9312L57.244 10.7469C57.2068 6.7757 57.1944 6.54013 56.9465 6.05775C56.3887 4.9584 55.521 4.3975 54.0458 4.1507C52.546 3.90391 51.2196 4.26288 50.0916 5.21641L49.4966 5.72122L49.2115 5.35102C48.8148 4.82378 48.1082 4.40872 47.2777 4.20679C46.3976 4.00487 45.8894 4.00487 45.0217 4.21801Z" fill="#9DB1F5"/>
<path d="M82.5439 4.19557C81.7629 4.38628 80.9076 4.85743 80.4614 5.35102L80.0771 5.77731V5.07057V4.37506H78.5276H76.9781L77.0029 9.61384L77.0401 14.8638L78.6268 14.8975L80.2011 14.9312V11.6443C80.2011 8.16673 80.263 7.71801 80.7713 7.08981C81.1927 6.59622 81.6762 6.39429 82.4695 6.39429C83.3 6.39429 83.9198 6.73083 84.1305 7.29173C84.2297 7.56096 84.2793 8.80615 84.2793 11.2965L84.2917 14.9199H85.8907H87.5022L87.5394 11.3526C87.5766 8.05455 87.589 7.76288 87.8245 7.34782C88.1964 6.67474 88.7542 6.39429 89.6963 6.39429C90.3904 6.39429 90.5268 6.42795 90.9111 6.73083C91.5432 7.23564 91.6052 7.69558 91.6052 11.5545V14.9199H93.2167H94.8281V11.2965C94.8281 9.31096 94.7662 7.35904 94.6918 6.95519C94.3819 5.23884 93.2291 4.30775 91.1466 4.0834C89.7706 3.94878 88.5682 4.35263 87.5146 5.29493C87.1551 5.62025 86.9568 5.73243 86.9196 5.63147C86.808 5.32859 86.1015 4.70038 85.6676 4.49846C85.147 4.25167 84.081 4.03852 83.5108 4.04974C83.2876 4.04974 82.8538 4.11705 82.5439 4.19557Z" fill="#9DB1F5"/>
<path d="M95.8447 9.61384L95.8819 14.8638L97.4685 14.8975L99.0428 14.9312V9.6475V4.37506H97.4313H95.8199L95.8447 9.61384Z" fill="#9DB1F5"/>
<path d="M1.73547 27.4841V34.6636H2.47922H3.22297V27.4841V20.3046H2.47922H1.73547V27.4841Z" fill="#9DB1F5"/>
<path d="M75.2428 21.314V22.3236H75.9246H76.6064V21.314V20.3044H75.9246H75.2428V21.314Z" fill="#9DB1F5"/>
<path d="M116.025 27.4841V34.6636H116.769H117.513L117.488 27.5065L117.451 20.3607L116.744 20.327L116.025 20.2934V27.4841Z" fill="#9DB1F5"/>
<path d="M19.4613 22.7164V24.2196L18.5068 24.2532L17.54 24.2869L17.5028 24.8141L17.4656 25.3526H18.4572H19.4489L19.4861 29.4696C19.5233 33.1042 19.5481 33.6426 19.734 33.9455C20.1059 34.5625 20.5026 34.7084 21.9157 34.7532L23.18 34.7981V34.2596V33.71H22.2999C20.8744 33.71 20.9488 33.9455 20.9488 29.2676V25.3526H22.0644H23.18V24.7917V24.2308H22.0644H20.9488V22.7164V21.2019H20.2051H19.4613V22.7164Z" fill="#9DB1F5"/>
<path d="M69.1687 22.7164V24.2196L68.2142 24.2532L67.2473 24.2869L67.2102 24.8141L67.173 25.3526H68.1646H69.1563L69.1935 29.4135C69.2307 32.8686 69.2555 33.5417 69.429 33.8782C69.7637 34.5401 70.1604 34.7084 71.6231 34.7532L72.8874 34.7981V34.2596V33.71L72.3296 33.7436C71.6231 33.7997 71.214 33.71 70.9041 33.4295C70.6686 33.2164 70.6562 33.0369 70.6562 29.2789V25.3526H71.7718H72.8874V24.7917V24.2308H71.7718H70.6562V22.7164V21.2019H69.9124H69.1687V22.7164Z" fill="#9DB1F5"/>
<path d="M9.97874 24.287C9.27217 24.545 8.37967 25.2405 7.97061 25.8575C7.84665 26.0482 7.82186 25.9248 7.82186 25.1508L7.80946 24.2197L7.16488 24.2533L6.5079 24.287L6.47071 29.4697L6.44592 34.6636H7.1153H7.78467L7.83426 31.2645C7.89624 27.4841 7.95821 27.1475 8.73915 26.2165C9.94155 24.7806 12.8422 24.6684 13.8214 26.0145C14.3173 26.6876 14.3669 27.2373 14.3793 31.0402V34.6636H15.1354H15.8915L15.842 30.7597C15.78 26.6091 15.718 26.1043 15.123 25.3302C14.2181 24.1187 11.7637 23.6251 9.97874 24.287Z" fill="#9DB1F5"/>
<path d="M28.5724 24.1522C26.713 24.7131 25.4486 26.0929 25.0396 28.0224C24.8165 29.0321 24.9404 31.0513 25.2875 31.9375C26.0436 33.8894 27.7915 35 30.1219 35C32.4523 35 34.1009 33.9567 34.8323 32.0385C34.9686 31.6683 35.0802 31.3542 35.0802 31.3317C35.0802 31.3205 34.7455 31.2981 34.3365 31.2981C33.7538 31.2981 33.5927 31.3317 33.5927 31.4663C33.5927 31.7692 33.0101 32.6891 32.5762 33.0593C31.9441 33.609 31.1879 33.8782 30.1962 33.8782C28.9443 33.8782 28.436 33.6987 27.6303 32.9808C26.8618 32.2965 26.4899 31.5673 26.3411 30.4792L26.2544 29.8397H30.6549C33.0845 29.8397 35.0926 29.8061 35.1298 29.75C35.1546 29.7051 35.1298 29.234 35.0678 28.6955C34.7951 26.4968 33.8282 25.0833 32.1052 24.3542C31.5598 24.1298 31.2003 24.0625 30.2458 24.0401C29.5145 24.0176 28.8823 24.0625 28.5724 24.1522ZM31.4358 25.2965C32.4895 25.6891 33.4563 26.9567 33.6547 28.1795L33.7415 28.7179H30.0103H26.2668L26.3535 28.2917C26.4651 27.6635 27.1097 26.4631 27.5559 26.0481C28.5352 25.117 30.1467 24.8029 31.4358 25.2965Z" fill="#9DB1F5"/>
<path d="M48.1331 24.2197C47.3521 24.4552 46.7076 24.8927 46.2365 25.4873L45.877 25.936L45.8398 25.1059L45.8027 24.287H45.1209H44.4391L44.4019 29.4697L44.3771 34.6636H45.1085H45.8522L45.8894 31.0963C45.9266 27.6411 45.939 27.529 46.2241 26.9568C46.5712 26.2501 47.4885 25.4424 48.1703 25.2293C48.4306 25.1508 49.0504 25.0834 49.5338 25.0834C50.9221 25.0947 51.8394 25.6892 52.1865 26.7998C52.2609 27.0354 52.3105 28.7854 52.3105 30.928V34.6636H53.0542H53.798V31.1524C53.798 29.2341 53.736 27.327 53.674 26.9232C53.5005 25.936 52.9922 25.0498 52.3725 24.6572C51.3684 24.0177 49.4098 23.8158 48.1331 24.2197Z" fill="#9DB1F5"/>
<path d="M59.1653 24.242C57.7274 24.6571 56.7233 25.6779 56.5622 26.9119L56.4878 27.484H57.1696H57.8638L57.9381 26.9904C58.0497 26.3173 58.6075 25.6667 59.3389 25.3414C59.8347 25.117 60.1198 25.0834 61.0743 25.0834C62.537 25.0946 63.256 25.375 63.6898 26.1378C64.1361 26.9455 64.0245 27.9664 63.4419 28.3141C63.2808 28.4151 62.3139 28.5834 61.1735 28.7068C58.967 28.9648 58.4464 29.0769 57.6406 29.4471C56.5374 29.9632 56.0292 30.7148 56.0292 31.8702C56.0292 32.8013 56.2275 33.351 56.7853 33.9231C57.4175 34.5737 58.2852 34.8991 59.5744 34.9776C61.3718 35.0786 62.7353 34.5177 63.727 33.2837L64.0865 32.835V33.1939C64.0865 33.6875 64.384 34.2821 64.7435 34.4952C64.9666 34.6186 65.2765 34.6635 65.8467 34.6411L66.6276 34.6074L66.6648 34.0802C66.702 33.5417 66.702 33.5417 66.3549 33.609C66.107 33.6539 65.9087 33.609 65.6979 33.4519L65.388 33.2276L65.3261 29.6491C65.2765 26.4519 65.2393 26.0369 65.0286 25.6891C64.3344 24.5 63.1568 24.0064 61.0495 24.0176C60.2933 24.0176 59.686 24.0962 59.1653 24.242ZM63.9377 30.5689C63.9005 31.4215 63.8386 31.6683 63.5287 32.1731C62.8717 33.2725 61.6197 33.8782 60.0206 33.8782C58.2728 33.8782 57.1572 32.835 57.4423 31.4664C57.6406 30.5016 58.7191 30.0305 61.5949 29.6266C62.5122 29.492 63.4047 29.3237 63.5783 29.2452C63.8634 29.1218 63.9005 29.1218 63.9501 29.335C63.9749 29.4584 63.9625 30.008 63.9377 30.5689Z" fill="#9DB1F5"/>
<path d="M82.6552 24.2194C81.7256 24.4886 81.2297 24.7802 80.5232 25.4645C78.3291 27.5847 78.4283 31.7802 80.7215 33.721C82.7916 35.471 86.2252 35.4149 88.1094 33.6088C89.2498 32.5206 89.7457 31.2754 89.7457 29.503C89.7457 26.7546 88.2954 24.7466 85.8782 24.1633C84.9733 23.9501 83.5106 23.9726 82.6552 24.2194ZM85.8906 25.3636C88.8904 26.5527 89.2622 31.511 86.498 33.3171C85.8162 33.7658 85.1592 33.9117 84.0312 33.8556C82.9404 33.7995 82.2462 33.4966 81.5644 32.7899C79.9158 31.096 79.953 27.8315 81.6388 26.1488C82.7048 25.0719 84.4031 24.769 85.8906 25.3636Z" fill="#9DB1F5"/>
<path d="M96.0058 24.1187C95.2373 24.3318 94.2704 24.96 93.8737 25.5097L93.4647 26.0482V25.1395V24.2309H92.7829H92.1011V29.4472V34.6636H92.7705H93.4523L93.4895 31.1524L93.5267 27.6524L93.8737 26.9793C94.2952 26.1604 94.7167 25.7453 95.448 25.4088C96.2041 25.0722 97.0347 24.9713 97.9024 25.1395C98.4602 25.2405 98.7205 25.3639 99.1172 25.7341C99.9229 26.452 99.9477 26.6203 99.9973 30.8719L100.047 34.6636H100.729H101.41L101.373 30.5915C101.336 26.6876 101.324 26.5081 101.051 25.9024C100.505 24.6572 99.4395 24.0963 97.5553 24.0402C96.9107 24.029 96.2165 24.0626 96.0058 24.1187Z" fill="#9DB1F5"/>
<path d="M107.187 24.1186C105.786 24.4439 104.671 25.3525 104.324 26.4519C104.014 27.4727 104.026 27.484 104.795 27.484H105.464L105.613 26.9455C105.836 26.1154 106.171 25.7339 106.939 25.3862C107.547 25.1282 107.794 25.0833 108.699 25.0833C110.707 25.0945 111.575 25.7227 111.575 27.1586C111.588 27.8541 111.426 28.1458 110.918 28.3926C110.807 28.4487 109.852 28.5945 108.811 28.7179C105.018 29.1554 103.89 29.7948 103.679 31.6122C103.431 33.7548 105.154 35.1234 107.906 34.9775C109.455 34.8878 110.398 34.4279 111.34 33.3285L111.662 32.9471L111.811 33.5865C111.997 34.4166 112.381 34.6634 113.521 34.6634H114.29V34.1025C114.29 33.5529 114.29 33.5529 113.93 33.609C113.67 33.665 113.509 33.6202 113.311 33.4407C113.063 33.2163 113.05 33.1041 113.05 30.0304C113.05 26.5641 112.976 26.0368 112.368 25.2404C112.133 24.9263 111.773 24.6795 111.203 24.4214C110.447 24.0849 110.286 24.0625 109.022 24.04C108.278 24.0288 107.447 24.0625 107.187 24.1186ZM111.65 30.2997C111.526 32.0272 110.98 32.891 109.555 33.5529C108.811 33.9006 107.075 33.9904 106.468 33.7099C105.638 33.3285 105.167 32.7788 105.105 32.1394C105.043 31.3541 105.117 31.1522 105.65 30.6811C106.295 30.1314 106.902 29.9519 109.319 29.6154C110.236 29.492 111.104 29.3237 111.24 29.234C111.389 29.1442 111.55 29.1106 111.612 29.1442C111.674 29.1779 111.687 29.6939 111.65 30.2997Z" fill="#9DB1F5"/>
<path d="M41.5137 24.2757C40.3609 24.5562 39.2949 25.3302 38.8238 26.2277L38.6131 26.6203L38.5511 25.4536L38.4891 24.287H37.8693H37.2495L37.2124 29.4697L37.1876 34.6636H37.9313H38.6751V31.5225C38.6751 28.9312 38.7122 28.303 38.8734 27.8543C39.4188 26.4072 40.6708 25.5434 42.3566 25.4424L42.8896 25.4088V24.7581V24.1187L42.493 24.1299C42.2699 24.1299 41.8236 24.1972 41.5137 24.2757Z" fill="#9DB1F5"/>
<path d="M75.2428 29.436V34.6636H75.9246H76.6064L76.5816 29.4697L76.5444 24.287L75.8998 24.2533L75.2428 24.2197V29.436Z" fill="#9DB1F5"/>
</svg>
