<svg width="177" height="35" viewBox="0 0 177 35" fill="none" xmlns="http://www.w3.org/2000/svg">
<g id="Group">
<path id="Vector" d="M16.392 0.140644C13.6784 0.448227 12.0539 1.20009 11.1863 2.56713C10.3372 3.91707 10.1341 5.16449 10.0234 9.89784C9.85722 16.6988 10.2633 18.7323 12.017 20.2018C13.7338 21.6372 15.1552 21.8423 23.7206 21.8423C32.692 21.8423 34.4457 21.586 35.9594 20.0651C36.8824 19.1424 37.2701 18.0317 37.4178 15.9128L37.5285 14.3236H34.6672H31.806L31.6767 15.178C31.5291 16.1862 30.9014 16.9381 29.9415 17.2627C29.1662 17.519 19.2717 17.5874 18.0349 17.3482C17.1119 17.1602 16.1151 16.3229 15.8751 15.5368C15.7828 15.178 15.6905 12.9566 15.6905 10.5814C15.6721 5.62586 15.7459 5.2841 17.075 4.66894C17.758 4.34427 18.1826 4.32718 23.4437 4.32718C27.6156 4.32718 29.2585 4.37844 29.7569 4.54932C30.7168 4.87399 31.5106 5.76257 31.6583 6.71949L31.7875 7.48844H34.6672H37.5285L37.4178 6.24103C37.1224 2.4646 35.1657 0.670368 30.8091 0.140644C29.2031 -0.0473232 18.1826 -0.0473232 16.392 0.140644Z" fill="#9DB1F5"/>
<path id="Vector_2" d="M69.2244 17.4678C69.2244 34.8975 69.2244 35 69.5936 35C69.9627 35 69.9627 34.9146 69.9258 17.5362C69.8705 1.04633 69.852 0.0552254 69.5566 0.00396347C69.2428 -0.0472984 69.2244 0.875446 69.2244 17.4678Z" fill="#9DB1F5"/>
<path id="Vector_3" d="M0 10.9915V21.8423H2.76898H5.53795V10.9915V0.140642H2.76898H0V10.9915Z" fill="#9DB1F5"/>
<path id="Vector_4" d="M40.6118 2.27663V4.41262H45.5037H50.3955V13.1275V21.8423H53.1645H55.9335V13.1275V4.41262H60.9176H65.9018V2.27663V0.140642H53.2568H40.6118V2.27663Z" fill="#9DB1F5"/>
<path id="Vector_5" d="M74.0244 4.32713V8.51367H74.6705H75.3166V4.32713V0.140597H74.6705H74.0244V4.32713Z" fill="#9DB1F5"/>
<path id="Vector_6" d="M77.3467 4.32713V8.51367H77.9928H78.6389L78.6758 5.54038L78.7312 2.56708L80.7617 5.54038C82.7 8.37697 82.8108 8.51367 83.4015 8.51367H83.9922V4.32713V0.140597H83.3461H82.7L82.6631 3.07972L82.6077 6.03593L80.5772 3.09681C78.6389 0.260213 78.5281 0.140597 77.9559 0.140597H77.3467V4.32713Z" fill="#9DB1F5"/>
<path id="Vector_7" d="M86.0229 4.32713V8.51367H86.669H87.3151V6.71944V4.9423L89.2165 4.89104L91.0994 4.83977L91.1548 4.3784L91.2102 3.91703L89.3088 3.86576L87.4074 3.8145L87.3521 2.56708L87.2967 1.33675H89.5303H91.7455V0.738674V0.140597H88.8842H86.0229V4.32713Z" fill="#9DB1F5"/>
<path id="Vector_8" d="M94.4217 0.41411C92.9449 1.11471 92.668 1.74697 92.668 4.29306C92.668 6.70246 93.0187 7.52268 94.3294 8.13784C95.88 8.87262 97.5414 8.4796 98.5382 7.14675C98.9074 6.63411 98.9443 6.37779 98.9443 4.32724C98.9443 2.2596 98.9074 2.02037 98.5197 1.49065C97.5967 0.226143 95.7877 -0.252318 94.4217 0.41411ZM97.1168 1.83241C97.6521 2.32796 97.6521 2.36213 97.6521 4.32724C97.6521 6.29235 97.6521 6.32653 97.1168 6.82208C96.5076 7.38598 95.7323 7.47142 94.9016 7.06131C94.1817 6.73664 93.9602 6.03603 93.9602 4.20762C93.9602 2.02037 94.4032 1.35394 95.8615 1.33686C96.3969 1.33686 96.6922 1.45647 97.1168 1.83241Z" fill="#9DB1F5"/>
<path id="Vector_9" d="M100.643 4.276L100.699 8.42836L101.308 8.47962L101.899 8.53088V6.73665V4.92534H102.877H103.855L104.741 6.71957L105.646 8.5138H106.458H107.27L106.218 6.70248L105.166 4.89116L105.757 4.46396C107.363 3.30198 107.234 1.25144 105.517 0.48248C104.871 0.209073 104.372 0.140721 102.674 0.140721H100.606L100.643 4.276ZM104.908 1.35396C105.129 1.47358 105.369 1.64446 105.443 1.74698C105.701 2.10583 105.591 3.01149 105.24 3.40451C104.944 3.74627 104.741 3.79753 103.449 3.79753L101.991 3.81462L101.936 2.721C101.899 2.12292 101.917 1.52484 101.972 1.40523C102.102 1.09764 104.335 1.08056 104.908 1.35396Z" fill="#9DB1F5"/>
<path id="Vector_10" d="M108.359 4.31005V8.51367H109.005H109.652V5.9334C109.652 4.53219 109.725 3.40439 109.799 3.45565C109.873 3.48983 110.353 4.39549 110.833 5.43785C111.701 7.26625 111.756 7.33461 112.273 7.28334C112.771 7.23208 112.882 7.07829 113.657 5.43785C114.119 4.44675 114.562 3.57527 114.654 3.47274C114.746 3.3873 114.82 4.3784 114.82 5.91631V8.51367H115.466H116.113V4.32713V0.140597H115.485C114.802 0.140597 114.894 0.00389481 112.79 4.53219C112.568 5.02774 112.328 5.43785 112.254 5.43785C112.199 5.43785 111.59 4.25878 110.907 2.8234L109.67 0.226037L109.024 0.174773L108.359 0.123509V4.31005Z" fill="#9DB1F5"/>
<path id="Vector_11" d="M118.826 4.19043C117.94 6.42895 117.22 8.30862 117.22 8.37697C117.22 8.46241 117.497 8.51367 117.848 8.51367C118.42 8.51367 118.494 8.46241 118.808 7.60801L119.158 6.71944L120.949 6.66818L122.74 6.61691L123.054 7.57384C123.367 8.49658 123.386 8.51367 124.087 8.51367H124.77L124.069 6.66818C121.558 0.226037 121.558 0.226037 120.968 0.174773L120.414 0.123509L118.826 4.19043ZM122.204 5.38658C122.204 5.54038 121.835 5.60873 120.912 5.60873C120.211 5.60873 119.62 5.54038 119.62 5.47202C119.62 5.33532 120.598 2.56708 120.838 2.02027C120.949 1.78104 122.204 4.89104 122.204 5.38658Z" fill="#9DB1F5"/>
<path id="Vector_12" d="M123.865 0.653235C123.865 1.14878 123.865 1.14878 125.121 1.20005L126.357 1.25131L126.413 4.87395L126.45 8.51367H127.096H127.742V4.83977V1.16587H128.942H130.142V0.653235V0.140597H127.003H123.865V0.653235Z" fill="#9DB1F5"/>
<path id="Vector_13" d="M131.25 4.32713V8.51367H131.896H132.542V4.32713V0.140597H131.896H131.25V4.32713Z" fill="#9DB1F5"/>
<path id="Vector_14" d="M136.233 0.328253C135.624 0.550396 134.978 1.13138 134.646 1.71237C134.277 2.3788 134.277 6.29193 134.664 6.97545C135.679 8.78677 138.707 9.00891 140.073 7.35138C140.553 6.75331 140.571 6.70204 140.571 4.30974C140.571 1.66111 140.479 1.3877 139.316 0.584572C138.744 0.19155 136.953 0.0377588 136.233 0.328253ZM138.467 1.50732C139.131 1.84908 139.371 2.58386 139.371 4.30974C139.371 6.12105 139.168 6.71913 138.43 7.07798C137.599 7.471 136.824 7.38556 136.215 6.82166C135.679 6.32611 135.679 6.29193 135.679 4.32682C135.679 2.36171 135.679 2.32754 136.215 1.83199C136.787 1.30226 137.747 1.16556 138.467 1.50732Z" fill="#9DB1F5"/>
<path id="Vector_15" d="M142.326 4.32713V8.51367H142.972H143.618L143.655 5.48911L143.71 2.46455L145.759 5.45494C147.697 8.29153 147.827 8.42823 148.381 8.42823C148.713 8.42823 148.971 8.37697 148.971 8.29153C148.971 8.22318 148.971 6.3606 148.971 4.15626V0.140597H148.417H147.864L147.827 2.8234C147.827 4.31005 147.808 5.62582 147.808 5.72834C147.827 5.84796 147.771 5.95049 147.697 5.95049C147.642 5.95049 146.682 4.63472 145.575 3.04554C143.636 0.226037 143.562 0.140597 142.953 0.140597H142.326V4.32713Z" fill="#9DB1F5"/>
<path id="Vector_16" d="M154.823 4.20752C153.937 6.46312 153.217 8.35988 153.217 8.41114C153.217 8.46241 153.494 8.51367 153.844 8.51367C154.417 8.51367 154.491 8.44532 154.823 7.60801L155.192 6.71944L156.946 6.66818L158.699 6.61691L159.05 7.52257C159.382 8.37697 159.438 8.42823 160.102 8.4795C160.472 8.51367 160.785 8.51367 160.785 8.4795C160.785 8.44532 160.047 6.58274 159.142 4.32713C157.555 0.294389 157.518 0.226037 156.964 0.174773L156.429 0.123509L154.823 4.20752ZM158.201 5.38658C158.201 5.54038 157.832 5.60873 156.89 5.60873C155.912 5.60873 155.598 5.55746 155.653 5.38658C155.709 5.28406 155.967 4.53219 156.244 3.72906C156.521 2.92593 156.798 2.15697 156.853 2.02027C156.946 1.78104 158.201 4.90812 158.201 5.38658Z" fill="#9DB1F5"/>
<path id="Vector_17" d="M161.893 4.32726V8.5138H162.539H163.185L163.222 5.52341L163.277 2.51594L165.308 5.47215C167.191 8.2233 167.375 8.42836 167.947 8.47962L168.538 8.53088V4.34435V0.140721H167.892H167.246L167.209 3.07984L167.154 6.00187L165.142 3.07984C163.185 0.243249 163.092 0.140721 162.502 0.140721H161.893V4.32726Z" fill="#9DB1F5"/>
<path id="Vector_18" d="M170.569 4.34435V8.54797L172.655 8.49671C174.981 8.41127 175.775 8.12078 176.439 7.0955C177.196 5.95061 177.159 2.51594 176.402 1.45649C175.719 0.49957 174.648 0.140723 172.47 0.140723H170.569V4.34435ZM174.907 1.71281C176.033 2.61847 176.033 6.03605 174.907 6.92462C174.501 7.24929 174.205 7.31764 173.135 7.31764H171.861V4.32726V1.33688H173.135C174.205 1.33688 174.501 1.40523 174.907 1.71281Z" fill="#9DB1F5"/>
<path id="Vector_19" d="M75.5746 13.435C75.15 13.623 74.6147 14.0331 74.3747 14.3407C73.9686 14.8704 73.9317 15.1096 73.8763 17.2285C73.8209 19.4158 73.8394 19.5696 74.2455 20.1335C74.9285 21.0733 75.7592 21.5005 76.9222 21.5005C78.3805 21.5005 79.4512 20.8682 79.9127 19.7404C80.0973 19.2791 80.0973 19.2791 79.3773 19.2791C78.8235 19.2791 78.602 19.3645 78.4543 19.6379C78.3251 19.8259 77.9559 20.0993 77.6052 20.236C77.0699 20.441 76.8853 20.441 76.3499 20.236C75.3162 19.8259 75.1316 19.4329 75.1316 17.4336C75.1316 15.4343 75.3531 14.8362 76.2207 14.4944C76.9776 14.221 77.7898 14.409 78.362 15.0242C78.7312 15.4514 78.9343 15.5368 79.4696 15.4855L80.1157 15.4343L79.7281 14.7166C79.0081 13.3666 77.1068 12.7857 75.5746 13.435Z" fill="#9DB1F5"/>
<path id="Vector_20" d="M82.9767 13.3154C82.2014 13.5204 81.26 14.409 81.02 15.1608C80.9092 15.5197 80.8539 16.6475 80.8908 17.7753C80.9462 19.9796 81.1123 20.3385 82.3491 21.1245C82.8844 21.4663 83.1613 21.5175 84.1766 21.4663C85.0442 21.4321 85.5427 21.2954 85.9488 21.022C86.9272 20.3897 87.1302 19.7575 87.1302 17.2627C87.1302 15.2634 87.0933 15.0071 86.7056 14.4773C85.9488 13.4179 84.3797 12.9223 82.9767 13.3154ZM84.7858 14.5115C85.6903 14.9387 85.838 15.3146 85.838 17.3481C85.838 19.2107 85.8196 19.2961 85.3211 19.8088C84.7304 20.4239 83.7521 20.5265 82.9583 20.048C82.2753 19.6379 82.1091 19.0398 82.183 17.126C82.2199 15.6735 82.2937 15.3146 82.6075 15.0071C83.2352 14.3577 84.0659 14.1697 84.7858 14.5115Z" fill="#9DB1F5"/>
<path id="Vector_21" d="M130.05 13.3155C129.33 13.5035 128.499 14.2212 128.185 14.9389C127.871 15.6224 127.834 19.0229 128.13 19.7406C128.573 20.8342 129.699 21.5177 131.083 21.5348C132.283 21.5348 133.262 21.0563 133.779 20.2019C134.332 19.3304 134.314 19.2792 133.557 19.2792C133.059 19.2792 132.782 19.3988 132.394 19.8089C131.803 20.4241 130.806 20.5266 130.031 20.0481C129.348 19.638 129.182 19.04 129.256 17.109C129.311 15.554 129.348 15.3319 129.754 14.9389C129.994 14.6996 130.474 14.4604 130.788 14.392C131.508 14.2724 132.468 14.6825 132.634 15.1781C132.726 15.4515 132.911 15.5198 133.483 15.5198C134.166 15.5198 134.222 15.4857 134.092 15.1268C133.594 13.6402 131.803 12.837 130.05 13.3155Z" fill="#9DB1F5"/>
<path id="Vector_22" d="M153.733 13.2982C151.998 13.7766 151.5 14.8019 151.592 17.7068C151.647 19.9966 151.795 20.3384 153.05 21.1244C153.918 21.6712 155.782 21.6029 156.669 21.0048C157.647 20.3213 157.831 19.7574 157.831 17.2625C157.831 15.2633 157.795 15.0069 157.407 14.4772C156.669 13.4349 155.081 12.9222 153.733 13.2982ZM155.598 14.5627C156.355 14.9386 156.539 15.5025 156.539 17.4847C156.539 19.1935 156.521 19.296 156.022 19.8086C155.155 20.7143 153.475 20.4409 153.013 19.3131C152.903 19.0568 152.847 18.0657 152.884 17.1258C152.921 15.6734 152.995 15.3145 153.309 15.0069C153.973 14.3234 154.767 14.1696 155.598 14.5627Z" fill="#9DB1F5"/>
<path id="Vector_23" d="M88.9766 17.3994V21.5005H89.6227H90.2503L90.3057 18.9031L90.361 16.3058L91.284 18.305C92.1886 20.2531 92.2255 20.3043 92.7793 20.3043C93.3515 20.3043 93.3885 20.2531 94.3115 18.288L95.2344 16.2887L95.2529 18.886V21.5005H95.899H96.5451V17.3994V13.2983H95.9359C95.3452 13.2983 95.3267 13.2983 94.1453 15.8786C93.4808 17.2969 92.9085 18.4759 92.8347 18.5101C92.7793 18.5443 92.1701 17.3994 91.4871 15.9469L90.2318 13.2983H89.6042H88.9766V17.3994Z" fill="#9DB1F5"/>
<path id="Vector_24" d="M98.5752 17.3823V21.5005H99.2213H99.8674V18.9031C99.8674 17.4848 99.9228 16.3741 99.9966 16.4254C100.07 16.4937 100.495 17.3823 100.975 18.3905C101.806 20.1847 101.843 20.2189 102.433 20.2189C103.006 20.2189 103.042 20.1847 103.873 18.4247C104.335 17.4336 104.778 16.5621 104.87 16.4766C104.962 16.3741 105.036 17.3652 105.036 18.9031V21.5005H105.682H106.328V17.3823V13.2812L105.645 13.3325L104.962 13.3837L103.744 15.9811C103.079 17.4165 102.507 18.5785 102.452 18.5785C102.396 18.5785 101.806 17.4165 101.141 15.9811L99.9228 13.3837L99.2397 13.3325L98.5752 13.2812V17.3823Z" fill="#9DB1F5"/>
<path id="Vector_25" d="M108.175 16.6136C108.267 19.621 108.304 19.9799 108.655 20.4071C109.781 21.8083 112.347 21.9279 113.657 20.6121C114.34 19.9286 114.451 19.3647 114.451 16.2718V13.2985H113.805H113.159V16.1522C113.159 19.3647 113.048 19.7065 112.051 20.1678C111.516 20.4071 111.258 20.4413 110.704 20.2875C109.541 19.997 109.467 19.7577 109.467 16.3402V13.2985H108.784H108.083L108.175 16.6136Z" fill="#9DB1F5"/>
<path id="Vector_26" d="M116.297 17.3994V21.5005H116.943H117.589L117.626 18.5785L117.681 15.6564L119.675 18.5785C121.632 21.4321 121.706 21.5005 122.315 21.5005H122.942V17.3994V13.2983H122.296H121.65L121.613 16.2374L121.558 19.1765L119.546 16.2374C117.608 13.3837 117.534 13.2983 116.925 13.2983H116.297V17.3994Z" fill="#9DB1F5"/>
<path id="Vector_27" d="M124.973 17.3994V21.5005H125.619H126.265V17.3994V13.2983H125.619H124.973V17.3994Z" fill="#9DB1F5"/>
<path id="Vector_28" d="M137.507 13.7597C137.396 14.016 136.658 15.8786 135.864 17.8608L134.424 21.5005H135.144C135.827 21.5005 135.846 21.4834 136.16 20.5607L136.492 19.6037L138.245 19.655L140.018 19.7063L140.368 20.5948C140.682 21.4492 140.756 21.5005 141.328 21.5005C141.679 21.5005 141.956 21.4321 141.956 21.3638C141.956 21.2954 141.254 19.467 140.405 17.314C138.873 13.3837 138.873 13.3837 138.282 13.3325C137.802 13.2812 137.673 13.3496 137.507 13.7597ZM138.965 16.6817C139.298 17.6044 139.556 18.4076 139.556 18.4759C139.556 18.5443 138.984 18.5955 138.264 18.5955C137.562 18.5955 136.972 18.5443 136.972 18.4759C136.972 18.2196 138.172 15.0071 138.264 15.0071C138.319 15.0071 138.633 15.759 138.965 16.6817Z" fill="#9DB1F5"/>
<path id="Vector_29" d="M141.217 13.8109V14.3236H142.509H143.802V17.912V21.5005H144.448H145.094V17.912V14.3236H146.294H147.494V13.8109V13.2983H144.355H141.217V13.8109Z" fill="#9DB1F5"/>
<path id="Vector_30" d="M148.509 17.3994V21.5005H149.155H149.801V17.3994V13.2983H149.155H148.509V17.3994Z" fill="#9DB1F5"/>
<path id="Vector_31" d="M159.493 17.3994V21.5005H160.139H160.785V18.5955C160.785 16.9893 160.84 15.6906 160.933 15.6906C161.006 15.7077 161.948 16.9893 163.019 18.5614C164.92 21.3467 164.975 21.4151 165.64 21.4663L166.323 21.5176V17.4165V13.2983H165.677H165.031V16.2203C165.031 17.8095 164.975 19.0911 164.883 19.0398C164.809 19.0057 163.868 17.6899 162.815 16.1349L160.877 13.2983H160.194H159.493V17.3994Z" fill="#9DB1F5"/>
<path id="Vector_32" d="M2.65822 25.5508C2.49208 25.6705 2.27056 25.7217 2.17826 25.6705C2.08596 25.6192 1.90136 25.6705 1.75368 25.773C1.60601 25.8926 1.47679 25.9268 1.47679 25.8584C1.47679 25.6021 0.350737 26.7983 0.184598 27.2425C0.0738393 27.4818 0 28.7975 0 30.1646C0 33.0183 0.239978 33.8043 1.32911 34.4024C1.8829 34.71 2.28902 34.7441 6.40556 34.7441C10.6329 34.7441 10.8913 34.7271 11.3897 34.3853C12.2204 33.8043 12.4419 33.2062 12.5158 31.2069L12.5896 29.3614H9.34068H6.09175V30.1304V30.8994H8.12233H10.1529V31.6683C10.1529 32.2151 10.0421 32.5398 9.78371 32.779C9.45144 33.0866 9.17454 33.1208 6.4794 33.1208C4.85494 33.1208 3.32277 33.0524 3.06433 32.9499C2.39978 32.7278 2.14134 31.7025 2.27056 29.7032C2.32594 28.7975 2.4367 27.9432 2.51054 27.7723C2.76898 27.14 3.54429 26.9691 6.31326 26.9691C9.15608 26.9691 9.83909 27.1229 9.93139 27.7894C9.98677 28.1311 10.0975 28.1653 11.2605 28.1653H12.5342L12.4235 27.516C12.3127 26.8324 11.6851 25.8926 11.4451 26.0293C11.3528 26.0806 11.2605 26.0293 11.2236 25.9097C11.1867 25.8072 10.8913 25.6875 10.5775 25.6705C10.2637 25.6534 9.91293 25.585 9.80217 25.5338C9.41452 25.3116 2.97203 25.3287 2.65822 25.5508Z" fill="#9DB1F5"/>
<path id="Vector_33" d="M18.515 25.3966L14.2139 25.4308V30.1299V34.8291H15.4138H16.5952L16.6506 33.4279L16.7059 32.0096L19.2165 31.9583C22.9454 31.89 23.6284 32.1976 23.6284 34.0089V34.8291H24.8283H26.0282V33.8209C26.0282 32.4197 25.7697 31.8729 24.976 31.514L24.3114 31.2236L24.9206 30.6426C25.4559 30.1299 25.5482 29.9078 25.622 29.0192C25.659 28.4724 25.659 27.7547 25.5851 27.4471C25.4374 26.7294 24.5698 25.8238 23.8684 25.6871C23.5915 25.6358 23.2223 25.5333 23.0746 25.4649C22.9269 25.3966 20.8594 25.3624 18.515 25.3966ZM23.0007 27.3788C23.2776 27.5667 23.3515 27.8401 23.3515 28.592C23.3515 30.1299 23.1484 30.2154 19.5488 30.2154H16.6136V28.6775V27.1395H19.6226C21.9301 27.1395 22.7239 27.1908 23.0007 27.3788Z" fill="#9DB1F5"/>
<path id="Vector_34" d="M30.3666 25.5333C30.2004 25.6529 29.9235 25.7042 29.7389 25.6529C29.5543 25.6187 29.2774 25.6871 29.1298 25.8409C28.9636 25.9776 28.7975 26.063 28.7421 26.0117C28.6867 25.9605 28.4652 26.1826 28.2252 26.4902C27.8191 27.0199 27.7822 27.2421 27.7268 29.8223C27.6714 32.3001 27.6899 32.6589 28.0406 33.3595C28.336 33.9918 28.576 34.231 29.2036 34.4873C29.9051 34.7778 30.4219 34.8291 33.7816 34.8291C39.6519 34.8291 39.7442 34.7437 39.6519 29.9932C39.5965 27.1054 39.5965 27.037 39.0981 26.3706C38.8027 25.9946 38.5812 25.7554 38.5812 25.8238C38.5812 25.8921 38.3966 25.8579 38.1751 25.7383C37.5844 25.4478 30.7542 25.2599 30.3666 25.5333ZM36.9013 27.4642C37.3998 27.9256 37.5474 28.7971 37.4182 30.6938C37.2705 32.9323 37.1782 33.0178 34.52 33.0861C32.0464 33.1716 30.9204 33.0349 30.4404 32.5906C30.1266 32.3001 30.0897 32.0096 30.0897 30.0445C30.0897 27.037 29.9604 27.1395 33.7263 27.1395C36.2737 27.1395 36.5875 27.1737 36.9013 27.4642Z" fill="#9DB1F5"/>
<path id="Vector_35" d="M41.6274 25.6015C41.5905 25.7382 41.5166 27.3957 41.4982 29.2754C41.4428 32.4879 41.4613 32.7271 41.8489 33.3765C42.5688 34.641 42.9565 34.7435 47.313 34.7948C50.9127 34.846 51.1896 34.8289 51.9464 34.4872C52.5002 34.248 52.8694 33.9404 53.0725 33.5132C53.4786 32.7442 53.6263 30.1469 53.4417 27.447L53.3125 25.4648L52.371 25.3964C51.5219 25.3452 51.4111 25.3793 51.3742 25.6869C51.3557 25.8749 51.2634 27.4299 51.1896 29.1387C51.005 33.1031 51.0788 33.0005 48.2729 33.086C45.947 33.1714 44.8394 33.0347 44.2671 32.6075C43.861 32.317 43.8426 32.1461 43.6949 28.9849C43.6211 27.1736 43.5472 25.6015 43.5288 25.516C43.4918 25.2255 41.7197 25.311 41.6274 25.6015Z" fill="#9DB1F5"/>
<path id="Vector_36" d="M55.3793 25.5162C55.3609 25.6016 55.3055 27.7376 55.2501 30.2495L55.1763 34.8291H56.2839H57.3915L57.4468 33.4108L57.5022 32.0096L60.7327 31.9242C63.4278 31.8558 64.0739 31.7875 64.48 31.5311C65.3292 31.0185 65.5876 30.4546 65.6799 28.9509C65.7538 27.7718 65.6984 27.4129 65.3661 26.7294C65.0892 26.1655 64.8677 25.9434 64.6831 26.0117C64.5354 26.063 64.4247 26.0117 64.4247 25.875C64.4247 25.7383 64.2401 25.6529 64.0185 25.67C63.7786 25.6871 63.4463 25.6358 63.2617 25.5675C62.8002 25.3453 55.4532 25.3111 55.3793 25.5162ZM63.0032 27.43C63.7232 28.1819 63.5017 29.754 62.634 30.0616C62.3941 30.147 61.1019 30.2154 59.7912 30.2154H57.4099V28.6775V27.1395H60.0497C62.3387 27.1395 62.7448 27.1737 63.0032 27.43Z" fill="#9DB1F5"/>
<path id="Vector_37" d="M73.1011 26.8832V27.4813H74.3933H75.6855V31.0697V34.6582H76.3315H76.9776V31.0697V27.4813H78.1775H79.3774V26.8832V26.2851H76.2392H73.1011V26.8832Z" fill="#9DB1F5"/>
<path id="Vector_38" d="M80.4849 30.4717V34.6582H83.3461H86.2074V34.0601V33.462H83.9922H81.7771V32.2659V31.0697H83.623H85.469V30.4717V29.8736H83.623H81.7771V28.6774V27.4813H83.9922H86.2074V26.8832V26.2851H83.3461H80.4849V30.4717Z" fill="#9DB1F5"/>
<path id="Vector_39" d="M88.9768 26.6611C87.5554 27.3446 87.4078 27.6693 87.3524 30.3521C87.297 32.5735 87.3155 32.7273 87.7216 33.2912C88.4046 34.231 89.2353 34.6582 90.3983 34.6582C91.8566 34.6582 92.9273 34.026 93.3888 32.8981C93.5733 32.4539 93.5733 32.4368 92.9273 32.4368C92.4288 32.4368 92.1335 32.5564 91.7458 32.9494C91.0259 33.6671 89.9183 33.6671 89.143 32.9665C88.6261 32.471 88.6077 32.4197 88.6077 30.6596C88.6077 28.6603 88.7923 28.0964 89.5491 27.7205C90.3983 27.3275 90.989 27.43 91.7089 28.0964C92.2442 28.592 92.4658 28.6774 92.9826 28.6433L93.6103 28.592L93.1857 27.823C92.6873 26.9345 91.5243 26.2851 90.4536 26.2851C90.0844 26.2851 89.4199 26.456 88.9768 26.6611Z" fill="#9DB1F5"/>
<path id="Vector_40" d="M94.6992 30.4546V34.6582H95.3453H95.9914V32.864V31.0697H97.7451H99.4988V32.864V34.6582H100.145H100.791V30.4546V26.268L100.2 26.3193L99.5911 26.3706L99.5357 28.1135L99.4803 29.8736H97.7451H96.0099L95.9545 28.1135L95.8991 26.3706L95.3084 26.3193L94.6992 26.268V30.4546Z" fill="#9DB1F5"/>
<path id="Vector_41" d="M102.821 30.4717V34.6582H103.467H104.113V31.7533C104.113 30.147 104.169 28.8483 104.261 28.8483C104.335 28.8654 105.258 30.1641 106.329 31.7533C108.23 34.5899 108.285 34.6411 108.913 34.6582H109.559L109.522 30.5229L109.485 26.3706H108.895H108.322L108.341 29.2242C108.359 30.933 108.304 32.095 108.193 32.095C108.101 32.095 107.122 30.7963 106.033 29.1901C104.113 26.3877 104.021 26.2851 103.43 26.2851H102.821V30.4717Z" fill="#9DB1F5"/>
<path id="Vector_42" d="M113.011 26.644C112.587 26.849 112.051 27.2421 111.811 27.5496C111.442 28.0452 111.405 28.2673 111.405 30.5058C111.405 32.6931 111.442 32.9665 111.793 33.4108C112.494 34.2823 113.288 34.6582 114.451 34.6582C115.669 34.6582 116.482 34.2481 117.165 33.3083C117.552 32.7785 117.589 32.5393 117.589 30.4717C117.589 28.4211 117.552 28.1648 117.165 27.6351C116.666 26.9345 115.356 26.2851 114.451 26.2851C114.1 26.2851 113.454 26.456 113.011 26.644ZM115.356 27.7205C116.113 28.0964 116.297 28.6603 116.297 30.6596C116.297 32.4197 116.279 32.471 115.762 32.9665C115.042 33.6158 113.971 33.65 113.214 33.0519C112.716 32.6589 112.697 32.5735 112.642 30.7792C112.587 29.2926 112.624 28.8312 112.882 28.404C113.399 27.5325 114.377 27.2591 115.356 27.7205Z" fill="#9DB1F5"/>
<path id="Vector_43" d="M119.38 26.4047C119.306 26.456 119.25 28.3528 119.25 30.5913V34.6582H122.112H124.973V34.0601V33.462H122.758H120.543V29.8736V26.2851H120.026C119.73 26.2851 119.435 26.3364 119.38 26.4047Z" fill="#9DB1F5"/>
<path id="Vector_44" d="M128.388 26.4045C127.797 26.5412 126.838 27.276 126.505 27.8741C126.265 28.3013 126.191 28.8823 126.191 30.4714C126.191 32.9321 126.431 33.5814 127.65 34.2308C129.09 35.0168 130.936 34.7263 131.914 33.5302C132.431 32.915 132.449 32.8125 132.505 30.7448C132.56 28.7456 132.542 28.5405 132.135 27.8399C131.434 26.6267 129.939 26.0628 128.388 26.4045ZM130.548 27.9766C131.139 28.4551 131.157 28.5405 131.231 29.9588C131.249 30.7619 131.231 31.7018 131.157 32.0264C130.991 32.915 130.326 33.4618 129.422 33.4618C128.333 33.4618 127.742 32.915 127.539 31.753C127.336 30.591 127.502 28.7285 127.871 28.1987C128.444 27.3614 129.68 27.2589 130.548 27.9766Z" fill="#9DB1F5"/>
<path id="Vector_45" d="M135.864 26.4731C135.255 26.6952 134.609 27.2762 134.24 27.9085C134 28.3015 133.926 28.8825 133.926 30.5571C133.926 32.4539 133.963 32.7615 134.332 33.2912C134.96 34.231 136.03 34.7095 137.322 34.624C139.298 34.4873 140.276 33.3595 140.294 31.1894V30.0445H138.725H137.156V30.6426V31.2406H138.079C138.947 31.2406 139.002 31.2748 139.002 31.6678C139.002 32.2488 138.541 33.069 138.098 33.2912C137.895 33.3766 137.415 33.4621 137.027 33.4621C135.569 33.4621 134.867 31.9412 135.218 29.4464C135.384 28.2161 135.864 27.6693 136.935 27.5325C137.655 27.4471 137.765 27.4813 138.338 28.0623C138.818 28.5236 139.131 28.6774 139.556 28.6774C140.11 28.6774 140.147 28.6433 140.018 28.199C139.87 27.6009 139.076 26.8149 138.319 26.5244C137.636 26.251 136.529 26.2339 135.864 26.4731Z" fill="#9DB1F5"/>
<path id="Vector_46" d="M140.849 26.4047C140.849 26.456 141.439 27.5325 142.141 28.78L143.433 31.0356V32.8469V34.6582H144.079H144.725V32.9152V31.1894L146.017 28.9167C146.737 27.6522 147.31 26.5585 147.31 26.456C147.31 26.3706 147.033 26.2851 146.682 26.2851C146.091 26.2851 146.054 26.3193 145.094 28.199L144.116 30.1299L143.138 28.199C142.159 26.2851 142.159 26.2851 141.513 26.2851C141.144 26.2851 140.849 26.3364 140.849 26.4047Z" fill="#9DB1F5"/>
</g>
</svg>
