<svg width="133" height="36" viewBox="0 0 133 36" fill="none" xmlns="http://www.w3.org/2000/svg">
<g clip-path="url(#clip0)">
<path fill-rule="evenodd" clip-rule="evenodd" d="M24.8269 20.9646C24.8048 20.9421 24.4379 20.8896 24.2696 20.8782C23.1521 20.8064 22.0351 21.47 21.5937 22.4626C21.4482 22.7898 21.3672 23.4486 21.3672 23.4486L21.4133 24.4736L21.5108 24.801C21.6519 25.1478 21.9638 25.5729 22.2893 25.8663C22.5468 26.0959 22.6889 26.1806 23.0799 26.3268C24.1731 26.742 25.2761 26.4855 26.1103 25.6203L26.3565 25.3059L26.5585 24.8867L26.8058 24.0687L26.8441 23.6413L26.8058 23.1751C26.7719 22.8904 26.5987 22.4566 26.3674 22.0816L25.9796 21.6619L25.4802 21.275L24.8269 20.9646ZM24.9798 24.801C25.2668 24.546 25.7033 23.7866 25.1955 22.9103C24.8342 22.2867 23.0799 22.0816 22.856 23.4486C22.8249 23.8939 22.8175 24.2381 23.0799 24.6011C23.2646 24.8498 23.1638 24.835 23.5052 24.9914C24.1668 25.2943 24.6927 25.056 24.9798 24.801Z" fill="#9DB1F5"/>
<path d="M2.85064 0.297335C1.67581 0.436794 0.696044 1.23757 0.252711 2.42523C0.119711 2.77163 0.115278 2.82111 0.115278 3.46443C0.110844 4.21571 0.155178 4.43165 0.425611 4.967C0.868944 5.85325 1.76004 6.51456 2.72651 6.67201L2.89941 6.7035L3.15654 7.58075C3.29841 8.06212 3.44028 8.55697 3.47574 8.68294C3.88804 10.082 4.34468 11.6611 4.34468 11.6881C4.34468 11.7016 4.23828 11.7871 4.10528 11.8725C3.55554 12.2279 3.25851 12.7273 3.20531 13.3616C3.13438 14.2613 3.67968 15.0936 4.50871 15.3635C4.60181 15.395 4.69491 15.4355 4.71708 15.4535C4.75254 15.4895 4.77471 15.7369 4.93874 17.8378C4.97864 18.3192 5.01854 18.7871 5.03628 18.877L5.05844 19.039L5.55498 19.066C5.82984 19.084 6.13131 19.1065 6.22441 19.1245L6.39731 19.1559L6.36628 18.7331C6.35298 18.4991 6.30864 18.0043 6.27318 17.6354C6.24214 17.262 6.17564 16.5692 6.13574 16.0878L6.06038 15.2151L6.18894 15.1206C6.59238 14.8372 6.87168 14.3828 6.98251 13.8475C7.04014 13.5595 7.04014 13.4831 6.98251 13.2176C6.92488 12.9387 6.92931 12.9072 6.99581 12.8398C7.03571 12.7993 8.70708 11.6566 10.7065 10.3025C12.7059 8.94836 14.4394 7.7652 14.5591 7.67973L14.7719 7.52227L15.06 7.66623L15.3482 7.81019L15.3216 8.1116C15.3083 8.27806 15.2728 8.8089 15.2507 9.29027C15.2285 9.77163 15.1886 10.5229 15.162 10.9548C15.0645 12.6373 14.9847 14.0634 14.9581 14.6527C14.9403 14.9901 14.9182 15.2826 14.9004 15.305C14.8871 15.3275 14.7807 15.3815 14.661 15.4265C13.8675 15.7279 13.3 16.5332 13.3 17.352C13.3 17.6219 13.3621 17.5634 12.7237 17.9143C9.13268 19.8937 8.34798 20.3346 8.29478 20.3796C8.24601 20.4291 8.26818 20.4876 8.41448 20.7395C8.51644 20.9059 8.64058 21.1714 8.69821 21.3288C8.75141 21.4863 8.81791 21.6167 8.84008 21.6167C8.87111 21.6167 9.21248 21.4368 9.81985 21.0994C9.91738 21.0454 10.1169 20.9329 10.2632 20.852C10.4095 20.771 10.609 20.6585 10.7065 20.6045C10.804 20.5505 11.0656 20.4066 11.2828 20.2896C11.5045 20.1682 12.1695 19.7993 12.7636 19.4709L13.8453 18.868L13.9606 18.9805C14.1645 19.1739 14.5103 19.3674 14.8251 19.4664C15.0733 19.5428 15.1975 19.5563 15.5122 19.5338C16.3945 19.4754 17.0772 18.9535 17.3875 18.0987L17.4806 17.8378L18.1944 17.6084C18.5845 17.4824 19.0589 17.3295 19.2407 17.2755C19.4224 17.217 20.1406 16.9876 20.8367 16.7671C23.6518 15.8674 25.5271 15.2736 25.5493 15.2736C25.5626 15.2736 25.6646 15.404 25.7754 15.5615C25.9439 15.7999 26.1079 15.9664 26.5246 16.3128C26.5468 16.3308 26.4404 16.6637 26.2941 17.055C26.0325 17.7613 25.3675 19.5158 25.0084 20.4606C24.8134 20.9779 24.7912 21.0769 24.8887 21.0769C24.9996 21.0769 25.5582 21.3873 25.7488 21.5538C25.8862 21.6752 25.9527 21.7067 25.9882 21.6707C26.0148 21.6437 26.2409 21.0769 26.4892 20.4156C26.7374 19.7543 27.132 18.6971 27.367 18.0718C27.6019 17.4464 27.8147 16.8976 27.8369 16.8571C27.8679 16.8031 27.961 16.7851 28.2315 16.7716C28.994 16.7446 29.659 16.4477 30.1999 15.9034C30.488 15.611 30.5767 15.4805 30.754 15.0981C30.8693 14.8507 30.989 14.6437 31.02 14.6437C31.0821 14.6437 31.3348 14.7292 33.485 15.4715C34.3096 15.7549 35.0012 16.0023 35.0233 16.0158C35.0499 16.0293 35.0677 16.1103 35.0677 16.1958C35.0677 16.5287 35.276 17.0236 35.5952 17.4329L35.6795 17.5454L35.4888 17.8378C32.4121 22.548 32.1284 22.9709 32.0574 22.9439C31.4279 22.6919 31.3392 22.6739 30.6122 22.6739C29.9516 22.6739 29.8807 22.6829 29.5482 22.7999C28.8743 23.0383 28.2669 23.4747 27.8812 24.0011C27.7571 24.172 27.6374 24.316 27.6197 24.316C27.6064 24.316 27.4822 24.2845 27.3492 24.244C27.2162 24.208 27.0167 24.145 26.9015 24.1135L26.6931 24.0505L26.6222 24.307C26.5424 24.5724 26.3783 24.9323 26.2409 25.1347C26.1921 25.1977 26.1567 25.2697 26.1567 25.2922C26.1567 25.3192 26.2808 25.3687 26.436 25.4137C26.5867 25.4541 26.8128 25.5216 26.9414 25.5576L27.1719 25.6251L27.1675 26.0615C27.163 27.0017 27.4113 27.7035 27.9876 28.4143C28.4221 28.9452 29.0694 29.3545 29.7698 29.539C30.1733 29.647 31.02 29.6559 31.4279 29.5525C32.1062 29.386 32.8865 28.8822 33.3209 28.3288C33.5692 28.0094 33.884 27.3571 33.9771 26.9657C34.079 26.5428 34.0702 25.6926 33.9593 25.2607C33.8618 24.8693 33.6268 24.3745 33.4052 24.082C33.3209 23.9651 33.25 23.8481 33.25 23.8211C33.25 23.7806 35.777 19.9207 36.7878 18.4227C37.0006 18.1032 37.0494 18.0718 37.2888 18.0673C37.8474 18.0538 38.5523 17.5589 38.8316 16.9741C39.3769 15.8449 38.8493 14.5493 37.6789 14.1489C37.4395 14.0634 37.3242 14.0544 36.9518 14.0679C36.5661 14.0859 36.473 14.1084 36.2203 14.2344C36.0607 14.3108 35.8435 14.4548 35.7371 14.5493L35.5465 14.7202L34.4071 14.3288C33.782 14.1129 32.7845 13.771 32.186 13.564C31.5875 13.3616 31.0644 13.1727 31.0245 13.1502C30.9801 13.1277 30.9447 13.0692 30.9447 13.0152C30.9447 12.9657 30.8516 12.7318 30.7363 12.4934C30.2797 11.5441 29.3886 10.9368 28.3556 10.8693L27.9123 10.8423L27.7926 10.5499C27.7216 10.388 27.5354 9.91559 27.3758 9.49271C27.2118 9.07433 27.0123 8.54798 26.9236 8.32304C26.8394 8.10261 26.764 7.91366 26.7552 7.90466C26.7463 7.89566 26.6222 7.98114 26.4803 8.09361C26.334 8.21057 26.0813 8.36353 25.9084 8.43551C25.7178 8.51649 25.6069 8.58847 25.6158 8.62895C25.6291 8.70993 26.4448 10.8828 26.5379 11.0898L26.6089 11.2472L26.4404 11.3822C25.7311 11.9355 25.2877 12.7183 25.239 13.5056C25.2257 13.7125 25.1902 13.8969 25.1636 13.9194C25.137 13.9419 24.5873 14.1219 23.94 14.3198C23.2927 14.5178 22.2686 14.8372 21.6568 15.0261C21.0495 15.2151 20.4598 15.3995 20.349 15.431C19.9633 15.5435 18.6377 15.9574 18.0171 16.1553C17.6757 16.2633 17.3521 16.3532 17.2989 16.3532C17.2457 16.3532 17.1747 16.2948 17.1171 16.2048C17.0063 16.0203 16.7536 15.7774 16.4787 15.593L16.2703 15.449L16.2925 15.1476C16.3235 14.7202 16.3989 13.4201 16.4477 12.4169C16.4743 11.9445 16.523 11.0268 16.5585 10.37C16.594 9.71314 16.6383 8.92587 16.6516 8.61546C16.6826 8.01263 16.7137 7.89566 16.8422 7.89566C16.922 7.89566 17.1171 7.82368 17.423 7.68422C17.8397 7.49078 18.3451 6.99142 18.5624 6.55505L18.6865 6.31212L19.0633 6.34361C19.551 6.3796 21.6125 6.49656 22.4149 6.53255L23.04 6.55955L23.0666 6.23564C23.0888 5.98371 23.1331 5.82626 23.2661 5.54734C23.3681 5.3314 23.4169 5.18294 23.3903 5.16944C23.3504 5.15595 22.0292 5.09296 19.5067 4.976L18.8638 4.94901L18.784 4.6386C18.6643 4.16173 18.4648 3.81983 18.088 3.44193C17.5427 2.88859 17.024 2.66816 16.2748 2.66366C15.2241 2.66366 14.3507 3.2125 13.9162 4.15273L13.7212 4.57111L13.566 4.54412C13.4818 4.53512 13.0606 4.45864 12.635 4.38217C12.2094 4.31019 11.6996 4.22021 11.5045 4.18422C11.3094 4.15273 10.9193 4.08075 10.64 4.03127C10.0858 3.9323 9.02184 3.74335 8.42334 3.63988C8.21498 3.60389 7.87804 3.54541 7.66968 3.50492C7.46131 3.46893 7.11551 3.41044 6.89828 3.36996C6.68104 3.33397 6.49041 3.29348 6.46824 3.28448C6.45051 3.27098 6.41948 3.16302 6.40618 3.04605C6.22441 1.69193 5.03184 0.454788 3.76834 0.315329C3.27624 0.261343 3.16541 0.261345 2.85064 0.297335ZM3.89248 1.70094C4.29591 1.84489 4.69491 2.20929 4.91214 2.62317C5.61261 3.97728 4.46438 5.59682 2.96148 5.36289C2.22554 5.25042 1.60931 4.67458 1.43641 3.94579C1.35661 3.59039 1.36104 3.33397 1.45858 2.97857C1.63148 2.34875 2.12358 1.84039 2.73981 1.66044C3.00138 1.58397 3.63534 1.60646 3.89248 1.70094ZM17.0151 3.84232C18.2033 4.49014 18.1634 6.19515 16.9442 6.80248C16.7181 6.91495 16.6472 6.92844 16.2482 6.92844C15.725 6.92394 15.5078 6.84297 15.1797 6.53705C14.7719 6.15916 14.6078 5.74528 14.6389 5.20093C14.6655 4.74207 14.8162 4.42715 15.162 4.10325C15.5344 3.75235 15.7782 3.66237 16.3147 3.68037C16.6959 3.69386 16.7624 3.70736 17.0151 3.84232ZM6.76084 4.75106C6.88498 4.77356 7.34161 4.85453 7.78051 4.93101C8.74254 5.09296 8.87998 5.11996 9.53168 5.23692C9.81098 5.28641 10.343 5.38088 10.7065 5.44386C11.0745 5.50685 11.5932 5.59682 11.8592 5.64631C12.1296 5.69579 12.6483 5.78576 13.0118 5.84875C13.6724 5.96122 13.7877 6.0107 13.7877 6.17266C13.7877 6.20864 13.8187 6.29412 13.8542 6.3706L13.9251 6.50106L10.343 8.91237C7.26625 10.9863 6.41948 11.5576 6.10028 11.7826C6.06038 11.8095 5.98944 11.805 5.90964 11.7691C5.79881 11.7241 5.76334 11.6656 5.68354 11.3912C5.17814 9.64566 4.73924 8.13859 4.53974 7.45929C4.40674 7.00942 4.30034 6.62253 4.30034 6.60003C4.30034 6.57304 4.47324 6.46957 4.69048 6.3616C5.00524 6.20415 5.14711 6.09618 5.47518 5.75877C5.74561 5.48885 5.92738 5.25942 6.02491 5.06147C6.25545 4.6116 6.18008 4.64309 6.76084 4.75106ZM28.7812 12.3134C29.1314 12.4799 29.4107 12.7543 29.5836 13.1097C29.7122 13.3751 29.7255 13.4426 29.7255 13.8115C29.7255 14.1624 29.7078 14.2523 29.6014 14.4863C29.4462 14.8282 29.1802 15.1071 28.8388 15.2871C28.5906 15.422 28.5418 15.431 28.1295 15.431C27.7172 15.431 27.6684 15.422 27.4202 15.2871C26.8438 14.9811 26.5113 14.4368 26.5113 13.807C26.5113 13.1412 26.9148 12.5518 27.5576 12.2774C27.9167 12.1245 28.4132 12.138 28.7812 12.3134ZM5.55498 12.6733C5.94068 12.8937 6.14018 13.3346 6.03378 13.7305C5.82541 14.5268 4.88998 14.7562 4.36684 14.1399C3.68854 13.3301 4.64171 12.1559 5.55498 12.6733ZM37.5681 15.0891C37.8208 15.2151 38.007 15.458 38.1134 15.7999C38.1754 16.0068 38.1799 16.0743 38.1355 16.2543C38.0513 16.5782 37.8607 16.8526 37.6213 17.0056C37.4262 17.127 37.3641 17.1405 37.0671 17.1405C36.6947 17.1405 36.544 17.0775 36.3134 16.8436C36.0873 16.6142 35.9942 16.3847 35.9942 16.0563C35.9942 15.2241 36.8144 14.7202 37.5681 15.0891ZM15.8979 16.2183C16.5496 16.5017 16.86 17.307 16.5629 17.9548C16.3368 18.4541 15.9334 18.7106 15.3837 18.7106C15.0999 18.7106 15.0157 18.6926 14.8118 18.5801C14.5192 18.4137 14.3019 18.1662 14.1867 17.8513C13.801 16.8031 14.8783 15.7729 15.8979 16.2183ZM31.1708 24.073C31.7914 24.262 32.2569 24.6624 32.5318 25.2472C32.6914 25.5891 32.6958 25.6071 32.6958 26.138C32.6958 26.6688 32.6914 26.6868 32.5318 27.0242C32.2747 27.573 31.8801 27.9464 31.3215 28.1669C31.1486 28.2344 30.989 28.2523 30.59 28.2523C30.0935 28.2523 30.0713 28.2434 29.7344 28.0859C28.9718 27.717 28.5019 26.9747 28.5063 26.1245C28.5108 25.1797 29.1669 24.316 30.0624 24.073C30.3861 23.9831 30.8737 23.9831 31.1708 24.073Z" fill="#9DB1F5"/>
<path fill-rule="evenodd" clip-rule="evenodd" d="M24.6848 4.39116C24.6715 4.41366 24.5208 4.45415 24.4011 4.49914C23.6075 4.80055 23.04 5.60582 23.04 6.42459C23.04 6.69451 23.1863 7.17137 23.1863 7.17137L23.5853 7.94066L23.7006 8.05313C23.9045 8.24657 24.2503 8.44001 24.5651 8.53899C24.8134 8.61546 24.9375 8.62896 25.2523 8.60647C26.1345 8.54798 26.8172 8.02613 27.1276 7.17137L27.2118 6.52806L27.1276 5.83076L26.968 5.42587L26.8571 5.27742C26.7463 5.09297 26.4936 4.85004 26.2187 4.66559L26.0104 4.52164L25.3587 4.39116H24.6848ZM26.303 7.02742C26.6 6.3796 26.2897 5.57433 25.638 5.29091C24.6183 4.84554 23.541 5.87574 23.9267 6.92394C24.042 7.23885 24.2592 7.48629 24.5518 7.65274C24.7557 7.76521 24.84 7.7832 25.1237 7.7832C25.6734 7.7832 26.0769 7.52677 26.303 7.02742Z" fill="#9DB1F5"/>
<path fill-rule="evenodd" clip-rule="evenodd" d="M3.12368 20.1371C2.1842 21.0428 1.84436 22.3988 2.22553 23.7365C2.33347 24.1291 2.36166 24.1755 2.77864 24.74C3.26171 25.4022 3.44054 25.5621 4.02461 25.8515C4.98768 26.3335 6.19748 26.3196 7.14675 25.8133L8.47975 24.7008C8.46226 24.6771 8.54675 24.471 8.6672 24.2314C8.84107 23.8834 8.89545 23.694 8.96434 23.1792C9.02645 22.7621 9.03708 22.4395 8.99428 22.2008C8.90477 21.6524 8.20585 20.3529 8.23111 20.346C8.20682 20.346 8.10963 20.2719 8.02216 20.1781C6.98512 19.1112 5.13781 18.8208 3.93982 19.541C3.47344 19.8217 3.37628 19.8956 3.12368 20.1371ZM6.43837 20.8033C5.97967 20.585 5.39371 20.5313 4.94674 20.674C4.6601 20.7625 4.08978 21.1655 3.91005 21.4071C3.48649 21.9758 3.38461 22.75 3.64127 23.418C3.78613 23.7948 3.94846 24.0228 4.24877 24.2814C4.87272 24.8056 5.78616 24.9 6.50419 24.508C7.97328 23.7111 7.93011 21.5244 6.43837 20.8033Z" fill="#9DB1F5"/>
<path d="M55.5898 3.72991C55.1376 3.80189 54.8317 3.89637 54.4327 4.09881C54.0026 4.31925 53.4263 4.80511 53.4219 4.95356C53.4219 4.99855 54.0913 5.65087 54.477 5.97927L54.579 6.06925L54.7652 5.8803C55.4922 5.16051 56.6272 5.08403 57.3099 5.70935C57.5404 5.92079 57.802 6.40665 57.7178 6.46063C57.6823 6.48313 57.1414 6.50112 56.5163 6.50112H55.3725V7.19842V7.89572H56.5695C57.9394 7.89572 57.8596 7.86423 57.6291 8.30511C57.3542 8.82696 56.8932 9.11488 56.2769 9.14637C55.6962 9.17786 55.2307 9.00241 54.7873 8.57953C54.6011 8.39958 54.5657 8.38608 54.4992 8.44007C54.2509 8.63351 53.4219 9.44328 53.4219 9.49277C53.4219 9.55575 53.7588 9.89765 53.9982 10.0776C54.211 10.2396 54.6322 10.4555 54.9381 10.559C55.2395 10.6579 55.9622 10.7749 56.2858 10.7749C56.636 10.7749 57.403 10.6174 57.7222 10.4825C59.2251 9.83917 60.0231 8.30961 59.7571 6.5776C59.5753 5.39444 58.7995 4.39572 57.7222 3.95035C57.1326 3.71192 56.2814 3.62194 55.5898 3.72991Z" fill="#9DB1F5"/>
<path d="M71.9086 3.73449C71.4342 3.81096 70.9776 3.96842 70.6008 4.18436C70.2949 4.35531 69.7363 4.85017 69.7363 4.94914C69.7363 4.99862 70.0067 5.25955 70.7027 5.89387L70.8934 6.06482L71.0574 5.90736C71.4919 5.48449 71.9485 5.28654 72.4805 5.28654C73.0302 5.28654 73.3893 5.4395 73.7263 5.80839C73.9169 6.01533 74.112 6.39323 74.0588 6.44721C74.041 6.46521 73.509 6.4877 72.8706 6.50119L71.7091 6.52369V7.1985V7.8733L72.8972 7.8868C74.245 7.9003 74.1785 7.8733 73.9657 8.28269C73.7041 8.79104 73.2164 9.10595 72.6445 9.14644C72.0726 9.18243 71.5805 9.00698 71.1416 8.61109L70.8845 8.37716L70.7648 8.48963C69.9225 9.26341 69.7363 9.44785 69.7363 9.49284C69.7363 9.57832 70.2638 10.0597 70.552 10.2306C70.9333 10.4601 71.5584 10.6625 72.1081 10.73C73.1632 10.8604 74.174 10.5815 74.941 9.93821C75.4331 9.52433 75.8365 8.88551 76.0139 8.2332C76.1247 7.82832 76.1469 6.87459 76.0582 6.43821C75.9163 5.72742 75.637 5.20557 75.1449 4.70171C74.6661 4.21585 74.1341 3.92343 73.4691 3.77497C73.0258 3.676 72.3475 3.65801 71.9086 3.73449Z" fill="#9DB1F5"/>
<path d="M79.3742 3.73456C78.7757 3.82454 78.288 4.00898 77.8491 4.3104C77.6097 4.47235 77.1841 4.88173 77.1841 4.94922C77.1841 4.9942 77.49 5.29112 78.1506 5.89395L78.3412 6.0649L78.5053 5.90744C78.9442 5.48906 79.3919 5.28662 79.9106 5.28662C80.4781 5.28662 80.8328 5.43508 81.1741 5.80847C81.3648 6.01541 81.5598 6.3933 81.5066 6.44729C81.4889 6.46528 80.9569 6.48778 80.3185 6.50127L79.157 6.52377V7.19857V7.87338L80.3096 7.88688C80.9436 7.89137 81.4845 7.90487 81.5155 7.91837C81.6086 7.94986 81.4002 8.37724 81.1697 8.63816C80.5357 9.33996 79.3786 9.32646 78.5895 8.61567L78.3368 8.38173L78.1683 8.53019C77.6629 8.98006 77.1841 9.44793 77.1841 9.49292C77.1841 9.57389 77.6275 9.98328 77.9334 10.1857C78.3235 10.4421 78.891 10.6356 79.4983 10.7211C79.9461 10.784 80.0835 10.784 80.4692 10.7346C81.7859 10.5681 82.7081 9.92929 83.2356 8.81811C83.4839 8.29176 83.5681 7.88688 83.5681 7.22107C83.5681 6.59575 83.4839 6.16387 83.2755 5.7005C82.7834 4.60731 81.8923 3.93701 80.6732 3.73456C80.1944 3.65359 79.8663 3.65359 79.3742 3.73456Z" fill="#9DB1F5"/>
<path d="M95.2501 3.73456C94.4299 3.86952 93.8536 4.15294 93.3127 4.68828C93.193 4.80075 93.0999 4.91772 93.0999 4.94921C93.0999 4.9942 93.6097 5.49355 94.155 5.97941L94.2526 6.06939L94.4432 5.88494C95.3033 5.03019 96.6687 5.09767 97.2539 6.0244C97.4091 6.27183 97.4534 6.44278 97.3692 6.47427C97.3337 6.48777 96.7973 6.50127 96.1766 6.50127H95.0506V7.19857V7.89587H96.2476C97.6175 7.89587 97.5377 7.86438 97.3071 8.30525C97.0323 8.8271 96.5712 9.11502 95.955 9.14651C95.3742 9.178 94.9087 9.00255 94.4654 8.57967C94.2171 8.34574 94.3279 8.29175 93.5787 8.99355C93.3127 9.23648 93.0999 9.46142 93.0999 9.49291C93.0999 9.60088 93.7117 10.1317 94.0309 10.2982C94.4343 10.5141 94.7624 10.6221 95.2767 10.7076C95.8042 10.793 96.0791 10.793 96.5801 10.7031C97.0677 10.6221 97.4224 10.5006 97.7859 10.2982C98.8588 9.69535 99.4839 8.57067 99.4839 7.22106C99.4839 5.71399 98.6992 4.48584 97.4002 3.95049C96.7973 3.70756 95.9505 3.62209 95.2501 3.73456Z" fill="#9DB1F5"/>
<path d="M44.0009 3.85609C43.9876 3.88758 43.9832 5.42165 43.9876 7.26612L44.0009 10.6177H44.8433H45.6856L45.7078 8.93964C45.7211 8.0219 45.7477 7.26612 45.7654 7.26612C45.8097 7.26162 45.9738 7.51805 46.7452 8.80918C47.0821 9.37152 47.388 9.86188 47.4235 9.89787C47.49 9.96985 48.1683 9.99684 48.2614 9.92936C48.288 9.91136 48.6737 9.27705 49.1259 8.51676C49.5736 7.75648 49.9549 7.14915 49.9726 7.16715C49.9903 7.18514 50.0125 7.97242 50.0169 8.90815L50.0302 10.6177L50.8548 10.6312C51.5464 10.6402 51.6883 10.6312 51.7371 10.5727C51.7814 10.5187 51.7858 9.82589 51.7548 7.16715L51.7149 3.8246L51.0277 3.81111C50.6509 3.80661 50.3007 3.81111 50.2519 3.8201C50.2031 3.8336 50.1012 3.95057 50.0258 4.08103C48.9308 5.97949 47.9111 7.6755 47.8757 7.66201C47.8491 7.65301 47.3126 6.78476 46.6831 5.73656L45.5393 3.8246L44.7812 3.81111C44.196 3.80211 44.0142 3.81111 44.0009 3.85609Z" fill="#9DB1F5"/>
<path d="M62.3506 3.83801C62.3195 3.85601 62.2841 4.34187 62.2486 5.21912C62.1511 7.64392 61.9649 8.60215 61.5215 8.93506C61.4417 8.99354 61.26 9.06102 61.1137 9.08801L60.8477 9.1375L60.8388 9.80781C60.8299 10.1812 60.8388 10.5051 60.861 10.5366C60.8876 10.5771 61.8452 10.5996 64.7401 10.6221L68.5838 10.6536V9.88428V9.115L68.1538 9.10151L67.7193 9.08801L67.6972 6.45626L67.675 3.82452L65.0372 3.81552C63.5875 3.80652 62.3772 3.82002 62.3506 3.83801ZM65.8263 7.19405C65.8352 8.63814 65.8263 9.04302 65.782 9.07452C65.7022 9.124 63.4101 9.1195 63.3791 9.07002C63.3658 9.04752 63.4057 8.91256 63.4678 8.7686C63.5298 8.62015 63.6185 8.33223 63.6673 8.12079C63.7692 7.63043 63.8845 6.48326 63.8845 5.91192C63.8845 5.67349 63.8978 5.43955 63.9111 5.40356C63.9377 5.34058 64.0485 5.33159 64.8776 5.34058L65.813 5.35408L65.8263 7.19405Z" fill="#9DB1F5"/>
<path d="M86.082 3.83364C86.0421 3.89662 86.0066 4.52194 85.9623 5.87156C85.8692 8.46731 85.6786 9.06564 84.9249 9.06564C84.7343 9.06564 84.7254 9.07014 84.6988 9.2096C84.6545 9.48402 84.6013 10.5727 84.6323 10.6087C84.6944 10.6762 85.2796 10.7392 85.6431 10.7167C86.5918 10.6582 87.1371 10.0284 87.3987 8.68325C87.4874 8.21089 87.5893 7.06821 87.6204 6.14598C87.6381 5.74109 87.6603 5.39469 87.6736 5.3722C87.6869 5.3497 88.1125 5.33171 88.6267 5.33171H89.5533L89.5622 7.97245L89.5755 10.6177L90.4976 10.6312L91.4153 10.6402L91.4064 7.23467L91.3931 3.82464L88.7464 3.81114C87.2923 3.80665 86.0909 3.81564 86.082 3.83364Z" fill="#9DB1F5"/>
<path d="M101.98 3.85629C101.953 3.88778 101.918 4.32866 101.905 4.83701C101.816 7.45976 101.758 8.08958 101.554 8.53945C101.368 8.94434 101.226 9.04331 100.77 9.0748L100.615 9.0883L100.588 9.38071C100.57 9.54267 100.548 9.88007 100.53 10.1365L100.504 10.5954L100.623 10.6494C100.694 10.6763 101 10.7033 101.324 10.7033C101.856 10.7078 101.918 10.6988 102.144 10.5909C102.459 10.4424 102.632 10.2895 102.822 9.99704C103.257 9.32673 103.447 8.32801 103.514 6.33058C103.532 5.82223 103.567 5.39935 103.589 5.37686C103.62 5.34537 103.971 5.33637 104.542 5.34087L105.447 5.35436L105.469 7.98611L105.491 10.6179L106.413 10.6314L107.331 10.6404L107.322 7.23483L107.309 3.8248L104.667 3.8113C102.583 3.80231 102.011 3.8158 101.98 3.85629Z" fill="#9DB1F5"/>
<path d="M117.395 11.7063C117.395 12.3091 117.802 12.8175 118.436 13.0109C118.813 13.1234 119.877 13.1234 120.254 13.0064C120.888 12.8175 121.238 12.4126 121.287 11.8233L121.309 11.5399H120.693H120.072L120.015 11.7378C119.944 11.9897 119.824 12.1022 119.558 12.1742C119.141 12.2866 118.782 12.1022 118.68 11.7198L118.632 11.5399H118.015H117.395V11.7063Z" fill="#9DB1F5"/>
<path d="M77.7518 13.4338C76.2178 13.6633 75.0607 14.7385 74.7637 16.214C74.675 16.6684 74.6972 17.4332 74.8124 17.8606C75.1272 19.0437 76.0848 19.984 77.3084 20.3214C77.7961 20.4563 78.7626 20.4833 79.2635 20.3798C81.0058 20.0199 82.1496 18.6478 82.1496 16.9203C82.1496 15.6742 81.5511 14.5855 80.5093 13.9512C79.7468 13.4833 78.7182 13.2899 77.7518 13.4338ZM79.2325 15.1748C79.9463 15.5302 80.3275 16.349 80.199 17.2532C80.0261 18.4769 78.8823 19.1697 77.7473 18.7378C77.3971 18.6074 77.007 18.234 76.8296 17.8651C76.3774 16.9383 76.6833 15.7192 77.4813 15.2423C77.805 15.0489 78.0133 15.0039 78.4966 15.0174C78.8956 15.0264 78.9709 15.0444 79.2325 15.1748Z" fill="#9DB1F5"/>
<path d="M94.807 13.4293C94.1509 13.5372 93.4105 13.8701 92.9273 14.284C92.6746 14.5 92.2756 15.0128 92.1293 15.3052C91.8012 15.9755 91.6815 16.9023 91.8367 17.6626C91.9298 18.1439 92.0362 18.4003 92.3288 18.8547C92.9938 19.8849 94.1021 20.4428 95.4765 20.4473C96.3454 20.4473 97.0193 20.2583 97.671 19.8354C99.1207 18.8952 99.6305 16.9428 98.8458 15.3412C98.4025 14.437 97.5779 13.7802 96.5582 13.5192C96.1282 13.4068 95.2326 13.3618 94.807 13.4293ZM96.2479 15.1433C96.6912 15.3502 97.037 15.7596 97.201 16.2545C97.303 16.5739 97.303 17.2802 97.201 17.5906C96.8375 18.6793 95.6804 19.1741 94.6652 18.6658C93.6012 18.1394 93.344 16.4659 94.1819 15.5527C94.3859 15.3322 94.7361 15.1073 94.9799 15.0443C95.0553 15.0263 95.3169 15.0128 95.5607 15.0173C95.9287 15.0263 96.0439 15.0488 96.2479 15.1433Z" fill="#9DB1F5"/>
<path d="M44.0097 13.5509C43.992 13.5644 43.9787 13.9108 43.9787 14.3157V15.049H44.9983H46.018V17.6808V20.3125H46.949H47.88L47.8889 17.6898L47.9022 15.0715L48.9218 15.049L49.9415 15.0265L49.9548 14.3742C49.9592 14.0143 49.9548 13.6769 49.9415 13.6184L49.9193 13.5194H46.9756C45.3619 13.5194 44.023 13.5329 44.0097 13.5509Z" fill="#9DB1F5"/>
<path d="M51.6039 16.916V20.3125H54.286H56.9682V19.5702V18.8279H55.217H53.4659V18.2206V17.6133L54.9422 17.6043L56.414 17.5908L56.4273 16.88L56.4406 16.1737H55.022C54.2417 16.1737 53.5767 16.1602 53.5368 16.1467C53.4792 16.1242 53.4659 16.0297 53.4659 15.5619V15.004H55.1505H56.8352L56.8263 14.2707L56.813 13.5419L54.2107 13.5284L51.6039 13.5194V16.916Z" fill="#9DB1F5"/>
<path d="M58.2982 13.5554C58.2982 13.5914 58.8746 14.4687 59.9696 16.0927L60.475 16.8485L59.9918 17.5593C59.7258 17.9462 59.1938 18.72 58.8081 19.2778L58.112 20.29L59.1893 20.3035C59.779 20.308 60.2799 20.299 60.2977 20.281C60.3198 20.2585 60.6124 19.8311 60.9494 19.3228C61.2863 18.8144 61.5878 18.4005 61.6144 18.4005C61.6631 18.4005 61.9247 18.7694 62.7005 19.9301L62.9577 20.3125H64.066H65.1743L65.1034 20.1865C65.0679 20.1191 64.7886 19.7007 64.4872 19.2553C64.1813 18.8099 63.6803 18.0676 63.3744 17.6088L62.8114 16.7675L63.3079 16.0342C63.5783 15.6293 64.0616 14.914 64.3763 14.4507C64.6911 13.9828 64.9482 13.5824 64.9482 13.5599C64.9482 13.5104 62.8646 13.5059 62.7981 13.5554C62.7537 13.5869 62.5941 13.8299 61.9513 14.8331C61.7828 15.0985 61.6321 15.3189 61.6188 15.3189C61.6055 15.3189 61.3306 14.914 61.0114 14.4192L60.4307 13.5194H59.3622C58.777 13.5194 58.2982 13.5374 58.2982 13.5554Z" fill="#9DB1F5"/>
<path d="M66.5754 13.5464C66.5577 13.5644 66.5444 15.094 66.5444 16.9475V20.3125H67.4976H68.4507L68.4596 18.9944L68.4729 17.6808H69.7364H70.9999L71.0221 18.9854L71.0442 20.29L71.9885 20.3035L72.9284 20.3125V16.916V13.5194L71.9885 13.5284L71.0442 13.5419L71.0309 14.8106L71.0221 16.0837H69.7364H68.4507L68.4419 14.8106L68.4286 13.5419L67.5153 13.5284C67.0143 13.5239 66.5932 13.5329 66.5754 13.5464Z" fill="#9DB1F5"/>
<path d="M84.6101 13.5734C84.6013 13.6049 84.5702 14.1673 84.5481 14.8241C84.4417 17.4918 84.4062 17.8067 84.1757 18.2836C83.9983 18.648 83.8831 18.738 83.5328 18.7695L83.2624 18.7964L83.2358 19.0709C83.2225 19.2193 83.2048 19.5657 83.2003 19.8356L83.1915 20.3305L83.4796 20.3935C83.8698 20.4745 84.4062 20.443 84.7431 20.3125C85.2219 20.1281 85.6475 19.5747 85.8426 18.8729C86.0111 18.2746 86.1219 17.2669 86.1751 15.8813L86.2061 15.0715H87.1593H88.1125L88.1258 17.6898L88.1346 20.3125H89.0656H89.9966L89.9878 16.925L89.9745 13.5419L87.3012 13.5284C85.1865 13.5195 84.6279 13.5284 84.6101 13.5734Z" fill="#9DB1F5"/>
<path d="M101.022 13.5509C101.005 13.5644 100.991 15.094 100.991 16.9475V20.3125H101.922H102.853L102.862 17.6898L102.876 15.0715L104.396 15.058L105.912 15.049L105.903 14.2932L105.89 13.5419L103.47 13.5284C102.14 13.5239 101.036 13.5329 101.022 13.5509Z" fill="#9DB1F5"/>
<path d="M107.53 13.5734C107.517 13.6049 107.513 15.13 107.517 16.961L107.53 20.29H108.435H109.339L109.778 19.6602C110.017 19.3138 110.616 18.45 111.108 17.7392C111.596 17.0284 112.017 16.4571 112.035 16.4706C112.057 16.4841 112.075 17.3523 112.075 18.405V20.3125H113.006H113.937L113.928 16.925L113.914 13.5419L113.045 13.5284C112.261 13.5194 112.172 13.5239 112.11 13.5959C112.07 13.6409 111.711 14.1538 111.312 14.7341C109.663 17.1229 109.481 17.3883 109.45 17.3883C109.432 17.3883 109.41 16.5246 109.406 15.4629L109.392 13.5419L108.47 13.5284C107.761 13.5194 107.544 13.5284 107.53 13.5734Z" fill="#9DB1F5"/>
<path d="M116.153 16.916V20.3125H117.053H117.949L118.499 19.5117C118.805 19.0754 119.376 18.2386 119.78 17.6583C120.179 17.0779 120.542 16.5651 120.582 16.5156C120.649 16.4391 120.653 16.5696 120.675 18.3601L120.698 20.29L121.62 20.3035L122.537 20.3125V16.916V13.5194H121.655H120.773L120.112 14.4732C118.654 16.5831 118.255 17.1544 118.14 17.3029L118.02 17.4558L118.015 15.4854V13.5194H117.084H116.153V16.916Z" fill="#9DB1F5"/>
<path d="M124.785 13.5464C124.767 13.5644 124.754 15.094 124.754 16.9475V20.3125H125.707H126.66L126.669 18.9944L126.683 17.6808L127.955 17.6673L129.232 17.6583L129.241 18.9719L129.254 20.29L130.198 20.3035L131.138 20.3125L131.129 16.9295L131.116 13.5419H130.185H129.254L129.241 14.8151L129.232 16.0837L127.955 16.0747L126.683 16.0612L126.66 14.8016L126.638 13.5419L125.725 13.5284C125.224 13.5239 124.803 13.5329 124.785 13.5464Z" fill="#9DB1F5"/>
<path d="M13.0297 22.8005C12.7193 22.8905 12.44 23.0794 12.2051 23.3538C12.0011 23.5923 11.9834 23.6013 11.8282 23.5788C11.7351 23.5608 11.3849 23.5203 11.0524 23.4843C10.2278 23.3943 9.38104 23.2954 9.10174 23.2594L8.87564 23.2279L8.7781 23.5473C8.7249 23.7272 8.6052 24.0242 8.5121 24.2086C8.40127 24.429 8.35694 24.5505 8.3924 24.564C8.45004 24.582 8.92884 24.6405 9.79777 24.7439C11.0657 24.8924 11.5578 24.9509 11.713 24.9734C11.8548 24.9959 11.8947 25.0319 12.01 25.2388C12.3691 25.8866 13.0873 26.251 13.7523 26.1205C14.3331 26.0036 14.7675 25.6707 15.0291 25.1353C15.1621 24.8609 15.1665 24.8564 15.3527 24.8564C15.4547 24.8564 15.8581 24.8339 16.2483 24.8114C16.6384 24.7844 17.4852 24.7349 18.1324 24.699C18.7797 24.663 19.4491 24.6225 19.6176 24.609C19.7905 24.5955 20.2959 24.564 20.7437 24.5415C21.1914 24.519 21.5771 24.483 21.5949 24.465C21.6126 24.447 21.5993 24.3166 21.5638 24.1816C21.5284 24.0466 21.5018 23.7452 21.5018 23.5158V23.0929L21.2712 23.1199C21.1427 23.1334 20.5885 23.1649 20.0388 23.1919C19.489 23.2189 18.6822 23.2594 18.2433 23.2819C17.8044 23.3089 16.9975 23.3493 16.4478 23.3718C15.898 23.3943 15.3306 23.4303 15.1798 23.4438L14.9094 23.4708L14.6922 23.2504C14.3774 22.931 14.036 22.778 13.5927 22.76C13.3799 22.751 13.1494 22.7645 13.0297 22.8005ZM13.7257 23.6193C13.9429 23.6823 14.1646 23.8712 14.271 24.0781C14.2976 24.1321 14.3198 24.2941 14.3198 24.438C14.3198 25.2748 13.2957 25.6167 12.8169 24.9464C12.4711 24.465 12.6972 23.7992 13.2602 23.6193C13.5085 23.5428 13.4686 23.5428 13.7257 23.6193Z" fill="#9DB1F5"/>
<path d="M58.9057 23.0792C58.5156 23.1467 58.0589 23.2817 57.753 23.4166C57.5713 23.4976 57.5447 23.5246 57.5713 23.6101C57.6289 23.8035 58.0501 24.8787 58.0811 24.9192C58.1033 24.9417 58.2185 24.9147 58.3515 24.8562C58.8835 24.6223 59.2737 24.5368 59.8633 24.5368C60.7411 24.5323 61.2155 24.9102 60.9761 25.4186C60.8386 25.7155 60.6835 25.756 59.6416 25.756C58.7904 25.756 58.7417 25.7605 58.6973 25.8459C58.6707 25.8999 58.6574 26.1788 58.6619 26.5522L58.6752 27.1731L59.7613 27.1955C60.6569 27.2135 60.8697 27.2315 60.9805 27.29C61.5435 27.6049 61.3618 28.2392 60.6436 28.4597C60.3643 28.5452 60.2623 28.5542 59.6815 28.5317C59.0077 28.5047 58.7106 28.4462 58.223 28.2302C58.0944 28.1763 57.9614 28.1403 57.9304 28.1538C57.8816 28.1718 57.3673 29.3324 57.3673 29.4224C57.3673 29.4719 57.9082 29.7013 58.2983 29.8228C59.3446 30.1422 60.4485 30.1827 61.3839 29.9353C62.3149 29.6878 62.9932 29.1255 63.175 28.4417C63.3612 27.7444 62.9622 26.8581 62.3149 26.5477C62.2307 26.5072 62.1465 26.4533 62.1332 26.4353C62.1199 26.4128 62.2085 26.3183 62.3282 26.2328C62.8425 25.8504 63.073 25.1486 62.8868 24.5278C62.6785 23.826 61.9159 23.2907 60.8253 23.0837C60.382 22.9982 59.3978 22.9937 58.9057 23.0792Z" fill="#9DB1F5"/>
<path d="M44.0542 23.1781C44.0365 23.1916 44.0232 24.7212 44.0232 26.5747V29.9397H44.9542H45.8852L45.8941 27.3169L45.9074 24.6987L47.4014 24.6852L48.8999 24.6762L48.922 24.5727C48.9353 24.5187 48.9398 24.1813 48.9353 23.8214L48.922 23.1691L46.5014 23.1556C45.1714 23.1511 44.0675 23.1601 44.0542 23.1781Z" fill="#9DB1F5"/>
<path d="M51.4756 23.2456C51.4535 23.3041 51.3825 23.4705 51.316 23.619C51.0811 24.1499 49.5471 27.6768 49.321 28.2077C49.1925 28.5046 49.024 28.8825 48.9486 29.049C48.7802 29.4223 48.5895 29.8857 48.5895 29.9172C48.5895 29.9307 49.024 29.9352 49.5516 29.9307L50.5136 29.9172L50.7663 29.2874L51.0146 28.6576L52.4332 28.6441L53.8519 28.6351L53.9849 28.959C54.0558 29.1389 54.1755 29.4358 54.2465 29.6113L54.375 29.9397H55.3415C56.1306 29.9397 56.3035 29.9307 56.3035 29.8767C56.3035 29.8407 56.2459 29.6878 56.175 29.5303C56.104 29.3729 55.8513 28.797 55.6164 28.2527C55.377 27.7083 55.1376 27.1505 55.0755 27.0155C55.0134 26.8806 54.8671 26.5432 54.7519 26.2732C54.6366 25.9988 54.4859 25.6479 54.4149 25.4905C54.344 25.3285 54.0869 24.7437 53.843 24.1858L53.3953 23.1691L52.4554 23.1556L51.5155 23.1466L51.4756 23.2456ZM52.8899 26.1833C53.1027 26.7141 53.2667 27.1595 53.2534 27.173C53.2224 27.2 51.6042 27.2045 51.6042 27.173C51.6042 27.1505 52.2869 25.414 52.3667 25.234C52.4022 25.1576 52.4332 25.1396 52.4643 25.1711C52.4864 25.1936 52.6815 25.6524 52.8899 26.1833Z" fill="#9DB1F5"/>
<path d="M67.2582 23.2456C67.236 23.3041 67.1695 23.4616 67.1075 23.5965C67.0055 23.8214 66.704 24.5187 65.8351 26.5207C65.6578 26.9301 65.2676 27.8208 64.9706 28.5001C64.6736 29.1839 64.4164 29.7867 64.3987 29.8407L64.3677 29.9397L65.3297 29.9307L66.2917 29.9172L66.5444 29.2874L66.7971 28.6576L68.2158 28.6441L69.6389 28.6351L69.896 29.2874L70.1576 29.9397H71.1196C71.9132 29.9397 72.0861 29.9307 72.0861 29.8767C72.0861 29.8407 72.0285 29.6878 71.9575 29.5303C71.8822 29.3729 71.5053 28.5046 71.1108 27.6004C70.7162 26.6961 70.3571 25.8684 70.3083 25.7559C70.2596 25.6434 69.9847 25.0181 69.701 24.3613L69.1778 23.1691L68.238 23.1556L67.2981 23.1466L67.2582 23.2456ZM68.6414 26.1023C68.8542 26.6421 69.036 27.101 69.0404 27.128C69.0448 27.155 68.7434 27.1775 68.2202 27.1865C67.7592 27.191 67.3868 27.1865 67.3868 27.173C67.3868 27.1505 68.0695 25.4185 68.1493 25.2385C68.1759 25.1756 68.2114 25.1261 68.2247 25.1261C68.2424 25.1261 68.4286 25.5669 68.6414 26.1023Z" fill="#9DB1F5"/>
<path d="M73.6819 26.5432V29.9397H74.6129H75.5439L75.5528 29.0714L75.5661 28.2077L76.4749 28.1807C77.1178 28.1582 77.4769 28.1267 77.6941 28.0727C78.7049 27.8118 79.3034 27.3124 79.5871 26.4802C79.7334 26.0528 79.7334 25.279 79.5827 24.8427C79.2724 23.9294 78.4877 23.3491 77.3483 23.1916C77.1577 23.1691 76.2533 23.1466 75.34 23.1466H73.6819V26.5432ZM77.304 24.7977C77.8448 25.0946 77.969 25.9044 77.5345 26.3452C77.2818 26.6017 77.0335 26.6601 76.2267 26.6466L75.5661 26.6331L75.5528 25.7109C75.5484 25.2071 75.5528 24.7617 75.5661 24.7302C75.5838 24.6807 75.739 24.6717 76.3552 24.6852C77.0424 24.6987 77.1355 24.7077 77.304 24.7977Z" fill="#9DB1F5"/>
<path d="M49.0059 31.8474C48.9438 32.0138 49.2275 32.2343 49.5024 32.2343C49.6753 32.2343 49.9014 32.1083 49.959 31.9823C50.061 31.7529 49.8881 31.7124 49.6974 31.9193C49.6309 31.9913 49.529 32.0543 49.4758 32.0543C49.4226 32.0543 49.3251 31.9913 49.263 31.9193C49.1344 31.7709 49.0458 31.7484 49.0059 31.8474Z" fill="#9DB1F5"/>
<path d="M62.1731 31.8518C62.1287 31.9642 62.275 32.1352 62.4657 32.1937C62.776 32.2882 63.1307 32.1262 63.1307 31.8923C63.1307 31.7438 63.0154 31.7528 62.8647 31.9193C62.7982 31.9912 62.6962 32.0542 62.643 32.0542C62.5898 32.0542 62.4923 31.9912 62.4302 31.9193C62.3016 31.7708 62.213 31.7483 62.1731 31.8518Z" fill="#9DB1F5"/>
<path d="M51.5818 32.3645C50.8415 32.5579 50.5311 33.4577 51.0055 34.0245C51.2493 34.3124 51.4931 34.4069 51.9099 34.3844C52.167 34.3709 52.2956 34.3394 52.4197 34.2629C52.6015 34.146 52.6192 34.083 52.4906 33.966C52.4108 33.8895 52.3975 33.894 52.2379 33.993C52.0296 34.1235 51.6882 34.1325 51.4843 34.0155C51.2848 33.8895 51.1606 33.6421 51.1606 33.3542C51.1606 33.0528 51.2715 32.8548 51.5109 32.7289C51.7503 32.6074 51.9808 32.6164 52.2202 32.7559C52.4153 32.8683 52.4197 32.8683 52.5039 32.7784C52.5527 32.7289 52.5793 32.6614 52.566 32.6254C52.4995 32.4544 51.8744 32.288 51.5818 32.3645Z" fill="#9DB1F5"/>
<path d="M55.4477 32.3871C55.3324 32.4186 55.1949 32.4816 55.1373 32.5311C55.0841 32.5761 55.0309 32.6211 55.022 32.6256C55.0087 32.6346 55.0486 32.6885 55.1018 32.747L55.2038 32.855L55.4033 32.747C55.6339 32.6256 55.8378 32.6121 56.055 32.702C56.2191 32.774 56.392 32.972 56.392 33.0934C56.392 33.1699 56.3521 33.1789 55.9664 33.1789H55.5452L55.5585 33.3229L55.5718 33.4713L55.993 33.4938C56.3831 33.5163 56.4141 33.5208 56.4008 33.6063C56.3831 33.7232 56.259 33.8942 56.1127 34.0067C55.9442 34.1326 55.625 34.1281 55.3767 33.9887L55.1861 33.8762L55.1018 33.9842C55.0309 34.0696 55.0265 34.1011 55.0708 34.1596C55.1816 34.2901 55.4743 34.3936 55.7624 34.3936C56.2146 34.3936 56.5383 34.2046 56.7067 33.8312C56.7998 33.6243 56.8131 33.1924 56.7289 32.963C56.6668 32.7785 56.4141 32.5086 56.2324 32.4321C56.0196 32.3421 55.6826 32.3197 55.4477 32.3871Z" fill="#9DB1F5"/>
<path d="M67.4885 32.3691C67.2846 32.4141 67.1206 32.4906 67.1206 32.5401C67.1206 32.5581 67.1516 32.6166 67.1871 32.6706C67.2536 32.765 67.2624 32.765 67.4353 32.702C67.8919 32.5401 68.3441 32.7425 68.1845 33.0439C68.1313 33.1474 68.0382 33.1744 67.6969 33.1879C67.4575 33.2014 67.4531 33.2059 67.4531 33.3364V33.4713L67.7944 33.4938C68.0693 33.5118 68.1579 33.5343 68.2333 33.6153C68.353 33.7367 68.322 33.9122 68.1579 34.0202C67.9983 34.1236 67.5462 34.1191 67.3467 34.0157C67.1915 33.9302 67.1472 33.9482 67.1028 34.1101C67.0585 34.2541 67.2846 34.3576 67.7013 34.3846C68.2289 34.4161 68.5924 34.2406 68.6545 33.9212C68.6899 33.7233 68.6412 33.5883 68.4816 33.4353L68.3486 33.3094L68.4683 33.1879C68.6013 33.0394 68.6234 32.8055 68.5126 32.6481C68.3574 32.4186 67.8742 32.2882 67.4885 32.3691Z" fill="#9DB1F5"/>
<path d="M71.9309 32.3643C71.563 32.4588 71.2748 32.7287 71.1773 33.0616C71.0975 33.3315 71.0975 33.3945 71.1595 33.6509C71.226 33.9164 71.5009 34.2313 71.7536 34.3302C72.0285 34.4337 72.5472 34.4022 72.7688 34.2628C72.9506 34.1458 72.9683 34.0828 72.8398 33.9659C72.76 33.8894 72.7467 33.8939 72.5871 33.9928C72.4718 34.0648 72.3565 34.0963 72.1969 34.0963C71.7758 34.0963 71.4876 33.7949 71.492 33.354C71.4965 32.7962 72.1083 32.4498 72.5472 32.7512C72.6358 32.8142 72.7245 32.8637 72.7467 32.8637C72.8132 32.8637 72.9373 32.6882 72.9151 32.6252C72.8486 32.4543 72.2235 32.2878 71.9309 32.3643Z" fill="#9DB1F5"/>
<path d="M94.3324 32.3823C93.9378 32.4948 93.8004 32.6568 93.991 32.7872C94.0708 32.8457 94.1018 32.8457 94.2659 32.7467C94.5895 32.5623 94.9176 32.6208 95.157 32.9087C95.352 33.1471 95.3254 33.1741 94.8422 33.1876C94.421 33.2011 94.4077 33.2056 94.3944 33.3091C94.3723 33.462 94.4476 33.4935 94.8865 33.4935C95.3121 33.4935 95.3343 33.5115 95.2057 33.7634C95.0373 34.0964 94.5407 34.2133 94.2481 33.9929C94.0974 33.8804 94.0176 33.8939 93.9245 34.0514C93.8846 34.1098 93.8979 34.1458 93.9866 34.2133C94.1506 34.3438 94.4122 34.4023 94.7491 34.3843C94.9929 34.3708 95.0816 34.3438 95.2368 34.2313C95.8441 33.7994 95.7909 32.7962 95.1392 32.4588C94.9176 32.3419 94.5851 32.3149 94.3324 32.3823Z" fill="#9DB1F5"/>
<path d="M98.4642 32.3511C98.278 32.3871 98.0918 32.4681 97.9854 32.5626L97.8879 32.6571L97.981 32.756L98.0741 32.855L98.2736 32.747C98.5041 32.6256 98.7081 32.6121 98.9253 32.702C99.0893 32.774 99.2622 32.972 99.2622 33.0934C99.2622 33.1699 99.2223 33.1789 98.8366 33.1789H98.4155L98.4288 33.3229L98.4421 33.4713L98.8632 33.4938C99.2534 33.5163 99.2844 33.5208 99.2711 33.6063C99.1957 34.0247 98.6637 34.2361 98.2736 33.9977C98.1007 33.8942 97.9987 33.9032 97.9322 34.0337C97.848 34.1956 98.2248 34.3936 98.6105 34.3936C99.0184 34.3936 99.1337 34.3486 99.3775 34.1011C99.577 33.9032 99.6124 33.8357 99.6479 33.6243C99.7321 33.1024 99.5548 32.6706 99.1736 32.4771C98.9696 32.3691 98.6593 32.3197 98.4642 32.3511Z" fill="#9DB1F5"/>
<path d="M110.997 32.387C110.882 32.4185 110.745 32.4814 110.687 32.5309C110.634 32.5759 110.581 32.6209 110.572 32.6254C110.559 32.6344 110.594 32.6884 110.652 32.7469L110.749 32.8503L110.953 32.7424C111.303 32.5624 111.685 32.6344 111.853 32.9178C112.004 33.1652 111.986 33.1787 111.516 33.1787H111.095L111.108 33.3227L111.122 33.4712L111.543 33.4937C111.933 33.5161 111.964 33.5206 111.951 33.6061C111.933 33.7231 111.809 33.894 111.662 34.0065C111.494 34.1325 111.113 34.128 110.931 33.993C110.767 33.876 110.736 33.876 110.634 33.9885C110.567 34.065 110.563 34.0875 110.616 34.1505C110.798 34.3754 111.414 34.4699 111.756 34.3214C112.128 34.164 112.336 33.8266 112.341 33.3767C112.341 32.8773 112.044 32.4814 111.583 32.3735C111.339 32.315 111.259 32.315 110.997 32.387Z" fill="#9DB1F5"/>
<path d="M43.9342 33.3811V34.3978L44.1026 34.3843L44.2667 34.3708L44.28 33.93L44.2933 33.4936H44.7987H45.3085V33.8715C45.3085 34.3528 45.3262 34.3933 45.5124 34.3933H45.6632V33.3766V32.3644L45.4991 32.3779L45.3307 32.3914L45.3174 32.7828L45.3041 33.1787H44.7987H44.2933L44.28 32.7828L44.2667 32.3914L44.1026 32.3779L43.9342 32.3644V33.3811Z" fill="#9DB1F5"/>
<path d="M46.2484 33.3676L46.2617 34.3708L46.4213 34.3843C46.5809 34.3978 46.5854 34.3933 47.0819 33.723C47.3568 33.3496 47.5962 33.0437 47.6183 33.0437C47.6405 33.0437 47.6627 33.3406 47.6671 33.705L47.6804 34.3708L47.8489 34.3843L48.0129 34.3978V33.3856V32.3689H47.84C47.6715 32.3689 47.6627 32.3779 47.1706 33.0437C46.8957 33.4126 46.6563 33.7185 46.6341 33.7185C46.612 33.7185 46.5942 33.4126 46.5942 33.0437V32.3689H46.4169H46.2396L46.2484 33.3676Z" fill="#9DB1F5"/>
<path d="M48.6338 33.3813V34.3936H48.7845C48.9264 34.3936 48.9619 34.3531 49.4362 33.7232C49.7155 33.3499 49.9549 33.0484 49.9771 33.0484C49.9948 33.0439 50.0081 33.3139 50.0081 33.6468C50.0081 33.9797 50.0214 34.2811 50.0347 34.3216C50.0524 34.3666 50.1145 34.3936 50.212 34.3936H50.3628V33.3813V32.3691H50.1943C50.0347 32.3691 50.017 32.3826 49.5293 33.0439C49.2545 33.4173 49.0106 33.7098 48.9885 33.6963C48.9619 33.6783 48.9441 33.3858 48.9441 33.017V32.3691H48.789H48.6338V33.3813Z" fill="#9DB1F5"/>
<path d="M53.1822 32.4229C53.1689 32.4544 53.1512 32.7333 53.1379 33.0437C53.1113 33.7365 53.0536 33.9435 52.8586 34.0334C52.7389 34.0874 52.7123 34.1279 52.7123 34.2449C52.7123 34.3888 52.7211 34.3933 52.8852 34.3933C53.262 34.3933 53.4127 34.0874 53.4526 33.2102L53.4792 32.6838H53.8694H54.2639L54.2728 33.5251L54.2861 34.3708L54.4546 34.3843L54.6186 34.3978V33.3856V32.3689H53.9093C53.3773 32.3689 53.1911 32.3824 53.1822 32.4229Z" fill="#9DB1F5"/>
<path d="M57.407 32.4229C57.3405 33.84 57.305 34.0019 57.0834 34.0604C56.977 34.0874 56.8927 34.2629 56.9459 34.3483C56.9814 34.4068 57.2651 34.4068 57.376 34.3438C57.5267 34.2629 57.6287 33.948 57.6774 33.3991C57.6996 33.1157 57.7218 32.8413 57.7218 32.7828C57.7218 32.6838 57.7306 32.6793 58.1119 32.6928L58.4976 32.7063L58.5109 33.5521L58.5198 34.3978L58.6882 34.3843L58.8523 34.3708V33.3811V32.3914L58.1341 32.3779C57.571 32.3689 57.4114 32.3779 57.407 32.4229Z" fill="#9DB1F5"/>
<path d="M59.4512 33.3811V34.3933H59.6019C59.7881 34.3933 59.7792 34.4023 60.3378 33.651C60.5861 33.3181 60.8078 33.0437 60.8299 33.0437C60.8521 33.0437 60.8698 33.3496 60.8698 33.723V34.3978L61.0383 34.3843L61.2023 34.3708L61.2156 33.3676L61.2245 32.3689H61.0516C60.8743 32.3689 60.8698 32.3689 60.3777 33.0437C60.1073 33.4126 59.8679 33.7185 59.8457 33.7185C59.8236 33.7185 59.8058 33.4126 59.8058 33.0437V32.3689H59.6285H59.4512V33.3811Z" fill="#9DB1F5"/>
<path d="M61.7874 32.4004C61.7475 32.4364 61.7475 34.2269 61.783 34.3213C61.8007 34.3663 61.8628 34.3933 61.9559 34.3933C62.0933 34.3933 62.1376 34.3483 62.5632 33.7815C63.1484 32.9987 63.113 33.0437 63.144 33.0437C63.1617 33.0437 63.1795 33.3406 63.1839 33.705L63.1972 34.3708L63.3657 34.3843L63.5297 34.3978V33.3856V32.3689H63.3612C63.2016 32.3689 63.1839 32.3824 62.6962 33.0437C62.4214 33.4126 62.1775 33.7185 62.1554 33.7185C62.1288 33.7185 62.111 33.4621 62.111 33.0437V32.3689H61.9647C61.8805 32.3689 61.8007 32.3824 61.7874 32.4004Z" fill="#9DB1F5"/>
<path d="M64.1504 33.3811V34.3978L64.3189 34.3843L64.4829 34.3708L64.4962 33.93L64.5095 33.4936H65.0149H65.5203L65.5336 33.93L65.5469 34.3708L65.7154 34.3843L65.8794 34.3978V33.3811V32.3644L65.7154 32.3779L65.5469 32.3914L65.5336 32.7828L65.5203 33.1787H65.0149H64.5095L64.4962 32.7828L64.4829 32.3914L64.3189 32.3779L64.1504 32.3644V33.3811Z" fill="#9DB1F5"/>
<path d="M69.7054 32.4231C69.6699 32.4726 68.9562 34.0921 68.8719 34.3126C68.8453 34.3801 68.8675 34.3936 69.0227 34.3936C69.1956 34.3936 69.2044 34.3846 69.2975 34.1686L69.3906 33.9437H69.896H70.4014L70.5034 34.1551C70.5921 34.3486 70.6187 34.3711 70.7694 34.3846C70.8847 34.3936 70.9334 34.3801 70.9334 34.3396C70.9334 34.2856 70.632 33.5748 70.3039 32.864C70.2551 32.7515 70.1842 32.5941 70.1487 32.5131C70.0955 32.3871 70.0689 32.3691 69.9182 32.3691C69.8251 32.3691 69.7276 32.3961 69.7054 32.4231ZM70.1044 33.2104C70.1886 33.4128 70.2463 33.5883 70.233 33.6018C70.1975 33.6423 69.5591 33.6333 69.5591 33.5928C69.5547 33.5028 69.8872 32.774 69.9182 32.8055C69.9359 32.8235 70.0202 33.008 70.1044 33.2104Z" fill="#9DB1F5"/>
<path d="M73.4915 33.3364C73.2565 33.8672 73.0615 34.3261 73.0615 34.3531C73.0615 34.3801 73.1324 34.3936 73.2299 34.3846C73.3762 34.3711 73.4028 34.3486 73.4959 34.1551L73.5935 33.9437H74.0944H74.5998L74.7018 34.1686C74.7993 34.3801 74.8171 34.3936 74.9767 34.3936C75.0698 34.3936 75.1451 34.3756 75.1451 34.3531C75.1451 34.3216 75.0831 34.1686 74.7772 33.4938C74.6486 33.1969 74.4624 32.7785 74.3693 32.5581C74.2895 32.3781 74.2762 32.3691 74.1033 32.3691H73.9171L73.4915 33.3364ZM74.2806 33.1609C74.3649 33.3454 74.4358 33.5298 74.4358 33.5658C74.4358 33.6153 74.3604 33.6288 74.1033 33.6288C73.8373 33.6288 73.7708 33.6153 73.7708 33.5613C73.7708 33.4578 74.0412 32.819 74.0856 32.819C74.1077 32.819 74.1964 32.972 74.2806 33.1609Z" fill="#9DB1F5"/>
<path d="M75.5083 33.3676L75.5216 34.3708L75.6856 34.3843L75.8541 34.3978L75.863 33.5521L75.8763 32.7063L76.3418 32.6838L76.8073 32.6613L76.8206 32.5129L76.8339 32.3689H76.1644H75.4995L75.5083 33.3676Z" fill="#9DB1F5"/>
<path d="M78.1862 32.6704C78.0842 33.9255 78.0443 34.0785 77.8226 34.0785C77.7207 34.0785 77.7162 34.0875 77.7162 34.4654V34.8478L77.8847 34.8343C78.0487 34.8208 78.0487 34.8208 78.062 34.6048L78.0753 34.3934H78.8246H79.5738L79.5871 34.6093C79.6004 34.8208 79.6004 34.8208 79.7556 34.8208H79.9107L79.924 34.4474L79.9373 34.0785H79.8043H79.6669L79.658 33.2327L79.6447 32.3915L78.9265 32.378L78.2128 32.369L78.1862 32.6704ZM79.2679 33.3812V34.0785H78.8024C78.5453 34.0785 78.3369 34.065 78.3369 34.0425C78.3413 34.0245 78.3679 33.8896 78.4034 33.7411C78.4389 33.5926 78.4699 33.3587 78.4699 33.2192C78.4699 33.0798 78.4832 32.8998 78.4965 32.8234L78.5275 32.6839H78.8955H79.2679V33.3812Z" fill="#9DB1F5"/>
<path d="M80.5405 33.3364C80.3056 33.8672 80.1105 34.3261 80.1105 34.3531C80.1105 34.3801 80.1814 34.3936 80.279 34.3846C80.4253 34.3711 80.4519 34.3486 80.545 34.1551L80.6425 33.9437H81.1435H81.6489L81.7508 34.1686C81.8484 34.3801 81.8661 34.3936 82.0257 34.3936C82.1188 34.3936 82.1942 34.3756 82.1942 34.3576C82.1942 34.3261 81.9858 33.8402 81.6311 33.0439C81.5602 32.882 81.4627 32.6661 81.4183 32.5581C81.3385 32.3781 81.3252 32.3691 81.1523 32.3691H80.9661L80.5405 33.3364ZM81.3341 33.1609C81.4183 33.3454 81.4848 33.5298 81.4848 33.5658C81.4848 33.6153 81.4139 33.6288 81.1479 33.6288H80.811L80.8331 33.5028C80.8686 33.3319 81.0991 32.819 81.1435 32.819C81.1656 32.819 81.2499 32.972 81.3341 33.1609Z" fill="#9DB1F5"/>
<path d="M82.5131 33.3676L82.5264 34.3708L82.6904 34.3843L82.8545 34.3978L82.8678 34.1144L82.8811 33.831L83.2623 33.7995C83.4751 33.786 83.7012 33.741 83.7722 33.705C84.0825 33.5386 84.2244 33.2237 84.1401 32.8863C84.0337 32.4859 83.7943 32.3734 83.0451 32.3689H82.5042L82.5131 33.3676ZM83.6658 32.7738C83.8121 32.8863 83.8475 33.0707 83.7589 33.2552C83.6746 33.4351 83.4751 33.5071 83.1249 33.4846L82.8811 33.4711L82.8678 33.1382C82.8589 32.9537 82.8633 32.7783 82.8766 32.7423C82.8944 32.7018 82.9963 32.6838 83.2269 32.6838C83.4884 32.6838 83.5815 32.7018 83.6658 32.7738Z" fill="#9DB1F5"/>
<path d="M84.5881 33.3813V34.3936H84.7433H84.8985L84.9073 33.5478L84.9206 32.7065L85.3196 32.6975C85.8738 32.6795 85.9181 32.6661 85.9181 32.5041V32.3691H85.2531H84.5881V33.3813Z" fill="#9DB1F5"/>
<path d="M86.2285 33.3855V34.4022L86.8181 34.3842C87.3058 34.3752 87.4299 34.3572 87.5541 34.2808C87.8378 34.1098 87.9442 33.7229 87.8023 33.3765C87.7092 33.1426 87.461 33.0436 86.9733 33.0436H86.5832V32.7062V32.3688H86.4058H86.2285V33.3855ZM87.4122 33.4755C87.5053 33.57 87.5186 33.6194 87.4964 33.7544C87.4565 34.0063 87.3324 34.0783 86.929 34.0783H86.5832V33.7184V33.3585H86.9378C87.2659 33.3585 87.3058 33.3675 87.4122 33.4755Z" fill="#9DB1F5"/>
<path d="M88.179 33.3856V34.3978L88.3475 34.3843L88.5116 34.3708L88.5249 33.3676L88.5337 32.3689H88.3564H88.179V33.3856Z" fill="#9DB1F5"/>
<path d="M89.1277 32.4274C89.1189 32.4589 89.1144 32.9088 89.1189 33.4261L89.1322 34.3708L89.2962 34.3843L89.4602 34.3978L89.4735 33.957L89.4868 33.5161H89.9967H90.5065L90.5198 33.9525L90.5331 34.3933H90.706H90.8833V33.3811V32.3689H90.706H90.5331L90.5198 32.7603L90.5065 33.1562H89.9967H89.4868L89.4735 32.7603L89.4602 32.3689H89.3051C89.2208 32.3689 89.141 32.3959 89.1277 32.4274Z" fill="#9DB1F5"/>
<path d="M92.0804 32.3962C92.0804 32.4097 92.209 32.6121 92.3686 32.8461C92.5282 33.0755 92.6701 33.2914 92.6834 33.3274C92.6922 33.3589 92.5637 33.5883 92.3863 33.8313C92.2134 34.0742 92.0627 34.3036 92.0494 34.3351C92.0317 34.3756 92.0804 34.3936 92.2223 34.3936C92.4174 34.3936 92.4218 34.3891 92.6479 34.0562C92.7765 33.8718 92.8962 33.7143 92.9139 33.7008C92.9361 33.6873 93.0646 33.8403 93.2065 34.0382C93.4592 34.3891 93.4592 34.3936 93.6587 34.3936C93.8937 34.3936 93.8981 34.4116 93.4902 33.8223C93.3439 33.6063 93.2154 33.4084 93.2021 33.3724C93.1888 33.3409 93.3129 33.125 93.4725 32.891C93.6321 32.6571 93.7651 32.4457 93.7651 32.4187C93.7651 32.3917 93.6809 32.3692 93.5789 32.3692C93.3927 32.3737 93.3838 32.3827 93.1888 32.6706C93.0779 32.8371 92.9671 32.9765 92.9405 32.9855C92.9139 32.9945 92.7986 32.8596 92.6834 32.6841C92.475 32.3737 92.4706 32.3692 92.2755 32.3692C92.1691 32.3692 92.0804 32.3827 92.0804 32.3962Z" fill="#9DB1F5"/>
<path d="M96.0704 33.3813V34.3936H96.2477H96.4206L96.4339 34.1101L96.4472 33.8312L96.8019 33.8042C97.2009 33.7727 97.4181 33.6963 97.5688 33.5253C97.7639 33.3139 97.7772 32.927 97.5999 32.6571C97.4624 32.4411 97.2186 32.3691 96.6157 32.3691H96.0704V33.3813ZM97.2452 32.7965C97.325 32.873 97.356 32.954 97.356 33.0799C97.356 33.3903 97.1432 33.5163 96.6689 33.4848L96.4472 33.4713L96.4339 33.1384C96.425 32.954 96.4295 32.7785 96.4428 32.7425C96.4605 32.702 96.5625 32.684 96.8019 32.684C97.0989 32.684 97.1521 32.6975 97.2452 32.7965Z" fill="#9DB1F5"/>
<path d="M100.105 33.3856V34.3978L100.273 34.3843L100.437 34.3708L100.45 33.5251L100.459 32.6838H100.876C101.386 32.6838 101.435 32.6658 101.435 32.4994V32.3689H100.77H100.105V33.3856Z" fill="#9DB1F5"/>
<path d="M101.656 32.4186C101.656 32.4456 101.767 32.6481 101.9 32.8685C102.033 33.0889 102.144 33.2959 102.144 33.3319C102.144 33.3678 102.024 33.6018 101.878 33.8447C101.732 34.0921 101.612 34.3171 101.612 34.3441C101.612 34.3801 101.679 34.3936 101.798 34.3846C101.985 34.3711 101.989 34.3666 102.224 33.9527C102.459 33.5478 102.468 33.5388 102.632 33.5388C102.84 33.5388 102.853 33.5748 102.853 34.0382V34.3936H103.009H103.159L103.173 33.9797L103.186 33.5613L103.363 33.5478L103.541 33.5343L103.736 33.8852C103.997 34.3576 104.033 34.3936 104.237 34.3936C104.33 34.3936 104.405 34.3756 104.405 34.3531C104.405 34.3306 104.303 34.1416 104.179 33.9392C103.789 33.2914 103.798 33.3948 104.099 32.882C104.241 32.6391 104.361 32.4231 104.361 32.4006C104.361 32.3826 104.285 32.3691 104.192 32.3691C104.024 32.3691 104.015 32.3736 103.78 32.783C103.541 33.2014 103.536 33.2014 103.363 33.2014H103.186L103.173 32.783L103.159 32.3691H103.009H102.853V32.7245C102.853 33.1879 102.836 33.2239 102.636 33.2239C102.472 33.2239 102.468 33.2149 102.228 32.7965C101.993 32.3781 101.985 32.3691 101.825 32.3691C101.732 32.3691 101.656 32.3916 101.656 32.4186Z" fill="#9DB1F5"/>
<path d="M104.449 32.3824C104.449 32.3959 104.618 32.6928 104.826 33.0482L105.203 33.687V34.0424V34.3978L105.371 34.3843L105.535 34.3708L105.558 34.0109C105.58 33.6555 105.584 33.6465 105.948 33.0392C106.147 32.6973 106.311 32.4094 106.311 32.3959C106.311 32.3824 106.236 32.3689 106.143 32.3689C105.983 32.3689 105.974 32.3779 105.708 32.8278C105.562 33.0797 105.42 33.2911 105.398 33.3001C105.376 33.3091 105.234 33.1067 105.088 32.8548C104.822 32.3914 104.817 32.3914 104.636 32.3779C104.534 32.3689 104.449 32.3734 104.449 32.3824Z" fill="#9DB1F5"/>
<path d="M106.4 32.3869C106.4 32.3959 106.568 32.6838 106.777 33.0347L107.149 33.6645L107.162 34.0154L107.176 34.3708L107.335 34.3843L107.495 34.3978L107.517 34.0244L107.535 33.651L107.876 33.0797C108.319 32.3374 108.315 32.3599 108.102 32.3779C107.938 32.3914 107.925 32.4049 107.663 32.8503C107.517 33.1022 107.38 33.3046 107.353 33.2956C107.331 33.2911 107.189 33.0797 107.043 32.8278L106.781 32.3689H106.591C106.484 32.3689 106.4 32.3779 106.4 32.3869Z" fill="#9DB1F5"/>
<path d="M108.736 32.9852C108.705 33.7365 108.648 33.939 108.453 34.0334C108.333 34.0874 108.306 34.1279 108.306 34.2449C108.306 34.3888 108.315 34.3933 108.479 34.3933C108.852 34.3933 108.989 34.1144 109.047 33.2237L109.082 32.7063L109.468 32.6928L109.858 32.6793L109.867 33.5251L109.88 34.3708L110.049 34.3843L110.213 34.3978V33.3856V32.3689H109.49H108.763L108.736 32.9852Z" fill="#9DB1F5"/>
<path d="M112.828 33.3811V34.3978L112.997 34.3843L113.161 34.3708L113.174 33.5296L113.183 32.6883L113.662 32.6748L114.136 32.6613V32.5264V32.3914L113.484 32.3779L112.828 32.3644V33.3811Z" fill="#9DB1F5"/>
<path d="M114.265 32.4366C114.212 32.5716 114.274 33.1969 114.354 33.3499C114.5 33.6378 114.89 33.7727 115.324 33.6828C115.493 33.6513 115.564 33.6513 115.586 33.6873C115.604 33.7187 115.622 33.8897 115.622 34.0651V34.3936H115.777H115.932V33.3813V32.3691H115.777H115.622V32.783C115.622 33.0125 115.604 33.2239 115.586 33.2554C115.493 33.4038 115.041 33.4533 114.824 33.3364C114.673 33.2554 114.651 33.1879 114.637 32.729L114.624 32.3916L114.456 32.3781C114.336 32.3691 114.283 32.3826 114.265 32.4366Z" fill="#9DB1F5"/>
<path d="M117.94 32.4231C117.891 32.5041 117.129 34.2181 117.098 34.3126C117.08 34.3801 117.102 34.3936 117.257 34.3936C117.43 34.3936 117.439 34.3846 117.532 34.1686L117.625 33.9437H118.131H118.636L118.738 34.1551C118.827 34.3486 118.853 34.3711 119.004 34.3846C119.208 34.4026 119.212 34.3666 119.035 33.9977C118.964 33.8447 118.902 33.7098 118.902 33.7008C118.902 33.6873 118.831 33.5208 118.742 33.3274C118.654 33.1339 118.525 32.846 118.459 32.6841C118.334 32.4006 118.33 32.3916 118.157 32.3781C118.046 32.3691 117.966 32.3871 117.94 32.4231ZM118.352 33.2554C118.432 33.4308 118.481 33.5883 118.467 33.6018C118.423 33.6513 117.794 33.6288 117.794 33.5793C117.794 33.5523 117.865 33.3589 117.958 33.1474C118.139 32.7155 118.117 32.711 118.352 33.2554Z" fill="#9DB1F5"/>
<path d="M119.567 33.3813V34.3936H119.722H119.878V33.6108C119.878 33.1789 119.891 32.7965 119.904 32.756C119.926 32.6975 120.011 32.684 120.343 32.684C120.848 32.684 120.897 32.6661 120.897 32.4996V32.3691H120.232H119.567V33.3813Z" fill="#9DB1F5"/>
<path d="M121.207 33.3813V34.3936H121.939H122.67V34.2361V34.0786H122.116H121.562V33.7862V33.4983L122.041 33.4848L122.515 33.4713V33.3364V33.2014L122.041 33.1879L121.562 33.1744V32.9315V32.6885L122.085 32.675L122.604 32.6616L122.617 32.5131L122.63 32.3691H121.921H121.207V33.3813Z" fill="#9DB1F5"/>
<path d="M123.122 33.3676L123.136 34.3708L123.3 34.3843L123.464 34.3978L123.477 33.957L123.49 33.5161H124H124.51L124.523 33.957L124.537 34.3978L124.701 34.3843L124.865 34.3708V33.3811V32.3914L124.701 32.3779L124.537 32.3644L124.523 32.7603L124.51 33.1562H124H123.49L123.477 32.7603L123.464 32.3689H123.286H123.114L123.122 33.3676Z" fill="#9DB1F5"/>
<path d="M125.206 32.5131L125.22 32.6616L125.53 32.684L125.84 32.7065L125.853 33.5478L125.862 34.3936H126.04H126.217V33.5388V32.684H126.479C126.824 32.684 126.882 32.6571 126.882 32.4996V32.3691H126.035H125.193L125.206 32.5131Z" fill="#9DB1F5"/>
<path d="M127.339 33.0617C127.281 33.831 127.228 33.9974 127.015 34.0694C126.904 34.1099 126.882 34.1414 126.882 34.2539C126.882 34.3888 126.886 34.3933 127.081 34.3933C127.441 34.3933 127.574 34.1504 127.636 33.3856C127.662 33.1112 127.68 32.8413 127.68 32.7828C127.68 32.6838 127.689 32.6793 128.07 32.6928L128.456 32.7063L128.469 33.5521L128.478 34.3978L128.646 34.3843L128.81 34.3708L128.824 33.3676L128.833 32.3689H128.11H127.387L127.339 33.0617Z" fill="#9DB1F5"/>
<path d="M129.573 33.3364C129.338 33.8672 129.143 34.3261 129.143 34.3531C129.143 34.3801 129.214 34.3936 129.311 34.3846C129.458 34.3711 129.484 34.3486 129.577 34.1551L129.675 33.9437H130.176H130.681L130.783 34.1686C130.881 34.3801 130.899 34.3936 131.058 34.3936C131.151 34.3936 131.227 34.3756 131.227 34.3576C131.227 34.3351 131.071 33.9662 130.881 33.5343C130.69 33.1024 130.495 32.6661 130.451 32.5581C130.371 32.3781 130.358 32.3691 130.185 32.3691H129.999L129.573 33.3364ZM130.362 33.1609C130.446 33.3499 130.517 33.5343 130.517 33.5658C130.517 33.6153 130.437 33.6288 130.18 33.6288H129.843L129.866 33.5028C129.901 33.3364 130.132 32.819 130.176 32.819C130.194 32.819 130.278 32.972 130.362 33.1609Z" fill="#9DB1F5"/>
<path d="M131.599 32.4274C131.59 32.4589 131.586 32.9088 131.59 33.4261L131.603 34.3708L131.767 34.3843L131.936 34.3978L131.945 33.5521L131.958 32.7063L132.424 32.6838L132.889 32.6613L132.902 32.5129L132.916 32.3689H132.268C131.785 32.3689 131.617 32.3824 131.599 32.4274Z" fill="#9DB1F5"/>
</g>
<defs>
<clipPath id="clip0">
<rect width="133" height="35" fill="white" transform="translate(0 0.203125)"/>
</clipPath>
</defs>
</svg>
