<svg width="165" height="36" viewBox="0 0 165 36" fill="none" xmlns="http://www.w3.org/2000/svg">
<g clip-path="url(#clip0)">
<path d="M19.503 35.2031C13.2005 35.2031 6.9004 35.2031 0.598717 35.2016C0.127736 35.2016 0.175118 35.2467 0.175118 34.8273C0.175118 23.4223 0.17388 12.0172 0.175118 0.613899C0.175118 0.151582 0.104222 0.205008 0.625415 0.205008C13.2175 0.205008 25.8096 0.205008 38.4015 0.205008C38.9006 0.205008 38.841 0.155895 38.841 0.595016C38.8425 11.9995 38.8425 23.403 38.841 34.8063C38.841 35.2443 38.9063 35.2012 38.4075 35.2012C32.1059 35.2031 25.8043 35.2031 19.503 35.2031Z" fill="#9DB1F5"/>
<path d="M19.6952 1.56873C19.6952 1.56873 19.3693 1.70223 19.321 1.83988C19.2516 2.03983 19.5275 2.2356 19.5168 2.44576C19.5034 2.71995 19.1918 2.93729 19.1803 3.21244C19.171 3.41206 19.425 3.5914 19.3743 3.78703C19.3405 3.91494 19.2198 4.07703 19.0722 4.07432C18.9298 4.07143 18.809 3.91303 18.7884 3.78703C18.7508 3.56137 19.1069 3.39211 19.1086 3.16406C19.1101 3.00707 18.8865 2.89162 18.8963 2.7332C18.9001 2.635 19.0548 2.47785 19.0548 2.47785C19.0548 2.47785 18.6557 2.65543 18.5938 2.82919C18.5478 2.95423 18.7162 3.08119 18.7006 3.21244C18.6576 3.53407 18.2161 3.75045 18.2014 4.07416C18.1882 4.38556 18.3632 4.71676 18.6112 4.93555C18.8427 5.14362 19.1904 5.26741 19.517 5.27091C19.8609 5.27391 20.2313 5.14982 20.4776 4.93555C20.7273 4.71756 20.8739 4.38604 20.887 4.07416C20.8966 3.79884 20.5859 3.56777 20.5847 3.28974C20.5823 3.14075 20.7696 3.01044 20.7442 2.86065C20.7091 2.66438 20.3537 2.38124 20.3537 2.38124C20.3537 2.38124 20.4338 2.64922 20.4059 2.77952C20.369 2.96046 20.1386 3.07863 20.1216 3.25924C20.1055 3.44479 20.3521 3.6045 20.3174 3.78703C20.2935 3.90584 20.2041 4.07112 20.0692 4.07416C19.929 4.07718 19.8303 3.90966 19.8013 3.78703C19.7414 3.52625 20.0654 3.28606 20.0505 3.01906C20.0274 2.6077 19.5923 2.28447 19.6055 1.87102C19.6089 1.75908 19.6952 1.56873 19.6952 1.56873ZM19.5073 5.67749C18.3534 5.67749 17.4151 6.51665 17.4151 7.55337C17.4151 8.58978 18.3532 9.43345 19.5073 9.43345C20.6632 9.43345 21.5963 8.58978 21.5963 7.55337C21.5963 6.51665 20.663 5.67749 19.5073 5.67749ZM16.5747 7.82102C16.567 7.90458 16.5615 7.99049 16.5615 8.07557C16.5615 9.5371 17.8804 10.7236 19.507 10.7236C21.1347 10.7236 22.4543 9.5371 22.4543 8.07557C22.4543 7.99399 22.4504 7.9103 22.4395 7.82823C22.0795 8.97611 20.9026 9.81527 19.5068 9.81527C18.1112 9.81527 16.9341 8.97353 16.5747 7.82102ZM13.9218 11.1438V22.2271H16.5081V11.1438H13.9218ZM16.9486 11.1438L19.5073 12.6487L22.0681 11.1438H16.9486ZM22.5045 11.1438V22.2271H25.0936V11.1438H22.5045ZM16.9486 13.0329V13.9862H18.067H20.943H22.0681V13.0329H20.943H18.067H16.9486ZM19.0943 14.3301C18.9836 14.3333 18.8736 14.3461 18.7669 14.3661C17.6521 14.5716 16.8635 15.5615 16.8635 16.6401C16.8635 17.7117 17.6568 18.6125 18.7437 18.9072C18.3331 18.6842 18.0555 18.2951 18.0459 17.8456V17.8335C18.0397 17.2972 18.4128 16.8325 18.9441 16.6401C19.1065 16.5812 19.2923 16.5484 19.4988 16.5484H19.5125C20.1978 16.5484 20.7469 16.0505 20.7392 15.4465C20.6587 14.6659 19.87 14.3003 19.0943 14.3301ZM20.2682 14.37C20.6776 14.5912 20.9552 14.9815 20.9657 15.4312V15.443C20.9722 15.9793 20.5988 16.4433 20.0687 16.6355C19.9058 16.6944 19.7198 16.7278 19.5125 16.7278H19.4988C18.8137 16.7278 18.2647 17.2252 18.2723 17.8292C18.3532 18.6081 19.1418 18.9743 19.9178 18.9463C20.0271 18.9422 20.1381 18.9316 20.2461 18.9103C21.3598 18.7025 22.1477 17.7138 22.1477 16.6353C22.1479 15.5647 21.3541 14.6626 20.2682 14.37ZM19.5073 14.9946C19.7753 14.9946 19.9872 15.1904 19.9872 15.431C19.9872 15.6699 19.7755 15.8605 19.5073 15.8605C19.2411 15.8605 19.0232 15.6699 19.0232 15.431C19.0232 15.1904 19.2411 14.9946 19.5073 14.9946ZM19.5037 17.4143C19.77 17.4143 19.9872 17.6047 19.9872 17.8454C19.9872 18.0843 19.7698 18.2796 19.5037 18.2796C19.2368 18.2796 19.0232 18.0843 19.0232 17.8454C19.0232 17.6049 19.2368 17.4143 19.5037 17.4143ZM16.9486 19.3861V20.3381H18.067H20.943H22.0681V19.3861H20.943H18.067H16.9486ZM16.9486 20.7214L19.5073 22.2273L22.0681 20.7214H16.9486Z" fill="white"/>
<path d="M6.0155 27.5202H5.34289V25.8226L4.85285 26.9184H4.39171L3.90168 25.8226V27.5202H3.2655V24.9592H4.04473L4.64136 26.2235L5.2361 24.9592H6.0155V27.5202Z" fill="white"/>
<path d="M9.28113 26.2404C9.28113 26.6377 9.15076 26.9506 8.89044 27.1786C8.6297 27.4063 8.27272 27.5202 7.81926 27.5202C7.36422 27.5202 7.00722 27.405 6.74803 27.1743C6.48885 26.9436 6.35925 26.6324 6.35925 26.2406C6.35925 25.8455 6.48885 25.5331 6.74803 25.3036C7.00722 25.0741 7.36422 24.9592 7.81926 24.9592C8.27272 24.9592 8.6297 25.0738 8.89044 25.3022C9.15097 25.5302 9.28113 25.8433 9.28113 26.2404ZM8.49954 26.2389C8.49954 26.0924 8.48107 25.9676 8.44393 25.865C8.40673 25.762 8.35706 25.6773 8.29506 25.6114C8.23034 25.5442 8.157 25.496 8.07532 25.4668C7.9937 25.4376 7.90895 25.4231 7.82117 25.4231C7.72815 25.4231 7.64364 25.4366 7.56814 25.4636C7.49268 25.4905 7.41969 25.5389 7.34943 25.608C7.28738 25.6722 7.23714 25.7567 7.19862 25.8622C7.16009 25.9681 7.14089 26.0941 7.14089 26.2404C7.14089 26.3913 7.15916 26.5166 7.19553 26.6162C7.23195 26.7159 7.28183 26.7992 7.34537 26.8665C7.41005 26.9349 7.4838 26.9832 7.56604 27.0128C7.64826 27.042 7.73338 27.0562 7.82117 27.0562C7.91034 27.0562 7.99679 27.0406 8.08036 27.0092C8.16413 26.9778 8.2363 26.9291 8.29697 26.8629C8.36189 26.7915 8.41177 26.708 8.44679 26.6129C8.48203 26.5177 8.49954 26.3932 8.49954 26.2389Z" fill="white"/>
<path d="M12.0314 27.5202H11.3154V26.3853H10.3411V27.5202H9.62512V24.9592H10.3411V25.8967H11.3154V24.9592H12.0314V27.5202Z" fill="white"/>
<path d="M14.4374 25.4477H13.2511V27.5202H12.5468V24.9592H14.4374V25.4477Z" fill="white"/>
<path d="M17.1876 26.2404C17.1876 26.6377 17.0649 26.9506 16.8199 27.1786C16.5745 27.4063 16.2385 27.5202 15.8117 27.5202C15.3835 27.5202 15.0475 27.405 14.8035 27.1743C14.5596 26.9436 14.4376 26.6324 14.4376 26.2406C14.4376 25.8455 14.5596 25.5331 14.8035 25.3036C15.0475 25.0741 15.3835 24.9592 15.8117 24.9592C16.2385 24.9592 16.5745 25.0738 16.8199 25.3022C17.0649 25.5302 17.1876 25.8433 17.1876 26.2404ZM16.4518 26.2389C16.4518 26.0924 16.4344 25.9676 16.3994 25.865C16.3645 25.762 16.3177 25.6773 16.2594 25.6114C16.1984 25.5442 16.1294 25.496 16.0526 25.4668C15.9757 25.4376 15.896 25.4231 15.8133 25.4231C15.7258 25.4231 15.6463 25.4366 15.5752 25.4636C15.5042 25.4905 15.4355 25.5389 15.3693 25.608C15.311 25.6722 15.2637 25.7567 15.2274 25.8622C15.1912 25.9681 15.1731 26.0941 15.1731 26.2404C15.1731 26.3913 15.1903 26.5166 15.2245 26.6162C15.2588 26.7159 15.3057 26.7992 15.3655 26.8665C15.4264 26.9349 15.4958 26.9832 15.5732 27.0128C15.6506 27.042 15.7307 27.0562 15.8133 27.0562C15.8973 27.0562 15.9786 27.0406 16.0573 27.0092C16.1361 26.9778 16.2041 26.9291 16.2612 26.8629C16.3223 26.7915 16.3692 26.708 16.4022 26.6129C16.4353 26.5177 16.4518 26.3932 16.4518 26.2389Z" fill="white"/>
<path d="M20.1093 27.5028H19.3917V25.4443H18.6702C18.6651 25.5435 18.6604 25.636 18.6558 25.7219C18.6511 25.8078 18.6465 25.8897 18.6413 25.9672C18.6272 26.1893 18.604 26.3811 18.5724 26.5423C18.5405 26.7034 18.504 26.8351 18.4629 26.9377C18.4179 27.0471 18.3727 27.1332 18.3266 27.1956C18.2806 27.2585 18.2371 27.3078 18.1962 27.3443C18.1347 27.399 18.058 27.4418 17.9659 27.4732C17.8737 27.5047 17.783 27.5202 17.6935 27.5202C17.6331 27.5202 17.5675 27.518 17.4958 27.5135C17.4241 27.5089 17.3786 27.5053 17.3595 27.5031V26.9412H17.3863C17.399 26.9421 17.4114 26.9435 17.4238 26.9445C17.4358 26.9455 17.4515 26.9462 17.4707 26.9462C17.5027 26.9462 17.5436 26.9418 17.5936 26.9325C17.6436 26.9233 17.6812 26.9081 17.7069 26.8866C17.7988 26.8091 17.8621 26.6892 17.8959 26.5267C17.93 26.3645 17.9559 26.1301 17.9736 25.824C17.9813 25.6836 17.9862 25.558 17.988 25.4463C17.9899 25.3345 17.9949 25.1725 18.0025 24.9592H20.1095V27.5028H20.1093Z" fill="white"/>
<path d="M24.0624 24.9592L23.1351 26.9954C23.0805 27.1139 23.0193 27.2071 22.9515 27.2757C22.8837 27.344 22.8127 27.3961 22.7381 27.4312C22.6633 27.4666 22.5889 27.49 22.514 27.5023C22.4395 27.5142 22.3613 27.5202 22.2792 27.5202C22.1932 27.5202 22.0934 27.5183 21.9798 27.5152C21.8656 27.5118 21.7897 27.5082 21.751 27.5048V26.9648H21.794C21.805 26.967 21.8225 26.9698 21.8464 26.9733C21.8699 26.9768 21.8997 26.98 21.9358 26.9834C21.9655 26.9858 21.9982 26.9879 22.0327 26.9904C22.0678 26.9926 22.0992 26.9937 22.1281 26.9937C22.2113 26.9937 22.2898 26.9844 22.3639 26.9657C22.438 26.9467 22.4871 26.9146 22.5122 26.8689L21.4843 24.9594H22.2379L22.833 26.1526L23.3367 24.9594H24.0624V24.9592Z" fill="white"/>
<path d="M26.6405 27.5028H25.9678V25.4443H25.2911C25.2865 25.5435 25.2818 25.636 25.2777 25.7219C25.2734 25.8078 25.2691 25.8897 25.2643 25.9672C25.2511 26.1893 25.2294 26.3811 25.1997 26.5423C25.1694 26.7034 25.1352 26.8351 25.0969 26.9377C25.0548 27.0471 25.0123 27.1332 24.9692 27.1956C24.9259 27.2585 24.8851 27.3078 24.8468 27.3443C24.7891 27.399 24.7172 27.4418 24.6308 27.4732C24.5445 27.5047 24.4592 27.5202 24.3755 27.5202C24.319 27.5202 24.2573 27.518 24.1899 27.5135C24.1227 27.5089 24.0803 27.5053 24.0624 27.5031V26.9412H24.0873C24.0993 26.9421 24.1112 26.9435 24.1224 26.9445C24.1337 26.9455 24.1485 26.9462 24.1665 26.9462C24.1966 26.9462 24.2349 26.9418 24.2819 26.9325C24.3288 26.9233 24.3638 26.9081 24.3879 26.8866C24.4744 26.8091 24.5333 26.6892 24.5651 26.5267C24.5969 26.3645 24.6211 26.1301 24.638 25.824C24.645 25.6836 24.6497 25.558 24.6514 25.4463C24.6533 25.3345 24.6578 25.1725 24.665 24.9592H26.6403V27.5028H26.6405Z" fill="white"/>
<path d="M28.3041 27.5202C27.8998 27.5202 27.5788 27.4085 27.3411 27.1851C27.1032 26.9616 26.9843 26.6473 26.9843 26.2424C26.9843 25.8516 27.1035 25.5401 27.3419 25.3079C27.5803 25.0755 27.9015 24.9592 28.3061 24.9592C28.4134 24.9592 28.51 24.9647 28.5958 24.9758C28.6815 24.9867 28.7637 25.0023 28.8419 25.0222C28.9036 25.0388 28.9708 25.0612 29.043 25.0898C29.1153 25.1189 29.1741 25.1438 29.2186 25.1646V25.7523H29.15C29.1176 25.7258 29.0763 25.6941 29.0268 25.657C28.9773 25.62 28.9213 25.5839 28.8585 25.5486C28.7956 25.5133 28.7264 25.4832 28.6509 25.4583C28.5756 25.4337 28.4969 25.4211 28.4149 25.4211C28.3171 25.4211 28.2274 25.4352 28.146 25.4636C28.0647 25.4917 27.987 25.5404 27.9132 25.6101C27.8455 25.6731 27.7905 25.7579 27.7479 25.865C27.7048 25.972 27.6834 26.0982 27.6834 26.244C27.6834 26.3975 27.7058 26.5262 27.7506 26.6305C27.7952 26.735 27.8538 26.8188 27.9261 26.883C27.9961 26.945 28.0743 26.9896 28.1606 27.0172C28.2468 27.0447 28.3328 27.0585 28.4186 27.0585C28.5079 27.0585 28.593 27.0449 28.674 27.0179C28.7546 26.9908 28.8228 26.9611 28.8785 26.9278C28.9388 26.8936 28.9919 26.8588 29.0378 26.8236C29.0837 26.7881 29.1236 26.7569 29.1571 26.7292H29.2186V27.3085C29.1691 27.3295 29.1119 27.3537 29.0468 27.3804C28.9816 27.4075 28.9146 27.4304 28.8457 27.4493C28.7613 27.4724 28.6824 27.4903 28.6086 27.5023C28.5347 27.5144 28.4332 27.5202 28.3041 27.5202Z" fill="white"/>
<path d="M31.924 26.7015C31.924 26.8269 31.8981 26.9416 31.8465 27.0466C31.7949 27.1514 31.7245 27.2373 31.6347 27.3037C31.5278 27.3828 31.4127 27.4388 31.2889 27.4714C31.1652 27.5038 31.0144 27.5202 30.8367 27.5202H29.7345V24.9592H30.4301V25.9208H30.8477C31.0107 25.9208 31.158 25.9312 31.2896 25.9527C31.4216 25.9737 31.5414 26.0234 31.6497 26.1012C31.7454 26.1702 31.815 26.2564 31.8585 26.3602C31.902 26.4641 31.924 26.5779 31.924 26.7015ZM31.204 26.7208C31.204 26.6782 31.199 26.638 31.1891 26.6003C31.1791 26.5624 31.1573 26.5276 31.1238 26.4951C31.0902 26.4634 31.0442 26.4383 30.9861 26.4205C30.9275 26.4026 30.8467 26.3941 30.7436 26.3941H30.4301V27.0456H30.7436C30.8854 27.0456 30.9976 27.0177 31.0799 26.9621C31.1624 26.9066 31.204 26.826 31.204 26.7208ZM32.8282 27.5202H32.1308V24.9592H32.8282V27.5202Z" fill="white"/>
<path d="M35.75 27.5202H35.0852V26.3853H34.1804V27.5202H33.5156V24.9592H34.1804V25.8967H35.0852V24.9592H35.75V27.5202Z" fill="white"/>
<path d="M5.48041 30.4028C5.5385 30.4504 5.58485 30.5091 5.61961 30.5791C5.65436 30.6493 5.67175 30.7345 5.67175 30.8351C5.67175 31.0809 5.57227 31.2732 5.37333 31.4109C5.17421 31.5491 4.88854 31.6179 4.51612 31.6179C4.34679 31.6179 4.18509 31.6037 4.03133 31.5748C3.87755 31.5462 3.73687 31.5072 3.60925 31.4574V30.9061H3.66834C3.7554 30.9636 3.86994 31.0196 4.01211 31.0742C4.1543 31.1287 4.29316 31.156 4.42906 31.156C4.60434 31.156 4.74354 31.1263 4.84682 31.0667C4.95008 31.0073 5.00175 30.9156 5.00175 30.792C5.00175 30.685 4.96399 30.6056 4.88854 30.5544C4.81303 30.503 4.67734 30.4775 4.48119 30.4775H4.10877V30.0371H4.46382C4.62619 30.0371 4.74519 30.0135 4.82068 29.9667C4.89613 29.9196 4.93388 29.8492 4.93388 29.7555C4.93388 29.6727 4.89233 29.6124 4.80942 29.5751C4.72649 29.5375 4.61593 29.5189 4.47789 29.5189C4.40008 29.5189 4.32611 29.5266 4.25593 29.5421C4.18574 29.5576 4.11706 29.5769 4.0497 29.5998C3.98712 29.622 3.92935 29.6462 3.87657 29.6727C3.82375 29.6992 3.78355 29.7192 3.75574 29.7325H3.69466V29.2193C3.77013 29.1894 3.89328 29.1549 4.06443 29.1156C4.23557 29.0765 4.41516 29.0569 4.60317 29.0569C4.93737 29.0569 5.18744 29.1098 5.35329 29.215C5.51916 29.3205 5.60221 29.4672 5.60221 29.6546C5.60221 29.795 5.55673 29.9157 5.46552 30.0173C5.37431 30.1188 5.25698 30.1866 5.11314 30.2208V30.2457C5.16644 30.2547 5.22869 30.2728 5.29933 30.3005C5.3702 30.3278 5.4306 30.3621 5.48041 30.4028Z" fill="white"/>
<path d="M5.84363 31.6179L6.82194 29.0569H7.6155L8.59363 31.6179H7.84501L7.66414 31.0949H6.75407L6.5732 31.6179H5.84363ZM7.50437 30.6309L7.20866 29.7863L6.9131 30.6309H7.50437Z" fill="white"/>
<path d="M10.0856 31.6179C9.68106 31.6179 9.3601 31.5062 9.1223 31.2827C8.88451 31.0592 8.7655 30.7449 8.7655 30.3401C8.7655 29.9493 8.8847 29.6377 9.12318 29.4055C9.36165 29.173 9.68295 29.0569 10.0874 29.0569C10.1949 29.0569 10.2915 29.0623 10.377 29.0734C10.4628 29.0844 10.5449 29.0999 10.6233 29.1199C10.6849 29.1364 10.7519 29.1588 10.8242 29.1875C10.8965 29.2165 10.9553 29.2414 10.9999 29.2623V29.8498H10.9312C10.8986 29.8233 10.8574 29.7917 10.808 29.7547C10.7585 29.7176 10.7025 29.6816 10.6396 29.6462C10.577 29.6109 10.5078 29.5807 10.4323 29.5559C10.3569 29.5313 10.2781 29.5187 10.1961 29.5187C10.0983 29.5187 10.0087 29.5329 9.92714 29.5612C9.84551 29.5892 9.76802 29.6381 9.6943 29.7077C9.62665 29.7707 9.57153 29.8556 9.52866 29.9626C9.48581 30.0697 9.46428 30.1958 9.46428 30.3416C9.46428 30.4951 9.48664 30.6239 9.53124 30.7282C9.57584 30.8327 9.6344 30.9165 9.70688 30.9807C9.7768 31.0427 9.85497 31.0872 9.94142 31.1149C10.0277 31.1424 10.1136 31.1562 10.1995 31.1562C10.2889 31.1562 10.374 31.1425 10.4549 31.1156C10.5356 31.0884 10.604 31.0587 10.6594 31.0254C10.7199 30.9913 10.7729 30.9564 10.8187 30.9213C10.8647 30.8859 10.9045 30.8545 10.9382 30.8269H10.9997V31.4062C10.9501 31.4272 10.8928 31.4514 10.8277 31.478C10.7626 31.5052 10.6954 31.5281 10.6267 31.547C10.5422 31.5701 10.4632 31.588 10.3896 31.5999C10.3159 31.6121 10.2147 31.6179 10.0856 31.6179Z" fill="white"/>
<path d="M13.2343 29.5453H12.0479V31.6179H11.3436V29.0569H13.2343V29.5453Z" fill="white"/>
<path d="M15.8122 31.6179H15.1728V29.9307L14.1791 31.6179H13.578V29.0569H14.2174V30.5825L15.1365 29.0569H15.8124V31.6179H15.8122Z" fill="white"/>
<path d="M18.7341 31.618H18.0947V29.9261L17.1009 31.618H16.4999V29.05H17.1393V30.5798L18.0584 29.05H18.7343V31.618H18.7341ZM18.5376 28.2034C18.5364 28.4103 18.4615 28.5757 18.3126 28.6999C18.1638 28.8242 17.933 28.8863 17.6203 28.8863C17.3134 28.8863 17.0841 28.8231 16.9323 28.6973C16.7804 28.5716 16.7041 28.4069 16.7029 28.2034H17.2728C17.275 28.3287 17.3017 28.4195 17.3527 28.4765C17.4038 28.5337 17.4928 28.5621 17.6203 28.5621C17.7479 28.5621 17.8371 28.5332 17.8879 28.4757C17.939 28.4181 17.9655 28.3273 17.9679 28.2034H18.5376Z" fill="white"/>
<path d="M21.8282 31.6179H21.1634V30.483H20.2585V31.6179H19.5939V29.0569H20.2585V29.9944H21.1634V29.0569H21.8282V31.6179Z" fill="white"/>
<path d="M25.2657 29.5453H24.1872V31.6179H23.5469V29.0569H25.2657V29.5453Z" fill="white"/>
<path d="M25.2656 31.6179L26.2438 29.0569H27.0375L28.0156 31.6179H27.2668L27.0856 31.0949H26.1755L25.9947 31.6179H25.2656ZM26.9264 30.6309L26.6305 29.7863L26.335 30.6309H26.9264Z" fill="white"/>
<path d="M30.0425 30.4028C30.1054 30.4504 30.1556 30.5091 30.1934 30.5791C30.2312 30.6493 30.2499 30.7345 30.2499 30.8351C30.2499 31.0809 30.142 31.2732 29.9265 31.4109C29.7109 31.5491 29.4014 31.6179 28.998 31.6179C28.8146 31.6179 28.6393 31.6037 28.4726 31.5748C28.3062 31.5462 28.1538 31.5072 28.0156 31.4574V30.9061H28.0797C28.1737 30.9636 28.2978 31.0196 28.4518 31.0742C28.6058 31.1287 28.7562 31.156 28.9035 31.156C29.0934 31.156 29.244 31.1263 29.356 31.0667C29.4677 31.0073 29.5238 30.9156 29.5238 30.792C29.5238 30.685 29.4827 30.6056 29.4012 30.5544C29.3194 30.503 29.1726 30.4775 28.9598 30.4775H28.5565V30.0371H28.9411C29.1171 30.0371 29.2458 30.0135 29.3277 29.9667C29.4093 29.9196 29.4504 29.8492 29.4504 29.7555C29.4504 29.6727 29.4053 29.6124 29.3155 29.5751C29.2254 29.5375 29.1058 29.5189 28.9561 29.5189C28.872 29.5189 28.7919 29.5266 28.716 29.5421C28.6396 29.5576 28.5652 29.5769 28.4925 29.5998C28.4245 29.622 28.3621 29.6462 28.3048 29.6727C28.2478 29.6992 28.2039 29.7192 28.1739 29.7325H28.1079V29.2193C28.1897 29.1894 28.323 29.1549 28.5085 29.1156C28.6938 29.0765 28.8883 29.0569 29.092 29.0569C29.4542 29.0569 29.7249 29.1098 29.9046 29.215C30.0844 29.3205 30.1743 29.4672 30.1743 29.6546C30.1743 29.795 30.125 29.9157 30.0263 30.0173C29.9275 30.1188 29.8003 30.1866 29.6444 30.2208V30.2457C29.7022 30.2547 29.7695 30.2728 29.8462 30.3005C29.923 30.3278 29.9885 30.3621 30.0425 30.4028Z" fill="white"/>
<path d="M30.2501 31.6179L31.2284 29.0569H32.022L33.0001 31.6179H32.2514L32.0704 31.0949H31.16L30.9792 31.6179H30.2501ZM31.9111 30.6309L31.6153 29.7863L31.3199 30.6309H31.9111Z" fill="white"/>
<path d="M35.4062 29.8653C35.4062 29.9846 35.3867 30.0982 35.3468 30.2059C35.3071 30.3135 35.2504 30.4036 35.1759 30.4757C35.1302 30.5204 35.08 30.5615 35.0257 30.5998C34.9711 30.6373 34.9107 30.6696 34.8447 30.6959C34.7786 30.7224 34.7071 30.7432 34.6295 30.7579C34.5524 30.7729 34.4656 30.7802 34.3695 30.7802H34.0168V31.6179H33.3438V29.0569H34.3838C34.5385 29.0569 34.6722 29.0705 34.7842 29.0975C34.8963 29.1243 34.9979 29.1672 35.0891 29.2256C35.1899 29.2898 35.2681 29.3753 35.3231 29.4827C35.3782 29.5899 35.4062 29.7174 35.4062 29.8653ZM34.7153 29.8807C34.7153 29.8086 34.6973 29.7463 34.6613 29.6941C34.6254 29.642 34.5823 29.6063 34.5319 29.5868C34.4683 29.5604 34.4071 29.5453 34.3492 29.5411C34.291 29.5372 34.2121 29.5351 34.1125 29.5351H34.0172V30.302H34.0639C34.1273 30.302 34.1875 30.3017 34.2439 30.3005C34.3001 30.2991 34.3492 30.2954 34.3913 30.2884C34.4274 30.2826 34.4654 30.2713 34.5056 30.2547C34.5457 30.2382 34.5766 30.2196 34.5983 30.1989C34.644 30.1566 34.6747 30.1123 34.6909 30.0666C34.7072 30.0207 34.7153 29.9587 34.7153 29.8807Z" fill="white"/>
<path d="M47.6008 15.9542L48.8517 12.8552H50.38L47.9788 18.2649L47.7851 18.6207C47.4296 19.2123 46.8853 19.5082 46.1526 19.5082L45.6573 19.4901L45.643 18.4045C45.7186 18.4167 45.8413 18.4226 46.0112 18.4226C46.2095 18.4226 46.3683 18.3895 46.4876 18.3234C46.6105 18.2574 46.7124 18.1358 46.794 17.9586L46.969 17.5307L44.558 12.8552H46.0818L47.6008 15.9542ZM53.7062 15.9542L54.9569 12.8552H56.4852L54.0841 18.2649L53.8903 18.6207C53.5348 19.2123 52.9905 19.5082 52.2578 19.5082L51.7623 19.4901L51.7483 18.4045C51.824 18.4167 51.9465 18.4226 52.1167 18.4226C52.3147 18.4226 52.4737 18.3895 52.5928 18.3234C52.7157 18.2574 52.8178 18.1358 52.8999 17.9586L53.0744 17.5307L50.6635 12.8552H52.187L53.7062 15.9542ZM62.5668 12.8552V19.4136H61.147V13.9498H59.3163L59.2031 16.265C59.156 17.0458 59.0518 17.6613 58.8918 18.1117C58.7313 18.5592 58.4967 18.8881 58.1885 19.0982C57.8805 19.3055 57.4591 19.4105 56.9244 19.4136H56.556V18.3281L56.7917 18.3055C57.1476 18.2604 57.4005 18.0653 57.5519 17.7199C57.7059 17.3716 57.8032 16.753 57.8439 15.8641L57.962 12.8552H62.5668ZM68.7853 15.9542L70.0355 12.8552H71.5645L69.1627 18.2649L68.9695 18.6207C68.6141 19.2123 68.0698 19.5082 67.3371 19.5082L66.8415 19.4901L66.8276 18.4045C66.9027 18.4167 67.0256 18.4226 67.1953 18.4226C67.3939 18.4226 67.5522 18.3895 67.672 18.3234C67.7949 18.2574 67.8969 18.1358 67.9785 17.9586L68.1535 17.5307L65.7421 12.8552H67.2661L68.7853 15.9542ZM74.8906 15.9542L76.1408 12.8552H77.6697L75.2679 18.2649L75.0747 18.6207C74.7193 19.2123 74.1749 19.5082 73.4422 19.5082L72.9467 19.4901L72.9328 18.4045C73.0084 18.4167 73.1308 18.4226 73.3004 18.4226C73.4991 18.4226 73.6574 18.3895 73.7772 18.3234C73.9001 18.2574 74.0022 18.1358 74.0837 17.9586L74.2586 17.5307L71.8474 12.8552H73.3714L74.8906 15.9542ZM79.8351 17.1028V19.4136H78.4201V12.8552H81.1C81.6157 12.8552 82.0683 12.9453 82.4586 13.1255C82.8515 13.3056 83.1539 13.5624 83.3642 13.8957C83.5751 14.226 83.6803 14.6029 83.6803 15.0263C83.6803 15.6689 83.4495 16.1764 82.9868 16.5488C82.5279 16.9181 81.8906 17.1028 81.0762 17.1028H79.8351ZM79.8351 16.0083H81.1C81.4741 16.0083 81.7586 15.9242 81.954 15.756C82.152 15.5879 82.2508 15.3476 82.2508 15.0353C82.2508 14.714 82.152 14.4542 81.954 14.256C81.7553 14.0578 81.4822 13.9558 81.1326 13.9498H79.8351V16.0083ZM86.8701 15.1164L88.158 12.8552H89.7857L87.7854 16.1073L89.8377 19.4136H88.1913L86.8701 17.1163L85.5491 19.4136H83.902L85.9549 16.1073L83.9541 12.8552H85.5818L86.8701 15.1164ZM94.4333 18.0622H91.9516L91.4798 19.4136H89.9745L92.532 12.8552H93.8435L96.4147 19.4136H94.9096L94.4333 18.0622ZM92.3339 16.9676H94.0512L93.1874 14.5128L92.3339 16.9676ZM101.175 12.8552H102.596V19.4136H101.175V15.0578L98.4246 19.4136H97.009V12.8552H98.4246V17.2199L101.175 12.8552ZM101.449 11.13C101.449 11.5294 101.298 11.8522 100.996 12.0985C100.697 12.3447 100.304 12.4678 99.8166 12.4678C99.3292 12.4678 98.934 12.3462 98.6324 12.103C98.3333 11.8597 98.1842 11.5354 98.1842 11.13H99.1515C99.1515 11.3192 99.2094 11.4664 99.3259 11.5714C99.4457 11.6736 99.6088 11.7246 99.8166 11.7246C100.021 11.7246 100.182 11.6736 100.298 11.5714C100.414 11.4664 100.472 11.3192 100.472 11.13H101.449ZM104.086 21.0577L103.374 20.7017L103.544 20.4089C103.755 20.0427 103.863 19.6779 103.87 19.3144V18.3055H105.02L105.016 19.2063C105.013 19.5397 104.925 19.8759 104.751 20.2153C104.579 20.5547 104.357 20.8354 104.086 21.0577ZM47.4833 25.8788L48.7711 23.6177H50.3988L48.3987 26.8698L50.4509 30.176H48.8045L47.4833 27.8788L46.1622 30.176H44.5155L46.568 26.8698L44.5674 23.6177H46.1951L47.4833 25.8788ZM53.5365 26.5725L54.966 23.6177H56.5138L54.2586 27.7977V30.176H52.8193V27.7977L50.5641 23.6177H52.1167L53.5365 26.5725ZM62.7322 30.176H61.3166V27.3652H58.5568V30.176H57.1413V23.6177H58.5568V26.2753H61.3166V23.6177H62.7322V30.176ZM70.4463 31.7885H69.1392V30.176H64.997V31.7841H63.657L63.5814 29.0905H64.1005C64.3801 28.8682 64.596 28.5424 64.7469 28.113C64.9009 27.6806 65.0045 27.146 65.0582 26.5093L65.2563 23.6177H69.7576V29.0905H70.5595L70.4463 31.7885ZM65.7233 29.0905H68.3418V24.7122H66.6011L66.4828 26.4373C66.3885 27.5935 66.1357 28.4779 65.7233 29.0905ZM76.0797 26.5725L77.5091 23.6177H79.0567L76.8017 27.7977V30.176H75.3624V27.7977L73.1072 23.6177H74.6598L76.0797 26.5725ZM83.8034 23.6177H85.2232V30.176H83.8034V25.8203L81.0527 30.176H79.6371V23.6177H81.0527V27.9822L83.8034 23.6177ZM84.0772 21.8924C84.0772 22.2918 83.9257 22.6146 83.6241 22.861C83.325 23.1072 82.9321 23.2303 82.4447 23.2303C81.9567 23.2303 81.5621 23.1087 81.2605 22.8654C80.9614 22.6221 80.8122 22.2977 80.8122 21.8924H81.779C81.779 22.0816 81.8375 22.2288 81.954 22.3339C82.0731 22.436 82.2369 22.4871 82.4447 22.4871C82.6485 22.4871 82.8091 22.436 82.9256 22.3339C83.0421 22.2288 83.1001 22.0816 83.1001 21.8924H84.0772ZM92.0365 23.6177V30.176H90.6161V24.7122H88.7855L88.6722 27.0273C88.625 27.8081 88.5213 28.4238 88.361 28.8741C88.2005 29.3216 87.9664 29.6505 87.6582 29.8606C87.3495 30.0679 86.9281 30.1729 86.3935 30.176H86.0257V29.0905L86.2614 29.0679C86.6168 29.0229 86.8701 28.8277 87.021 28.4823C87.175 28.134 87.2728 27.5155 87.3136 26.6265L87.4317 23.6177H92.0365ZM99.7456 31.7885H98.439V30.176H94.2965V31.7841H92.9566L92.8809 29.0905H93.4C93.6797 28.8682 93.8955 28.5424 94.0463 28.113C94.2004 27.6806 94.3041 27.146 94.3577 26.5093L94.5557 23.6177H99.0569V29.0905H99.8591L99.7456 31.7885ZM95.0229 29.0905H97.6414V24.7122H95.9004L95.7824 26.4373C95.6885 27.5935 95.435 28.4779 95.0229 29.0905ZM100.605 30.176V23.6177H103.011C103.844 23.6177 104.477 23.7708 104.907 24.0771C105.338 24.3803 105.553 24.8263 105.553 25.415C105.553 25.7361 105.467 26.0199 105.294 26.2662C105.121 26.5093 104.881 26.6881 104.572 26.8022C104.925 26.8863 105.201 27.0559 105.403 27.3113C105.607 27.5665 105.71 27.8788 105.71 28.2481C105.71 28.8788 105.499 29.3561 105.077 29.6805C104.656 30.0047 104.055 30.17 103.275 30.176H100.605ZM102.02 27.3202V29.0905H103.232C103.566 29.0905 103.826 29.0153 104.011 28.8653C104.2 28.7121 104.294 28.5018 104.294 28.2346C104.294 27.634 103.968 27.3292 103.317 27.3202H102.02ZM102.02 26.3652H103.067C103.781 26.3533 104.138 26.0815 104.138 25.55C104.138 25.2528 104.047 25.0395 103.865 24.9104C103.685 24.7783 103.401 24.7122 103.011 24.7122H102.02V26.3652ZM107.875 27.9959C107.916 28.4193 108.047 28.7241 108.267 28.9102C108.487 29.0934 108.806 29.1851 109.224 29.1851C109.687 29.1851 110.03 29.0394 110.253 28.7481C110.476 28.4538 110.606 28.02 110.64 27.4463H108.469V26.3518H110.635C110.597 25.7662 110.459 25.3323 110.22 25.0499C109.984 24.7646 109.646 24.6221 109.205 24.6221C108.778 24.6221 108.457 24.7197 108.243 24.9149C108.029 25.1071 107.905 25.4179 107.871 25.8472H106.455C106.524 25.1295 106.798 24.5635 107.276 24.1492C107.757 23.7348 108.4 23.5275 109.205 23.5275C109.778 23.5275 110.28 23.6566 110.711 23.9149C111.145 24.1701 111.478 24.5381 111.711 25.0185C111.944 25.4959 112.06 26.053 112.06 26.6896V27.1175C112.06 28.0843 111.807 28.8516 111.301 29.4193C110.797 29.9837 110.105 30.2661 109.224 30.2661C108.413 30.2661 107.762 30.0618 107.271 29.6535C106.783 29.2421 106.513 28.6896 106.46 27.9959H107.875ZM114.476 27.8653V30.176H113.06V23.6177H115.74C116.256 23.6177 116.709 23.7076 117.099 23.8879C117.492 24.0681 117.794 24.3248 118.005 24.6581C118.215 24.9885 118.321 25.3653 118.321 25.7887C118.321 26.4313 118.09 26.9389 117.628 27.3113C117.168 27.6806 116.531 27.8653 115.717 27.8653H114.476ZM114.476 26.7707H115.74C116.114 26.7707 116.399 26.6866 116.594 26.5184C116.792 26.3502 116.892 26.11 116.892 25.7977C116.892 25.4764 116.792 25.2166 116.594 25.0185C116.396 24.8203 116.122 24.7182 115.773 24.7122H114.476V26.7707ZM123.417 23.6177H124.837V30.176H123.417V25.8203L120.666 30.176H119.25V23.6177H120.666V27.9822L123.417 23.6177ZM130.182 23.6177H131.603V30.176H130.182V25.8203L127.432 30.176H126.017V23.6177H127.432V27.9822L130.182 23.6177ZM130.456 21.8924C130.456 22.2918 130.305 22.6146 130.003 22.861C129.704 23.1072 129.311 23.2303 128.823 23.2303C128.336 23.2303 127.942 23.1087 127.639 22.8654C127.34 22.6221 127.191 22.2977 127.191 21.8924H128.158C128.158 22.0816 128.216 22.2288 128.333 22.3339C128.453 22.436 128.616 22.4871 128.823 22.4871C129.028 22.4871 129.188 22.436 129.305 22.3339C129.421 22.2288 129.479 22.0816 129.479 21.8924H130.456ZM138.42 30.176H137.005V27.3652H134.245V30.176H132.829V23.6177H134.245V26.2753H137.005V23.6177H138.42V30.176ZM145.243 30.176V27.8112H144.092L142.851 30.176H141.322L142.789 27.3787C142.081 27.0063 141.727 26.4284 141.727 25.6446C141.727 25.002 141.948 24.505 142.388 24.1536C142.829 23.8022 143.443 23.6236 144.233 23.6177H146.663V30.176H145.243ZM143.143 25.7436C143.143 26.11 143.236 26.3758 143.421 26.5409C143.61 26.706 143.891 26.7887 144.266 26.7887H145.243V24.7122H144.266C143.517 24.7122 143.143 25.0561 143.143 25.7436ZM151.711 28.8246H149.229L148.758 30.176H147.252L149.81 23.6177H151.121L153.693 30.176H152.188L151.711 28.8246ZM149.612 27.7301H151.329L150.466 25.2753L149.612 27.7301ZM156.184 23.6177L157.949 28.3742L159.704 23.6177H161.562V30.176H160.143V28.3833L160.284 25.2888L158.429 30.176H157.458L155.608 25.2932L155.75 28.3833V30.176H154.335V23.6177H156.184Z" fill="#9DB1F5"/>
</g>
<defs>
<clipPath id="clip0">
<rect width="165" height="35" fill="white" transform="translate(0 0.203125)"/>
</clipPath>
</defs>
</svg>
