<svg width="153" height="36" viewBox="0 0 153 36" fill="none" xmlns="http://www.w3.org/2000/svg">
<g clip-path="url(#clip0)">
<path d="M18.0846 35.2031C12.1885 35.2031 6.29464 35.2031 0.399319 35.2016C-0.0412923 35.2016 0.00303357 35.2467 0.00303357 34.8273C0.00303357 23.4223 0.0018758 12.0172 0.00303357 0.613899C0.00303357 0.151582 -0.0632897 0.205008 0.424293 0.205008C12.2043 0.205008 23.9845 0.205008 35.7644 0.205008C36.2314 0.205008 36.1754 0.155895 36.1754 0.595016C36.177 11.9995 36.177 23.403 36.1754 34.8063C36.1754 35.2443 36.2366 35.2012 35.7701 35.2012C29.8748 35.2031 23.9794 35.2031 18.0846 35.2031Z" fill="#9DB1F5"/>
<path d="M18.263 1.56897C18.263 1.56897 17.9608 1.70247 17.9161 1.84013C17.8517 2.04007 18.1075 2.23585 18.0976 2.446C18.0852 2.7202 17.7962 2.93754 17.7855 3.21269C17.7769 3.41231 18.0125 3.59165 17.9655 3.78727C17.9341 3.91518 17.8222 4.07727 17.6853 4.07456C17.5533 4.07167 17.4413 3.91327 17.4222 3.78727C17.3873 3.56161 17.7175 3.39235 17.7191 3.1643C17.7205 3.00732 17.5132 2.89187 17.5222 2.73345C17.5258 2.63524 17.6692 2.4781 17.6692 2.4781C17.6692 2.4781 17.2991 2.65568 17.2417 2.82943C17.199 2.95447 17.3552 3.08143 17.3407 3.21269C17.3009 3.53431 16.8914 3.7507 16.8779 4.07441C16.8656 4.3858 17.0279 4.71701 17.2578 4.9358C17.4725 5.14387 17.7949 5.26765 18.0977 5.27115C18.4167 5.27415 18.7601 5.15007 18.9885 4.9358C19.2201 4.71781 19.356 4.38628 19.3681 4.07441C19.377 3.79908 19.0889 3.56802 19.0878 3.28998C19.0856 3.141 19.2593 3.01068 19.2357 2.8609C19.2032 2.66462 18.8736 2.38148 18.8736 2.38148C18.8736 2.38148 18.9479 2.64946 18.922 2.77976C18.8878 2.96071 18.6742 3.07887 18.6584 3.25949C18.6434 3.44504 18.8721 3.60474 18.84 3.78727C18.8178 3.90608 18.7349 4.07137 18.6098 4.07441C18.4798 4.07743 18.3883 3.90991 18.3614 3.78727C18.3059 3.52649 18.6063 3.28631 18.5924 3.0193C18.5711 2.60794 18.1676 2.28471 18.1798 1.87127C18.183 1.75932 18.263 1.56897 18.263 1.56897ZM18.0888 5.67773C17.0188 5.67773 16.1488 6.51689 16.1488 7.55361C16.1488 8.59002 17.0186 9.43369 18.0888 9.43369C19.1606 9.43369 20.0259 8.59002 20.0259 7.55361C20.0259 6.51689 19.1605 5.67773 18.0888 5.67773ZM15.3694 7.82127C15.3623 7.90482 15.3572 7.99074 15.3572 8.07581C15.3572 9.53734 16.5802 10.7239 18.0885 10.7239C19.5978 10.7239 20.8215 9.53734 20.8215 8.07581C20.8215 7.99424 20.8178 7.91054 20.8078 7.82847C20.4739 8.97635 19.3826 9.81552 18.0883 9.81552C16.7942 9.81552 15.7027 8.97377 15.3694 7.82127ZM12.9095 11.144V22.2273H15.3077V11.144H12.9095ZM15.7162 11.144L18.0888 12.649L20.4634 11.144H15.7162ZM20.868 11.144V22.2273H23.2688V11.144H20.868ZM15.7162 13.0332V13.9864H16.7533H19.4201H20.4634V13.0332H19.4201H16.7533H15.7162ZM17.7058 14.3304C17.6032 14.3336 17.5012 14.3463 17.4022 14.3663C16.3685 14.5718 15.6372 15.5618 15.6372 16.6403C15.6372 17.712 16.3728 18.6128 17.3807 18.9075C17 18.6845 16.7426 18.2954 16.7337 17.8458V17.8337C16.7279 17.2975 17.0739 16.8328 17.5666 16.6403C17.7172 16.5814 17.8894 16.5487 18.0809 16.5487H18.0936C18.729 16.5487 19.2382 16.0508 19.2311 15.4468C19.1565 14.6662 18.4251 14.3005 17.7058 14.3304ZM18.7944 14.3703C19.174 14.5915 19.4314 14.9818 19.4411 15.4315V15.4433C19.4472 15.9795 19.1009 16.4436 18.6093 16.6357C18.4583 16.6946 18.2858 16.728 18.0936 16.728H18.0809C17.4456 16.728 16.9365 17.2254 16.9436 17.8295C17.0186 18.6083 17.7498 18.9746 18.4694 18.9466C18.5708 18.9425 18.6737 18.9319 18.7738 18.9105C19.8066 18.7027 20.5371 17.714 20.5371 16.6355C20.5373 15.565 19.8013 14.6629 18.7944 14.3703ZM18.0888 14.9949C18.3373 14.9949 18.5338 15.1907 18.5338 15.4313C18.5338 15.6702 18.3374 15.8607 18.0888 15.8607C17.842 15.8607 17.6399 15.6702 17.6399 15.4313C17.6399 15.1907 17.842 14.9949 18.0888 14.9949ZM18.0855 17.4146C18.3323 17.4146 18.5338 17.6049 18.5338 17.8457C18.5338 18.0845 18.3322 18.2798 18.0855 18.2798C17.838 18.2798 17.6399 18.0845 17.6399 17.8457C17.6399 17.6051 17.838 17.4146 18.0855 17.4146ZM15.7162 19.3864V20.3384H16.7533H19.4201H20.4634V19.3864H19.4201H16.7533H15.7162ZM15.7162 20.7217L18.0888 22.2275L20.4634 20.7217H15.7162Z" fill="white"/>
<path d="M5.57818 27.5203H4.9155V25.8227L4.4327 26.9185H3.97837L3.49558 25.8227V27.5203H2.8688V24.9594H3.63653L4.22434 26.2236L4.81029 24.9594H5.57818V27.5203Z" fill="#F6F7F8"/>
<path d="M8.447 26.2405C8.447 26.6378 8.33323 26.9508 8.10604 27.1787C7.8785 27.4064 7.56693 27.5203 7.17119 27.5203C6.77406 27.5203 6.46251 27.4051 6.23631 27.1744C6.01011 26.9438 5.897 26.6325 5.897 26.2407C5.897 25.8456 6.01011 25.5332 6.23631 25.3037C6.46251 25.0743 6.77406 24.9594 7.17119 24.9594C7.56693 24.9594 7.8785 25.0739 8.10604 25.3024C8.3334 25.5303 8.447 25.8434 8.447 26.2405ZM7.76489 26.239C7.76489 26.0925 7.74877 25.9677 7.71635 25.8651C7.6839 25.7621 7.64055 25.6774 7.58644 25.6115C7.52996 25.5443 7.46594 25.4961 7.39467 25.4669C7.32343 25.4377 7.24946 25.4232 7.17285 25.4232C7.09168 25.4232 7.01794 25.4367 6.95203 25.4637C6.88618 25.4907 6.82248 25.539 6.76115 25.6081C6.70699 25.6723 6.66317 25.7568 6.62954 25.8623C6.59591 25.9682 6.57914 26.0942 6.57914 26.2405C6.57914 26.3914 6.59511 26.5168 6.62684 26.6163C6.65862 26.716 6.70217 26.7993 6.75761 26.8666C6.81405 26.9351 6.87842 26.9834 6.9502 27.0129C7.02197 27.0421 7.09624 27.0563 7.17285 27.0563C7.25067 27.0563 7.32612 27.0407 7.39907 27.0093C7.47217 26.9779 7.53516 26.9292 7.5881 26.863C7.64476 26.7916 7.68828 26.7082 7.71887 26.6131C7.74961 26.5178 7.76489 26.3933 7.76489 26.239Z" fill="#F6F7F8"/>
<path d="M10.9968 27.5203H10.333V26.3855H9.42942V27.5203H8.76556V24.9594H9.42942V25.8968H10.333V24.9594H10.9968V27.5203Z" fill="#F6F7F8"/>
<path d="M13.2281 25.4478H12.2281V27.5203H11.6344V24.9594H13.2281V25.4478Z" fill="#F6F7F8"/>
<path d="M15.9374 26.2405C15.9374 26.6378 15.8236 26.9508 15.5965 27.1787C15.3689 27.4064 15.0574 27.5203 14.6616 27.5203C14.2645 27.5203 13.9529 27.4051 13.7267 27.1744C13.5005 26.9438 13.3874 26.6325 13.3874 26.2407C13.3874 25.8456 13.5005 25.5332 13.7267 25.3037C13.9529 25.0743 14.2645 24.9594 14.6616 24.9594C15.0574 24.9594 15.3689 25.0739 15.5965 25.3024C15.8236 25.5303 15.9374 25.8434 15.9374 26.2405ZM15.2551 26.239C15.2551 26.0925 15.239 25.9677 15.2065 25.8651C15.1741 25.7621 15.1308 25.6774 15.0767 25.6115C15.0202 25.5443 14.9562 25.4961 14.8849 25.4669C14.8137 25.4377 14.7397 25.4232 14.6631 25.4232C14.5819 25.4232 14.5082 25.4367 14.4423 25.4637C14.3764 25.4907 14.3127 25.539 14.2513 25.6081C14.1972 25.6723 14.1534 25.7568 14.1198 25.8623C14.0862 25.9682 14.0694 26.0942 14.0694 26.2405C14.0694 26.3914 14.0854 26.5168 14.1171 26.6163C14.1489 26.716 14.1924 26.7993 14.2479 26.8666C14.3043 26.9351 14.3687 26.9834 14.4404 27.0129C14.5122 27.0421 14.5865 27.0563 14.6631 27.0563C14.7409 27.0563 14.8164 27.0407 14.8893 27.0093C14.9624 26.9779 15.0254 26.9292 15.0783 26.863C15.135 26.7916 15.1785 26.7082 15.2091 26.6131C15.2399 26.5178 15.2551 26.3933 15.2551 26.239Z" fill="#F6F7F8"/>
<path d="M18.4873 27.5029H17.8635V25.4444H17.2362C17.2317 25.5436 17.2277 25.6361 17.2237 25.722C17.2198 25.8079 17.2156 25.8898 17.2112 25.9673C17.1989 26.1895 17.1788 26.3812 17.1512 26.5424C17.1235 26.7035 17.0916 26.8352 17.0561 26.9378C17.017 27.0472 16.9777 27.1333 16.9375 27.1958C16.8975 27.2586 16.8596 27.3079 16.824 27.3445C16.7706 27.3991 16.704 27.442 16.6239 27.4734C16.5438 27.5048 16.465 27.5203 16.387 27.5203C16.3347 27.5203 16.2775 27.5181 16.2152 27.5137C16.1529 27.5091 16.1134 27.5055 16.0968 27.5032V26.9414H16.1201C16.1312 26.9422 16.1421 26.9436 16.1526 26.9446C16.1631 26.9456 16.1768 26.9463 16.1935 26.9463C16.2213 26.9463 16.2568 26.9419 16.3003 26.9327C16.3438 26.9234 16.3765 26.9082 16.3988 26.8867C16.4788 26.8092 16.5336 26.6894 16.5631 26.5268C16.5926 26.3646 16.6152 26.1302 16.6307 25.8241C16.6374 25.6838 16.6415 25.5581 16.6433 25.4464C16.6449 25.3346 16.6492 25.1726 16.6557 24.9594H18.4874V27.5029H18.4873Z" fill="#F6F7F8"/>
<path d="M22.3126 24.9594L21.4528 26.9955C21.4021 27.114 21.3453 27.2072 21.2825 27.2758C21.2196 27.3441 21.1538 27.3962 21.0846 27.4314C21.0153 27.4667 20.9463 27.4901 20.8768 27.5024C20.8078 27.5143 20.7353 27.5203 20.6591 27.5203C20.5794 27.5203 20.4868 27.5184 20.3814 27.5154C20.2756 27.512 20.2052 27.5084 20.1693 27.505V26.9649H20.2092C20.2194 26.9672 20.2356 26.9699 20.2578 26.9735C20.2796 26.9769 20.3072 26.9801 20.3406 26.9835C20.3682 26.9859 20.3985 26.988 20.4305 26.9905C20.463 26.9928 20.4922 26.9938 20.519 26.9938C20.5961 26.9938 20.669 26.9846 20.7376 26.9658C20.8063 26.9468 20.8519 26.9147 20.8752 26.869L19.922 24.9595H20.6208L21.1726 26.1528L21.6397 24.9595H22.3126V24.9594Z" fill="#F6F7F8"/>
<path d="M24.7032 27.5029H24.0794V25.4444H23.4519C23.4476 25.5436 23.4433 25.6361 23.4395 25.722C23.4355 25.8079 23.4315 25.8898 23.4271 25.9673C23.4148 26.1895 23.3947 26.3812 23.3671 26.5424C23.3391 26.7035 23.3074 26.8352 23.2718 26.9378C23.2328 27.0472 23.1934 27.1333 23.1534 27.1958C23.1133 27.2586 23.0755 27.3079 23.0399 27.3445C22.9864 27.3991 22.9198 27.442 22.8396 27.4734C22.7596 27.5048 22.6806 27.5203 22.6029 27.5203C22.5505 27.5203 22.4933 27.5181 22.4308 27.5137C22.3685 27.5091 22.3291 27.5055 22.3126 27.5032V26.9414H22.3357C22.3468 26.9422 22.3578 26.9436 22.3682 26.9446C22.3787 26.9456 22.3924 26.9463 22.4091 26.9463C22.437 26.9463 22.4726 26.9419 22.5161 26.9327C22.5596 26.9234 22.5921 26.9082 22.6144 26.8867C22.6946 26.8092 22.7492 26.6894 22.7787 26.5268C22.8082 26.3646 22.8307 26.1302 22.8463 25.8241C22.8528 25.6838 22.8571 25.5581 22.8587 25.4464C22.8605 25.3346 22.8646 25.1726 22.8713 24.9594H24.703V27.5029H24.7032Z" fill="#F6F7F8"/>
<path d="M26.405 27.5203C26.0301 27.5203 25.7324 27.4087 25.512 27.1852C25.2914 26.9617 25.1811 26.6474 25.1811 26.2426C25.1811 25.8518 25.2917 25.5402 25.5128 25.308C25.7338 25.0756 26.0317 24.9594 26.4069 24.9594C26.5063 24.9594 26.5959 24.9648 26.6754 24.9759C26.7549 24.9868 26.8311 25.0024 26.9036 25.0224C26.9609 25.0389 27.0232 25.0613 27.0901 25.09C27.1572 25.119 27.2117 25.1439 27.253 25.1647V25.7524H27.1894C27.1593 25.7259 27.121 25.6942 27.0751 25.6571C27.0292 25.6201 26.9773 25.5841 26.9191 25.5487C26.8608 25.5134 26.7965 25.4833 26.7266 25.4584C26.6568 25.4338 26.5838 25.4212 26.5078 25.4212C26.4171 25.4212 26.3339 25.4353 26.2583 25.4637C26.183 25.4919 26.1109 25.5405 26.0425 25.6102C25.9797 25.6732 25.9287 25.758 25.8892 25.8651C25.8492 25.9721 25.8295 26.0983 25.8295 26.2441C25.8295 26.3976 25.8502 26.5263 25.8918 26.6306C25.9331 26.7351 25.9874 26.819 26.0545 26.8832C26.1194 26.9451 26.1919 26.9897 26.2719 27.0173C26.3519 27.0448 26.4316 27.0587 26.5111 27.0587C26.594 27.0587 26.6729 27.045 26.7479 27.018C26.8227 26.9909 26.886 26.9612 26.9376 26.9279C26.9935 26.8937 27.0428 26.8589 27.0853 26.8237C27.1279 26.7882 27.1649 26.757 27.1959 26.7293H27.253V27.3086C27.2071 27.3296 27.154 27.3539 27.0936 27.3805C27.0332 27.4076 26.9711 27.4305 26.9072 27.4495C26.8289 27.4725 26.7557 27.4904 26.6874 27.5024C26.6188 27.5145 26.5247 27.5203 26.405 27.5203Z" fill="#F6F7F8"/>
<path d="M29.7614 26.7017C29.7614 26.827 29.7374 26.9417 29.6896 27.0467C29.6418 27.1515 29.5764 27.2374 29.4932 27.3038C29.3941 27.3829 29.2873 27.4389 29.1726 27.4715C29.0578 27.5039 28.918 27.5203 28.7532 27.5203H27.7312V24.9594H28.3762V25.9209H28.7634C28.9145 25.9209 29.0511 25.9313 29.1732 25.9528C29.2956 25.9738 29.4067 26.0235 29.5071 26.1014C29.5959 26.1703 29.6604 26.2566 29.7007 26.3604C29.7411 26.4642 29.7614 26.5781 29.7614 26.7017ZM29.0938 26.721C29.0938 26.6783 29.0892 26.6382 29.08 26.6004C29.0707 26.5625 29.0505 26.5277 29.0194 26.4953C28.9883 26.4635 28.9456 26.4384 28.8917 26.4206C28.8374 26.4027 28.7625 26.3942 28.6669 26.3942H28.3762V27.0457H28.6669C28.7983 27.0457 28.9024 27.0179 28.9788 26.9622C29.0553 26.9067 29.0938 26.8261 29.0938 26.721ZM30.5999 27.5203H29.9532V24.9594H30.5999V27.5203Z" fill="#F6F7F8"/>
<path d="M33.3094 27.5203H32.6456V26.3855H31.7419V27.5203H31.0781V24.9594H31.7419V25.8968H32.6456V24.9594H33.3094V27.5203Z" fill="#F6F7F8"/>
<path d="M5.06721 30.4025C5.12558 30.4502 5.17215 30.5089 5.20705 30.5789C5.24197 30.6491 5.25944 30.7342 5.25944 30.8348C5.25944 31.0807 5.15951 31.2729 4.95965 31.4107C4.75962 31.5488 4.47267 31.6176 4.09855 31.6176C3.92845 31.6176 3.76601 31.6034 3.61155 31.5746C3.45708 31.5459 3.31575 31.507 3.18756 31.4571V30.9058H3.24691C3.33438 30.9634 3.44943 31.0194 3.59226 31.074C3.73508 31.1285 3.87458 31.1558 4.01108 31.1558C4.18716 31.1558 4.327 31.1261 4.43075 31.0665C4.53449 31.0071 4.58638 30.9154 4.58638 30.7918C4.58638 30.6847 4.54846 30.6053 4.47267 30.5541C4.39682 30.5027 4.26049 30.4773 4.06347 30.4773H3.68935V30.0368H4.046C4.20912 30.0368 4.32865 30.0132 4.40448 29.9665C4.48028 29.9193 4.51821 29.849 4.51821 29.7553C4.51821 29.6725 4.47647 29.6122 4.39319 29.5748C4.30988 29.5373 4.19881 29.5186 4.06014 29.5186C3.982 29.5186 3.90768 29.5263 3.83717 29.5419C3.76668 29.5574 3.69767 29.5767 3.63 29.5996C3.56716 29.6218 3.50912 29.646 3.45609 29.6725C3.40305 29.6989 3.36265 29.7189 3.33471 29.7322H3.27335V29.219C3.34917 29.1891 3.47287 29.1546 3.64479 29.1154C3.81673 29.0763 3.99712 29.0566 4.186 29.0566C4.52172 29.0566 4.77293 29.1096 4.93952 29.2147C5.10615 29.3202 5.18958 29.4669 5.18958 29.6544C5.18958 29.7947 5.14389 29.9154 5.05226 30.017C4.96062 30.1186 4.84278 30.1864 4.69828 30.2205V30.2454C4.75181 30.2545 4.81435 30.2726 4.88532 30.3002C4.95651 30.3276 5.01719 30.3619 5.06721 30.4025Z" fill="#F6F7F8"/>
<path d="M5.41882 31.6176L6.2693 29.0566H6.95915L7.80945 31.6176H7.15866L7.00143 31.0947H6.21028L6.05306 31.6176H5.41882ZM6.86254 30.6306L6.60547 29.786L6.34854 30.6306H6.86254Z" fill="#F6F7F8"/>
<path d="M9.19286 31.6176C8.81779 31.6176 8.52017 31.506 8.29966 31.2825C8.07916 31.059 7.96881 30.7447 7.96881 30.3399C7.96881 29.9491 8.07934 29.6375 8.30047 29.4053C8.5216 29.1727 8.81954 29.0566 9.1946 29.0566C9.29422 29.0566 9.38379 29.0621 9.46314 29.0732C9.54266 29.0841 9.61882 29.0997 9.69148 29.1196C9.74863 29.1362 9.81074 29.1586 9.87782 29.1873C9.94486 29.2163 9.99933 29.2412 10.0407 29.262V29.8495H9.97697C9.94677 29.8231 9.90861 29.7915 9.86278 29.7544C9.81683 29.7174 9.76491 29.6813 9.70664 29.646C9.64855 29.6107 9.58437 29.5804 9.51443 29.5557C9.44448 29.5311 9.37136 29.5185 9.29534 29.5185C9.20465 29.5185 9.12164 29.5326 9.04596 29.561C8.97028 29.589 8.89841 29.6378 8.83006 29.7075C8.76733 29.7705 8.71622 29.8553 8.67647 29.9624C8.63674 30.0694 8.61677 30.1956 8.61677 30.3414C8.61677 30.4949 8.6375 30.6236 8.67886 30.7279C8.72022 30.8324 8.77452 30.9162 8.84172 30.9804C8.90656 31.0424 8.97904 31.087 9.05921 31.1146C9.13918 31.1421 9.21889 31.156 9.29853 31.156C9.38142 31.156 9.46029 31.1423 9.53534 31.1153C9.61022 31.0882 9.67358 31.0585 9.725 31.0252C9.78105 30.991 9.83025 30.9562 9.87271 30.921C9.91534 30.8857 9.95222 30.8543 9.98349 30.8266H10.0405V31.4059C9.99452 31.4269 9.94137 31.4511 9.88101 31.4778C9.82065 31.5049 9.75839 31.5278 9.69467 31.5468C9.61626 31.5698 9.54301 31.5877 9.47481 31.5997C9.40645 31.6118 9.31258 31.6176 9.19286 31.6176Z" fill="#F6F7F8"/>
<path d="M12.272 29.5451H11.1719V31.6176H10.5188V29.0566H12.272V29.5451Z" fill="#F6F7F8"/>
<path d="M14.8218 31.6176H14.1377V29.9304L13.0744 31.6176H12.4313V29.0566H13.1154V30.5823L14.0988 29.0566H14.8219V31.6176H14.8218Z" fill="#F6F7F8"/>
<path d="M17.5312 31.6178H16.8927V29.9258L15.9003 31.6178H15.3001V29.0498H15.9385V30.5795L16.8564 29.0498H17.5313V31.6178H17.5312ZM17.335 28.2031C17.3339 28.4101 17.259 28.5755 17.1103 28.6996C16.9617 28.8239 16.7311 28.8861 16.4191 28.8861C16.1124 28.8861 15.8835 28.8229 15.7319 28.6971C15.5802 28.5714 15.504 28.4066 15.5028 28.2031H16.0719C16.0742 28.3284 16.1008 28.4193 16.1518 28.4763C16.2028 28.5335 16.2917 28.5618 16.4191 28.5618C16.5462 28.5618 16.6353 28.533 16.6862 28.4754C16.7372 28.4179 16.7636 28.3271 16.766 28.2031H17.335Z" fill="#F6F7F8"/>
<path d="M20.2405 31.6176H19.5767V30.4828H18.6729V31.6176H18.0092V29.0566H18.6729V29.9941H19.5767V29.0566H20.2405V31.6176Z" fill="#F6F7F8"/>
<path d="M23.5875 29.5451H22.4875V31.6176H21.8344V29.0566H23.5875V29.5451Z" fill="#F6F7F8"/>
<path d="M23.5875 31.6176L24.4379 29.0566H25.1277L25.9781 31.6176H25.3271L25.1698 31.0947H24.3785L24.2213 31.6176H23.5875ZM25.0313 30.6306L24.774 29.786L24.5171 30.6306H25.0313Z" fill="#F6F7F8"/>
<path d="M27.8576 30.4025C27.916 30.4502 27.9625 30.5089 27.9976 30.5789C28.0326 30.6491 28.05 30.7342 28.05 30.8348C28.05 31.0807 27.9499 31.2729 27.75 31.4107C27.5502 31.5488 27.2632 31.6176 26.8891 31.6176C26.7191 31.6176 26.5565 31.6034 26.4019 31.5746C26.2476 31.5459 26.1063 31.507 25.9781 31.4571V30.9058H26.0376C26.1247 30.9634 26.2398 31.0194 26.3826 31.074C26.5254 31.1285 26.6649 31.1558 26.8015 31.1558C26.9776 31.1558 27.1172 31.1261 27.2211 31.0665C27.3247 31.0071 27.3766 30.9154 27.3766 30.7918C27.3766 30.6847 27.3385 30.6053 27.263 30.5541C27.1871 30.5027 27.051 30.4773 26.8537 30.4773H26.4797V30.0368H26.8364C26.9996 30.0368 27.1189 30.0132 27.1948 29.9665C27.2705 29.9193 27.3086 29.849 27.3086 29.7553C27.3086 29.6725 27.2668 29.6122 27.1835 29.5748C27.1 29.5373 26.989 29.5186 26.8502 29.5186C26.7723 29.5186 26.698 29.5263 26.6276 29.5419C26.5568 29.5574 26.4878 29.5767 26.4204 29.5996C26.3573 29.6218 26.2994 29.646 26.2463 29.6725C26.1934 29.6989 26.1528 29.7189 26.1249 29.7322H26.0637V29.219C26.1396 29.1891 26.2632 29.1546 26.4352 29.1154C26.607 29.0763 26.7874 29.0566 26.9763 29.0566C27.3121 29.0566 27.5631 29.1096 27.7298 29.2147C27.8965 29.3202 27.9799 29.4669 27.9799 29.6544C27.9799 29.7947 27.9341 29.9154 27.8426 30.017C27.751 30.1186 27.6331 30.1864 27.4885 30.2205V30.2454C27.5421 30.2545 27.6045 30.2726 27.6756 30.3002C27.7469 30.3276 27.8076 30.3619 27.8576 30.4025Z" fill="#F6F7F8"/>
<path d="M28.2093 31.6176L29.1165 29.0566H29.8523L30.7593 31.6176H30.0651L29.8973 31.0947H29.0531L28.8854 31.6176H28.2093ZM29.7495 30.6306L29.4752 29.786L29.2013 30.6306H29.7495Z" fill="#F6F7F8"/>
<path d="M32.9906 29.8651C32.9906 29.9844 32.9708 30.0979 32.931 30.2057C32.891 30.3132 32.8339 30.4034 32.7592 30.4754C32.7133 30.5202 32.6629 30.5613 32.6083 30.5995C32.5534 30.6371 32.4927 30.6694 32.4266 30.6957C32.3601 30.7221 32.2882 30.743 32.2103 30.7576C32.1329 30.7727 32.0457 30.78 31.9491 30.78H31.5948V31.6176H30.9187V29.0566H31.9636C32.119 29.0566 32.2532 29.0703 32.3657 29.0973C32.4784 29.1241 32.5804 29.1669 32.672 29.2253C32.7734 29.2895 32.8518 29.3751 32.9071 29.4824C32.9624 29.5897 32.9906 29.7172 32.9906 29.8651ZM32.2965 29.8804C32.2965 29.8084 32.2785 29.7461 32.2423 29.6938C32.2062 29.6417 32.163 29.6061 32.1123 29.5866C32.0484 29.5601 31.987 29.5451 31.9289 29.5408C31.8702 29.5369 31.791 29.5349 31.6911 29.5349H31.5951V30.3018H31.6421C31.7059 30.3018 31.7663 30.3014 31.8229 30.3002C31.8794 30.2989 31.9289 30.2951 31.9711 30.2881C32.0074 30.2823 32.0455 30.2711 32.0858 30.2545C32.1262 30.2379 32.1572 30.2193 32.1789 30.1987C32.2248 30.1563 32.2557 30.1121 32.2721 30.0663C32.2884 30.0204 32.2965 29.9584 32.2965 29.8804Z" fill="#F6F7F8"/>
<path d="M44.7538 16.6332L45.9853 14.3832H47.5419L45.6291 17.6192L47.5916 20.9089H46.0172L44.7538 18.6231L43.4903 20.9089H41.9155L43.8784 17.6192L41.9651 14.3832H43.5217L44.7538 16.6332ZM53.5746 17.794C53.5746 18.4365 53.4606 18.9996 53.2316 19.4838C53.0032 19.9678 52.6751 20.3412 52.2479 20.6041C51.824 20.8672 51.3368 20.9987 50.7865 20.9987C50.2417 20.9987 49.7561 20.8686 49.329 20.6087C48.9019 20.3487 48.5707 19.9782 48.3361 19.4971C48.1015 19.0131 47.9829 18.4573 47.9797 17.8299V17.5072C47.9797 16.8647 48.0953 16.3 48.3273 15.813C48.5619 15.3229 48.891 14.9479 49.3151 14.688C49.7422 14.4251 50.2299 14.2936 50.7772 14.2936C51.3244 14.2936 51.8106 14.4251 52.2347 14.688C52.6618 14.9479 52.9914 15.3229 53.2228 15.813C53.4574 16.3 53.5746 16.8632 53.5746 17.5026V17.794ZM50.7865 19.8961C51.2136 19.8961 51.5472 19.7376 51.788 19.4209C52.0314 19.1042 52.1684 18.6441 52.1987 18.0406H49.3561C49.3891 18.6441 49.5276 19.1042 49.7709 19.4209C50.018 19.7376 50.3562 19.8961 50.7865 19.8961ZM50.7772 15.4051C50.3501 15.4051 50.0148 15.5605 49.7709 15.8712C49.5301 16.179 49.3937 16.6302 49.3602 17.2248H52.1987C52.1654 16.6302 52.0258 16.179 51.7787 15.8712C51.5354 15.5605 51.2012 15.4051 50.7772 15.4051ZM60.6134 22.5136H59.3639V20.9089H55.4021V22.509H54.1208L54.0484 19.8288H54.5449C54.8123 19.6077 55.0187 19.2835 55.1629 18.8562C55.3103 18.4259 55.4099 17.8941 55.4606 17.2606L55.6501 14.3832H59.9548V19.8288H60.7218L60.6134 22.5136ZM56.0968 19.8288H58.6009V15.4724H56.9361L56.8231 17.1889C56.7334 18.3394 56.491 19.2193 56.0968 19.8288ZM66.741 17.794C66.741 18.4365 66.6266 18.9996 66.3982 19.4838C66.1697 19.9678 65.8417 20.3412 65.4146 20.6041C64.9905 20.8672 64.5028 20.9987 63.9524 20.9987C63.4083 20.9987 62.9221 20.8686 62.495 20.6087C62.0678 20.3487 61.7373 19.9782 61.5027 19.4971C61.2679 19.0131 61.1489 18.4573 61.1459 17.8299V17.5072C61.1459 16.8647 61.2619 16.3 61.4934 15.813C61.728 15.3229 62.0576 14.9479 62.4816 14.688C62.9087 14.4251 63.3959 14.2936 63.9437 14.2936C64.491 14.2936 64.9766 14.4251 65.4007 14.688C65.8278 14.9479 66.1574 15.3229 66.389 15.813C66.6236 16.3 66.741 16.8632 66.741 17.5026V17.794ZM63.9524 19.8961C64.3796 19.8961 64.7138 19.7376 64.954 19.4209C65.198 19.1042 65.335 18.6441 65.3647 18.0406H62.5222C62.555 18.6441 62.6937 19.1042 62.9375 19.4209C63.1839 19.7376 63.5223 19.8961 63.9524 19.8961ZM63.9437 15.4051C63.5166 15.4051 63.1809 15.5605 62.9375 15.8712C62.6967 16.179 62.5597 16.6302 62.5268 17.2248H65.3647C65.3318 16.6302 65.1917 16.179 64.9454 15.8712C64.7015 15.5605 64.3678 15.4051 63.9437 15.4051ZM73.0309 14.3832V20.9089H71.6726V15.4724H69.922L69.8136 17.7761C69.7685 18.5529 69.6694 19.1655 69.5159 19.6137C69.3624 20.0588 69.1385 20.3861 68.8433 20.5952C68.5487 20.8015 68.1458 20.906 67.6343 20.9089H67.2821V19.8288L67.5081 19.8065C67.8479 19.7616 68.0903 19.5673 68.2345 19.2237C68.3818 18.8772 68.4753 18.2617 68.5142 17.3771L68.6272 14.3832H73.0309ZM75.9819 14.3832L77.6694 19.1162L79.3476 14.3832H81.1254V20.9089H79.7675V19.1252L79.9025 16.046L78.1293 20.9089H77.2L75.4314 16.0505L75.5666 19.1252V20.9089H74.2127V14.3832H75.9819ZM87.7223 17.794C87.7223 18.4365 87.6077 18.9996 87.3793 19.4838C87.1508 19.9678 86.8228 20.3412 86.3956 20.6041C85.9715 20.8672 85.4845 20.9987 84.9335 20.9987C84.3894 20.9987 83.9032 20.8686 83.476 20.6087C83.0489 20.3487 82.7184 19.9782 82.4838 19.4971C82.2492 19.0131 82.13 18.4573 82.1269 17.8299V17.5072C82.1269 16.8647 82.243 16.3 82.4745 15.813C82.7091 15.3229 83.0387 14.9479 83.4628 14.688C83.8899 14.4251 84.377 14.2936 84.9248 14.2936C85.4721 14.2936 85.9577 14.4251 86.3823 14.688C86.8094 14.9479 87.1385 15.3229 87.3701 15.813C87.6047 16.3 87.7223 16.8632 87.7223 17.5026V17.794ZM84.9335 19.8961C85.3607 19.8961 85.6949 19.7376 85.9352 19.4209C86.1791 19.1042 86.3161 18.6441 86.3459 18.0406H83.5033C83.5366 18.6441 83.6748 19.1042 83.9186 19.4209C84.165 19.7376 84.5034 19.8961 84.9335 19.8961ZM84.9248 15.4051C84.4976 15.4051 84.162 15.5605 83.9186 15.8712C83.6778 16.179 83.5407 16.6302 83.5079 17.2248H86.3459C86.3131 16.6302 86.1728 16.179 85.9264 15.8712C85.6826 15.5605 85.3489 15.4051 84.9248 15.4051ZM90.0232 18.6096V20.9089H88.6699V14.3832H91.2327C91.7261 14.3832 92.1588 14.4729 92.5321 14.6522C92.9079 14.8314 93.1968 15.0869 93.3986 15.4185C93.5999 15.7472 93.7004 16.1222 93.7004 16.5436C93.7004 17.183 93.4797 17.6878 93.0371 18.0585C92.5982 18.4259 91.9889 18.6096 91.21 18.6096H90.0232ZM90.0232 17.5205H91.2327C91.5905 17.5205 91.8625 17.4369 92.0495 17.2696C92.239 17.1023 92.3333 16.8632 92.3333 16.5525C92.3333 16.2328 92.239 15.9743 92.0495 15.7771C91.8595 15.5799 91.5983 15.4783 91.2641 15.4724H90.0232V17.5205ZM93.0644 22.5448L92.3832 22.1907L92.5454 21.8995C92.7472 21.5349 92.8508 21.1718 92.857 20.8104V19.8065H93.9577L93.9535 20.7028C93.9505 21.0345 93.8663 21.3692 93.7004 21.7067C93.5352 22.0444 93.3232 22.3237 93.0644 22.5448ZM102.716 20.9089H101.362V18.1121H98.7228V20.9089H97.3691V14.3832H98.7228V17.0276H101.362V14.3832H102.716V20.9089ZM107.841 14.3832H109.2V20.9089H107.841V16.5749L105.211 20.9089H103.858V14.3832H105.211V18.7262L107.841 14.3832ZM114.312 14.3832H115.67V20.9089H114.312V16.5749L111.681 20.9089H110.328V14.3832H111.681V18.7262L114.312 14.3832ZM114.574 12.6666C114.574 13.064 114.429 13.3852 114.14 13.6303C113.855 13.8753 113.479 13.9978 113.013 13.9978C112.546 13.9978 112.169 13.8768 111.88 13.6348C111.594 13.3927 111.451 13.07 111.451 12.6666H112.376C112.376 12.8549 112.432 13.0013 112.543 13.1059C112.657 13.2075 112.814 13.2583 113.013 13.2583C113.208 13.2583 113.361 13.2075 113.473 13.1059C113.584 13.0013 113.64 12.8549 113.64 12.6666H114.574ZM121.152 15.4724H118.206V20.9089H116.852V14.3832H121.152V15.4724ZM123.765 14.3832L125.452 19.1162L127.131 14.3832H128.908V20.9089H127.55V19.1252L127.686 16.046L125.913 20.9089H124.983L123.214 16.0505L123.349 19.1252V20.9089H121.996V14.3832H123.765ZM134.03 14.3832H135.388V20.9089H134.03V16.5749L131.399 20.9089H130.045V14.3832H131.399V18.7262L134.03 14.3832ZM140.5 14.3832H141.858V20.9089H140.5V16.5749L137.87 20.9089H136.516V14.3832H137.87V18.7262L140.5 14.3832ZM140.762 12.6666C140.762 13.064 140.617 13.3852 140.329 13.6303C140.043 13.8753 139.667 13.9978 139.2 13.9978C138.734 13.9978 138.357 13.8768 138.068 13.6348C137.782 13.3927 137.639 13.07 137.639 12.6666H138.564C138.564 12.8549 138.62 13.0013 138.731 13.1059C138.846 13.2075 139.002 13.2583 139.2 13.2583C139.396 13.2583 139.549 13.2075 139.661 13.1059C139.772 13.0013 139.828 12.8549 139.828 12.6666H140.762ZM148.378 20.9089H147.025V18.1121H144.385V20.9089H143.031V14.3832H144.385V17.0276H147.025V14.3832H148.378V20.9089ZM44.7538 27.342L45.9853 25.0921H47.5419L45.6291 28.328L47.5916 31.6178H46.0172L44.7538 29.3321L43.4903 31.6178H41.9155L43.8784 28.328L41.9651 25.0921H43.5217L44.7538 27.342ZM51.9867 30.2733H49.6133L49.1621 31.6178H47.7226L50.1683 25.0921H51.4225L53.8815 31.6178H52.4421L51.9867 30.2733ZM49.9784 29.1841H51.6211L50.7951 26.7414L49.9784 29.1841ZM56.2642 25.0921L57.9517 29.825L59.6299 25.0921H61.4077V31.6178H60.0498V29.834L60.1848 26.7549L58.4116 31.6178H57.4823L55.7132 26.7595L55.8489 29.834V31.6178H54.495V25.0921H56.2642ZM66.8986 26.1812H63.9524V31.6178H62.5987V25.0921H66.8986V26.1812ZM70.522 30.2733H68.1488L67.6974 31.6178H66.258L68.7037 25.0921H69.9579L72.417 31.6178H70.978L70.522 30.2733ZM68.5142 29.1841H70.1566L69.331 26.7414L68.5142 29.1841ZM76.7396 30.2733H74.3663L73.915 31.6178H72.476L74.9213 25.0921H76.1759L78.635 31.6178H77.1954L76.7396 30.2733ZM74.7318 29.1841H76.3741L75.5486 26.7414L74.7318 29.1841ZM84.6723 25.0921V31.6178H83.3138V26.1812H81.5632L81.455 28.4849C81.4097 29.2619 81.3106 29.8743 81.1571 30.3225C81.0037 30.7678 80.7793 31.0949 80.4847 31.3042C80.19 31.5103 79.787 31.6148 79.2757 31.6178H78.9235V30.5376L79.1493 30.5153C79.4893 30.4705 79.7311 30.2762 79.8758 29.9326C80.0232 29.586 80.1161 28.9705 80.1556 28.0861L80.268 25.0921H84.6723ZM91.2779 25.0921V31.6178H89.9194V26.1812H88.1688L88.0605 28.4849C88.0154 29.2619 87.9162 29.8743 87.7628 30.3225C87.6093 30.7678 87.3855 31.0949 87.0902 31.3042C86.7955 31.5103 86.3926 31.6148 85.8813 31.6178H85.5291V30.5376L85.7549 30.5153C86.0949 30.4705 86.3372 30.2762 86.4814 29.9326C86.6288 29.586 86.7222 28.9705 86.7612 28.0861L86.8741 25.0921H91.2779ZM93.8361 27.4452H94.8921C95.6652 27.4452 96.2771 27.6319 96.7284 28.0053C97.1828 28.3758 97.4096 28.8764 97.4096 29.5069C97.4096 30.1403 97.1842 30.6498 96.733 31.0351C96.2849 31.4176 95.6877 31.6119 94.9413 31.6178H92.4736V25.0921H93.8361V27.4452ZM99.327 31.6178H97.9738V25.0921H99.327V31.6178ZM93.8361 28.5298V30.5376H94.9146C95.2606 30.5376 95.5358 30.4436 95.7401 30.2552C95.9475 30.0671 96.0517 29.8146 96.0517 29.4979C96.0517 29.202 95.9521 28.9689 95.7535 28.7987C95.5584 28.6254 95.2889 28.5358 94.9459 28.5298H93.8361ZM105.865 31.6178H104.512V28.8211H101.872V31.6178H100.519V25.0921H101.872V27.7364H104.512V25.0921H105.865V31.6178ZM112.39 31.6178V29.2648H111.289L110.102 31.6178H108.64L110.043 28.8346C109.367 28.4641 109.028 27.8889 109.028 27.109C109.028 26.4696 109.239 25.975 109.66 25.6255C110.081 25.2758 110.669 25.0981 111.424 25.0921H113.748V31.6178H112.39ZM110.382 27.2077C110.382 27.5722 110.47 27.8367 110.648 28.0009C110.829 28.1653 111.098 28.2474 111.456 28.2474H112.39V26.1812H111.456C110.74 26.1812 110.382 26.5234 110.382 27.2077ZM118.576 30.2733H116.202L115.752 31.6178H114.312L116.758 25.0921H118.012L120.471 31.6178H119.032L118.576 30.2733ZM116.568 29.1841H118.211L117.385 26.7414L116.568 29.1841ZM122.853 25.0921L124.541 29.825L126.219 25.0921H127.997V31.6178H126.639V29.834L126.774 26.7549L125.001 31.6178H124.072L122.303 26.7595L122.438 29.834V31.6178H121.084V25.0921H122.853Z" fill="#9DB1F5"/>
</g>
<defs>
<clipPath id="clip0">
<rect width="153" height="35" fill="white" transform="translate(0 0.203125)"/>
</clipPath>
</defs>
</svg>
