<svg width="960" height="205" viewBox="0 0 960 205" fill="none" xmlns="http://www.w3.org/2000/svg">
<g clip-path="url(#clip0)">
<path d="M113.472 205C76.4769 205 39.4958 205 2.50553 204.991C-0.259089 204.991 0.0190341 205.255 0.0190341 202.799C0.0190341 135.998 0.0117697 69.197 0.0190341 2.40596C0.0190341 -0.301893 -0.397112 0.0110284 2.66223 0.0110284C76.5762 0.0110284 150.491 0.0110284 224.404 0.0110284C227.334 0.0110284 226.983 -0.276632 226.983 2.29536C226.993 69.0929 226.993 135.885 226.983 202.676C226.983 205.241 227.367 204.989 224.44 204.989C187.45 205 150.459 205 113.472 205Z" fill="#1010B6"/>
<path d="M114.591 8C114.591 8 112.695 8.78195 112.414 9.58822C112.01 10.7593 113.615 11.906 113.553 13.1369C113.475 14.7429 111.662 16.0159 111.595 17.6275C111.541 18.7967 113.019 19.8471 112.724 20.9929C112.527 21.7421 111.825 22.6915 110.966 22.6756C110.138 22.6587 109.435 21.7309 109.315 20.9929C109.096 19.6712 111.168 18.6798 111.178 17.3441C111.187 16.4246 109.886 15.7484 109.943 14.8205C109.965 14.2453 110.865 13.3249 110.865 13.3249C110.865 13.3249 108.543 14.365 108.183 15.3827C107.915 16.1151 108.895 16.8587 108.804 17.6275C108.554 19.5113 105.985 20.7787 105.9 22.6747C105.823 24.4986 106.841 26.4385 108.284 27.72C109.631 28.9387 111.654 29.6637 113.554 29.6842C115.555 29.7018 117.71 28.975 119.143 27.72C120.596 26.4432 121.449 24.5014 121.525 22.6747C121.581 21.0621 119.773 19.7087 119.766 18.0802C119.752 17.2076 120.842 16.4443 120.694 15.567C120.49 14.4174 118.422 12.759 118.422 12.759C118.422 12.759 118.888 14.3286 118.726 15.0918C118.511 16.1516 117.171 16.8437 117.072 17.9016C116.978 18.9884 118.413 19.9238 118.211 20.9929C118.072 21.6888 117.552 22.6569 116.767 22.6747C115.951 22.6924 115.377 21.7112 115.208 20.9929C114.86 19.4655 116.745 18.0587 116.658 16.4948C116.524 14.0854 113.992 12.1922 114.069 9.7706C114.089 9.11492 114.591 8 114.591 8ZM113.498 32.0656C106.784 32.0656 101.325 36.9807 101.325 43.0529C101.325 49.1233 106.783 54.0648 113.498 54.0648C120.223 54.0648 125.652 49.1233 125.652 43.0529C125.652 36.9807 120.222 32.0656 113.498 32.0656ZM96.4351 44.6206C96.3906 45.11 96.3583 45.6132 96.3583 46.1115C96.3583 54.6719 104.032 61.6215 113.496 61.6215C122.966 61.6215 130.644 54.6719 130.644 46.1115C130.644 45.6337 130.621 45.1435 130.558 44.6628C128.463 51.3861 121.616 56.3012 113.495 56.3012C105.375 56.3012 98.5262 51.371 96.4351 44.6206ZM81 64.0825V128.999H96.0481V64.0825H81ZM98.6109 64.0825L113.498 72.8972L128.397 64.0825H98.6109ZM130.936 64.0825V128.999H146V64.0825H130.936ZM98.6109 75.1476V80.7307H105.118H121.851H128.397V75.1476H121.851H105.118H98.6109ZM111.095 82.7453C110.451 82.764 109.811 82.8389 109.19 82.9558C102.704 84.1597 98.1154 89.9579 98.1154 96.2752C98.1154 102.552 102.731 107.828 109.055 109.554C106.666 108.248 105.051 105.969 104.995 103.336V103.265C104.959 100.124 107.13 97.4024 110.221 96.2752C111.166 95.9301 112.247 95.7382 113.448 95.7382H113.528C117.515 95.7382 120.71 92.8219 120.665 89.2844C120.197 84.7123 115.608 82.5706 111.095 82.7453ZM117.925 82.9791C120.307 84.2746 121.922 86.5606 121.983 89.1946V89.2639C122.021 92.4046 119.848 95.1227 116.764 96.2481C115.816 96.5932 114.734 96.7886 113.528 96.7886H113.448C109.462 96.7886 106.268 99.7022 106.312 103.24C106.783 107.802 111.371 109.947 115.886 109.783C116.522 109.759 117.168 109.697 117.796 109.572C124.276 108.355 128.86 102.564 128.86 96.2471C128.861 89.9766 124.243 84.6929 117.925 82.9791ZM113.498 86.6374C115.057 86.6374 116.29 87.7842 116.29 89.1935C116.29 90.5929 115.058 91.7088 113.498 91.7088C111.949 91.7088 110.681 90.5929 110.681 89.1935C110.681 87.7842 111.949 86.6374 113.498 86.6374ZM113.477 100.81C115.026 100.81 116.29 101.925 116.29 103.335C116.29 104.734 115.025 105.878 113.477 105.878C111.924 105.878 110.681 104.734 110.681 103.335C110.681 101.926 111.924 100.81 113.477 100.81ZM98.6109 112.359V117.935H105.118H121.851H128.397V112.359H121.851H105.118H98.6109ZM98.6109 120.18L113.498 129L128.397 120.18H98.6109Z" fill="#F3C30E"/>
<path d="M35 160H30.842V150.057L27.8127 156.475H24.962L21.9327 150.057V160H18V145H22.8171L26.5053 152.405L30.1819 145H35V160Z" fill="#F6F7F8"/>
<path d="M53 152.504C53 154.831 52.2861 156.664 50.8606 157.999C49.4329 159.333 47.478 160 44.9949 160C42.5031 160 40.5483 159.325 39.129 157.974C37.7097 156.623 37 154.8 37 152.505C37 150.191 37.7097 148.361 39.129 147.017C40.5483 145.673 42.5031 145 44.9949 145C47.478 145 49.4329 145.671 50.8606 147.009C52.2872 148.344 53 150.178 53 152.504ZM48.7201 152.495C48.7201 151.637 48.6189 150.906 48.4155 150.305C48.2119 149.702 47.9399 149.206 47.6004 148.82C47.246 148.426 46.8443 148.144 46.3971 147.973C45.9501 147.802 45.486 147.717 45.0053 147.717C44.496 147.717 44.0333 147.796 43.6198 147.954C43.2066 148.112 42.8069 148.395 42.4221 148.8C42.0823 149.176 41.8073 149.671 41.5963 150.289C41.3853 150.909 41.2801 151.647 41.2801 152.504C41.2801 153.388 41.3803 154.122 41.5794 154.705C41.7788 155.289 42.052 155.777 42.3999 156.171C42.754 156.572 43.1579 156.855 43.6083 157.028C44.0586 157.199 44.5246 157.282 45.0053 157.282C45.4936 157.282 45.967 157.191 46.4247 157.007C46.8834 156.823 47.2786 156.538 47.6108 156.15C47.9663 155.732 48.2394 155.243 48.4313 154.686C48.6242 154.128 48.7201 153.399 48.7201 152.495Z" fill="#F6F7F8"/>
<path d="M69 160H64.8346V153.353H59.1654V160H55V145H59.1654V150.491H64.8346V145H69V160Z" fill="#F6F7F8"/>
<path d="M83 147.861H76.7251V160H73V145H83V147.861Z" fill="#F6F7F8"/>
<path d="M100 152.504C100 154.831 99.2861 156.664 97.8606 157.999C96.4329 159.333 94.478 160 91.9947 160C89.5031 160 87.5483 159.325 86.129 157.974C84.7097 156.623 84 154.8 84 152.505C84 150.191 84.7097 148.361 86.129 147.017C87.5483 145.673 89.5031 145 91.9947 145C94.478 145 96.4329 145.671 97.8606 147.009C99.2861 148.344 100 150.178 100 152.504ZM95.719 152.495C95.719 151.637 95.6177 150.906 95.4141 150.305C95.2107 149.702 94.9387 149.206 94.5993 148.82C94.2448 148.426 93.8432 148.144 93.396 147.973C92.949 147.802 92.4849 147.717 92.0042 147.717C91.4948 147.717 91.0321 147.796 90.6187 147.954C90.2055 148.112 89.8058 148.395 89.4207 148.8C89.0812 149.176 88.8061 149.671 88.5952 150.289C88.3842 150.909 88.279 151.647 88.279 152.504C88.279 153.388 88.3792 154.122 88.5783 154.705C88.7777 155.289 89.0508 155.777 89.3988 156.171C89.7529 156.572 90.1568 156.855 90.6071 157.028C91.0574 157.199 91.5235 157.282 92.0042 157.282C92.4925 157.282 92.9659 157.191 93.4235 157.007C93.8823 156.823 94.2775 156.538 94.6097 156.15C94.9652 155.732 95.238 155.243 95.4301 154.686C95.6231 154.128 95.719 153.399 95.719 152.495Z" fill="#F6F7F8"/>
<path d="M115.999 159.898H112.085V147.841H108.149C108.121 148.422 108.096 148.964 108.071 149.467C108.046 149.97 108.02 150.45 107.992 150.904C107.915 152.205 107.789 153.328 107.616 154.272C107.442 155.216 107.242 155.987 107.019 156.588C106.774 157.229 106.527 157.733 106.275 158.099C106.024 158.467 105.786 158.756 105.563 158.97C105.228 159.29 104.81 159.541 104.307 159.725C103.805 159.909 103.31 160 102.821 160C102.493 160 102.134 159.987 101.743 159.961C101.352 159.934 101.104 159.913 101 159.9V156.609H101.146C101.216 156.614 101.284 156.622 101.35 156.628C101.416 156.634 101.502 156.638 101.607 156.638C101.781 156.638 102.004 156.612 102.277 156.558C102.55 156.504 102.755 156.415 102.895 156.289C103.397 155.835 103.741 155.133 103.926 154.181C104.111 153.231 104.253 151.858 104.35 150.065C104.392 149.243 104.418 148.507 104.429 147.853C104.439 147.198 104.466 146.249 104.507 145H116V159.898H115.999Z" fill="#F6F7F8"/>
<path d="M140 145L134.605 156.926C134.287 157.62 133.931 158.166 133.537 158.568C133.142 158.968 132.729 159.273 132.295 159.479C131.86 159.686 131.427 159.823 130.991 159.895C130.558 159.965 130.103 160 129.625 160C129.125 160 128.544 159.989 127.883 159.971C127.219 159.951 126.777 159.93 126.552 159.91V156.747H126.802C126.866 156.76 126.968 156.776 127.107 156.797C127.244 156.817 127.417 156.836 127.627 156.856C127.8 156.87 127.99 156.882 128.191 156.897C128.395 156.91 128.578 156.916 128.746 156.916C129.23 156.916 129.687 156.862 130.118 156.752C130.549 156.641 130.835 156.453 130.981 156.185L125 145.001H129.385L132.847 151.99L135.778 145.001H140V145Z" fill="#F6F7F8"/>
<path d="M155 159.898H151.086V147.841H147.149C147.122 148.422 147.095 148.964 147.071 149.467C147.046 149.97 147.021 150.45 146.993 150.904C146.916 152.205 146.79 153.328 146.617 154.272C146.441 155.216 146.242 155.987 146.019 156.588C145.774 157.229 145.527 157.733 145.276 158.099C145.024 158.467 144.787 158.756 144.564 158.97C144.228 159.29 143.81 159.541 143.307 159.725C142.805 159.909 142.309 160 141.822 160C141.493 160 141.134 159.987 140.742 159.961C140.351 159.934 140.104 159.913 140 159.9V156.609H140.145C140.215 156.614 140.284 156.622 140.349 156.628C140.415 156.634 140.501 156.638 140.606 156.638C140.781 156.638 141.004 156.612 141.277 156.558C141.55 156.504 141.754 156.415 141.894 156.289C142.397 155.835 142.74 155.133 142.925 154.181C143.11 153.231 143.251 151.858 143.349 150.065C143.39 149.243 143.417 148.507 143.427 147.853C143.438 147.198 143.464 146.249 143.506 145H154.999V159.898H155Z" fill="#F6F7F8"/>
<path d="M165.679 160C163.327 160 161.459 159.346 160.076 158.037C158.692 156.728 158 154.887 158 152.516C158 150.227 158.694 148.402 160.081 147.042C161.468 145.681 163.337 145 165.691 145C166.315 145 166.877 145.032 167.376 145.097C167.875 145.161 168.353 145.252 168.808 145.369C169.167 145.466 169.558 145.597 169.978 145.765C170.399 145.935 170.741 146.081 171 146.203V149.645H170.601C170.412 149.49 170.172 149.304 169.884 149.087C169.596 148.87 169.27 148.659 168.905 148.452C168.539 148.245 168.136 148.069 167.697 147.923C167.259 147.779 166.801 147.705 166.324 147.705C165.755 147.705 165.233 147.788 164.759 147.954C164.286 148.119 163.834 148.404 163.405 148.812C163.011 149.181 162.691 149.678 162.443 150.305C162.192 150.932 162.068 151.671 162.068 152.525C162.068 153.424 162.198 154.178 162.459 154.789C162.718 155.401 163.059 155.892 163.48 156.268C163.887 156.631 164.342 156.892 164.844 157.054C165.346 157.215 165.846 157.296 166.345 157.296C166.865 157.296 167.36 157.216 167.831 157.058C168.3 156.899 168.697 156.725 169.021 156.53C169.372 156.33 169.681 156.126 169.948 155.92C170.215 155.712 170.447 155.529 170.642 155.367H171V158.76C170.712 158.883 170.379 159.025 170 159.181C169.621 159.34 169.231 159.474 168.83 159.585C168.339 159.72 167.88 159.825 167.451 159.895C167.021 159.966 166.43 160 165.679 160Z" fill="#F6F7F8"/>
<path d="M186.739 155.205C186.739 155.939 186.588 156.611 186.288 157.226C185.988 157.84 185.578 158.343 185.056 158.732C184.434 159.195 183.764 159.523 183.044 159.714C182.324 159.904 181.447 160 180.413 160H174V145H178.047V150.632H180.477C181.425 150.632 182.282 150.693 183.048 150.819C183.816 150.942 184.513 151.233 185.143 151.689C185.7 152.093 186.105 152.598 186.358 153.206C186.611 153.814 186.739 154.481 186.739 155.205ZM182.55 155.318C182.55 155.068 182.521 154.833 182.463 154.612C182.405 154.39 182.278 154.186 182.083 153.996C181.888 153.81 181.62 153.663 181.282 153.559C180.941 153.454 180.471 153.404 179.871 153.404H178.047V157.22H179.871C180.696 157.22 181.349 157.057 181.828 156.731C182.308 156.406 182.55 155.934 182.55 155.318ZM192 160H187.942V145H192V160Z" fill="#F6F7F8"/>
<path d="M209 160H204.835V153.353H199.165V160H195V145H199.165V150.491H204.835V145H209V160Z" fill="#F6F7F8"/>
<path d="M31.7939 176.883C32.1601 177.162 32.4523 177.506 32.6713 177.916C32.8904 178.327 33 178.826 33 179.415C33 180.855 32.373 181.981 31.119 182.788C29.8639 183.597 28.0634 184 25.716 184C24.6487 184 23.6295 183.917 22.6603 183.748C21.6911 183.58 20.8043 183.352 20 183.06V179.831H20.3724C20.9212 180.168 21.6431 180.496 22.5393 180.816C23.4354 181.135 24.3107 181.295 25.1672 181.295C26.272 181.295 27.1494 181.121 27.8004 180.772C28.4513 180.424 28.7769 179.887 28.7769 179.163C28.7769 178.536 28.539 178.071 28.0634 177.771C27.5875 177.47 26.7321 177.321 25.4959 177.321H23.1485V174.741H25.3863C26.4098 174.741 27.1598 174.603 27.6356 174.329C28.1112 174.053 28.3492 173.641 28.3492 173.092C28.3492 172.607 28.0873 172.254 27.5647 172.035C27.042 171.815 26.3451 171.706 25.475 171.706C24.9847 171.706 24.5184 171.751 24.076 171.842C23.6337 171.933 23.2007 172.046 22.7761 172.18C22.3818 172.31 22.0176 172.452 21.6849 172.607C21.3521 172.762 21.0986 172.879 20.9233 172.957H20.5383V169.951C21.014 169.776 21.7902 169.574 22.8689 169.344C23.9477 169.115 25.0796 169 26.2647 169C28.3712 169 29.9474 169.31 30.9927 169.926C32.0382 170.544 32.5617 171.403 32.5617 172.501C32.5617 173.323 32.275 174.03 31.7001 174.625C31.1251 175.22 30.3857 175.617 29.479 175.817V175.963C29.8149 176.016 30.2073 176.122 30.6526 176.284C31.0993 176.444 31.48 176.645 31.7939 176.883Z" fill="#F6F7F8"/>
<path d="M34 184L39.3363 169H43.6648L49 184H44.9166L43.9301 180.937H38.966L37.9795 184H34ZM43.0586 178.219L41.4456 173.272L39.8335 178.219H43.0586Z" fill="#F6F7F8"/>
<path d="M57.6803 184C55.3269 184 53.4595 183.346 52.0759 182.037C50.6924 180.728 50 178.887 50 176.516C50 174.227 50.6935 172.402 52.081 171.042C53.4685 169.68 55.3379 169 57.6912 169C58.3163 169 58.8783 169.032 59.3762 169.097C59.8751 169.161 60.353 169.252 60.8089 169.369C61.1675 169.466 61.5572 169.597 61.9781 169.765C62.3987 169.935 62.7405 170.081 63 170.203V173.644H62.6002C62.4107 173.489 62.1713 173.304 61.8837 173.087C61.5954 172.87 61.2696 172.659 60.904 172.452C60.5395 172.245 60.1368 172.068 59.698 171.923C59.2591 171.779 58.8003 171.705 58.3233 171.705C57.7543 171.705 57.2334 171.788 56.7586 171.954C56.2837 172.118 55.8328 172.404 55.4039 172.812C55.0103 173.181 54.6896 173.678 54.4402 174.305C54.1909 174.932 54.0656 175.671 54.0656 176.525C54.0656 177.424 54.1957 178.178 54.4552 178.789C54.7147 179.401 55.0554 179.892 55.4771 180.268C55.8839 180.631 56.3387 180.892 56.8417 181.054C57.3435 181.215 57.8436 181.296 58.3433 181.296C58.8634 181.296 59.3583 181.216 59.8292 181.058C60.299 180.899 60.6966 180.725 61.0192 180.53C61.3709 180.33 61.6796 180.126 61.946 179.92C62.2135 179.713 62.4449 179.529 62.6411 179.367H62.9989V182.76C62.7103 182.883 62.3768 183.025 61.9981 183.181C61.6194 183.34 61.2287 183.474 60.8289 183.585C60.3369 183.72 59.8773 183.825 59.4494 183.895C59.0205 183.966 58.4315 184 57.6803 184Z" fill="#F6F7F8"/>
<path d="M77 171.861H70.0977V184H66V169H77V171.861Z" fill="#F6F7F8"/>
<path d="M92.9991 184H88.7066V174.118L82.0351 184H78V169H82.2925V177.936L88.4625 169H93V184H92.9991Z" fill="#F6F7F8"/>
<path d="M109.999 184H105.993V174.09L99.7661 184H96V168.959H100.006V177.919L105.765 168.959H110V184H109.999ZM108.768 164C108.761 165.212 108.291 166.181 107.358 166.908C106.426 167.636 104.979 168 103.021 168C101.097 168 99.6606 167.63 98.7093 166.893C97.7577 166.157 97.2797 165.192 97.2722 164H100.843C100.857 164.734 101.024 165.266 101.344 165.6C101.664 165.935 102.222 166.101 103.021 166.101C103.819 166.101 104.378 165.932 104.697 165.595C105.017 165.258 105.183 164.726 105.198 164H108.768Z" fill="#F6F7F8"/>
<path d="M127 184H122.835V177.353H117.164V184H113V169H117.164V174.491H122.835V169H127V184Z" fill="#F6F7F8"/>
<path d="M148 171.861H141.098V184H137V169H148V171.861Z" fill="#F6F7F8"/>
<path d="M148 184L153.336 169H157.664L163 184H158.915L157.928 180.937H152.963L151.977 184H148ZM157.059 178.219L155.445 173.272L153.833 178.219H157.059Z" fill="#F6F7F8"/>
<path d="M174.793 176.883C175.159 177.162 175.451 177.506 175.671 177.916C175.891 178.327 176 178.826 176 179.415C176 180.855 175.372 181.981 174.118 182.788C172.864 183.597 171.063 184 168.716 184C167.649 184 166.629 183.917 165.659 183.748C164.691 183.58 163.804 183.352 163 183.06V179.831H163.373C163.92 180.168 164.642 180.496 165.538 180.816C166.434 181.135 167.309 181.295 168.166 181.295C169.271 181.295 170.147 181.121 170.799 180.772C171.449 180.424 171.775 179.887 171.775 179.163C171.775 178.536 171.536 178.071 171.062 177.771C170.586 177.47 169.732 177.321 168.494 177.321H166.147V174.741H168.385C169.409 174.741 170.158 174.603 170.634 174.329C171.109 174.053 171.348 173.641 171.348 173.092C171.348 172.607 171.086 172.254 170.563 172.035C170.039 171.815 169.343 171.706 168.472 171.706C167.983 171.706 167.517 171.751 167.075 171.842C166.631 171.933 166.198 172.046 165.775 172.18C165.379 172.31 165.016 172.452 164.683 172.607C164.351 172.762 164.096 172.879 163.921 172.957H163.537V169.951C164.013 169.776 164.789 169.574 165.868 169.344C166.946 169.115 168.078 169 169.263 169C171.37 169 172.945 169.31 173.991 169.926C175.037 170.544 175.56 171.403 175.56 172.501C175.56 173.323 175.273 174.03 174.699 174.625C174.124 175.22 173.384 175.617 172.477 175.817V175.963C172.813 176.016 173.205 176.122 173.651 176.284C174.098 176.444 174.479 176.645 174.793 176.883Z" fill="#F6F7F8"/>
<path d="M177 184L182.692 169H187.309L193 184H188.644L187.591 180.937H182.294L181.242 184H177ZM186.664 178.219L184.943 173.272L183.224 178.219H186.664Z" fill="#F6F7F8"/>
<path d="M207 173.735C207 174.434 206.876 175.099 206.626 175.73C206.375 176.36 206.017 176.888 205.548 177.31C205.26 177.572 204.944 177.813 204.601 178.037C204.257 178.257 203.876 178.446 203.461 178.6C203.044 178.755 202.593 178.877 202.104 178.963C201.618 179.051 201.071 179.094 200.465 179.094H198.242V184H194V169H200.556C201.531 169 202.373 169.08 203.079 169.238C203.786 169.395 204.426 169.646 205.001 169.988C205.637 170.364 206.129 170.865 206.476 171.494C206.823 172.122 207 172.869 207 173.735ZM202.645 173.825C202.645 173.403 202.532 173.038 202.305 172.732C202.078 172.427 201.807 172.218 201.489 172.104C201.088 171.949 200.703 171.861 200.338 171.836C199.97 171.813 199.473 171.801 198.846 171.801H198.244V176.293H198.539C198.939 176.293 199.318 176.291 199.673 176.284C200.028 176.276 200.338 176.254 200.603 176.213C200.831 176.179 201.07 176.113 201.323 176.016C201.576 175.919 201.771 175.81 201.907 175.689C202.195 175.441 202.389 175.182 202.492 174.914C202.594 174.645 202.645 174.282 202.645 173.825Z" fill="#F6F7F8"/>
<path d="M280.809 96.2325L288.536 83.0543H298.303L286.301 102.008L298.615 121.276H288.736L280.809 107.888L272.881 121.276H263L275.316 102.008L263.311 83.0543H273.078L280.809 96.2325ZM336.155 103.032C336.155 106.795 335.44 110.093 334.003 112.929C332.57 115.764 330.511 117.951 327.831 119.491C325.171 121.032 322.114 121.802 318.661 121.802C315.243 121.802 312.196 121.04 309.516 119.518C306.836 117.995 304.758 115.825 303.286 113.007C301.814 110.172 301.07 106.917 301.05 103.242V101.352C301.05 97.5888 301.775 94.2812 303.231 91.4285C304.703 88.5584 306.768 86.3619 309.429 84.8395C312.109 83.2995 315.169 82.5292 318.603 82.5292C322.036 82.5292 325.087 83.2995 327.748 84.8395C330.428 86.3619 332.496 88.5584 333.948 91.4285C335.42 94.2812 336.155 97.5801 336.155 101.325V103.032ZM318.661 115.344C321.341 115.344 323.434 114.416 324.945 112.561C326.472 110.706 327.332 108.011 327.522 104.476H309.686C309.893 108.011 310.762 110.706 312.289 112.561C313.839 114.416 315.961 115.344 318.661 115.344ZM318.603 89.0396C315.923 89.0396 313.819 89.9497 312.289 91.7699C310.778 93.5724 309.922 96.2152 309.712 99.6978H327.522C327.313 96.2152 326.437 93.5724 324.887 91.7699C323.36 89.9497 321.263 89.0396 318.603 89.0396ZM380.32 130.675H372.48V121.276H347.622V130.648H339.582L339.128 114.95H342.243C343.921 113.655 345.216 111.756 346.121 109.253C347.046 106.733 347.671 103.618 347.989 99.9078L349.178 83.0543H376.188V114.95H381L380.32 130.675ZM351.981 114.95H367.693V89.4336H357.247L356.538 99.4878C355.975 106.226 354.454 111.38 351.981 114.95ZM418.768 103.032C418.768 106.795 418.05 110.093 416.617 112.929C415.183 115.764 413.125 117.951 410.445 119.491C407.784 121.032 404.724 121.802 401.271 121.802C397.857 121.802 394.806 121.04 392.126 119.518C389.446 117.995 387.372 115.825 385.9 113.007C384.427 110.172 383.68 106.917 383.661 103.242V101.352C383.661 97.5888 384.389 94.2812 385.842 91.4285C387.314 88.5584 389.382 86.3619 392.042 84.8395C394.722 83.2995 397.779 82.5292 401.216 82.5292C404.65 82.5292 407.697 83.2995 410.358 84.8395C413.038 86.3619 415.106 88.5584 416.559 91.4285C418.031 94.2812 418.768 97.5801 418.768 101.325V103.032ZM401.271 115.344C403.951 115.344 406.048 114.416 407.555 112.561C409.086 110.706 409.946 108.011 410.132 104.476H392.297C392.503 108.011 393.373 110.706 394.903 112.561C396.449 114.416 398.572 115.344 401.271 115.344ZM401.216 89.0396C398.536 89.0396 396.43 89.9497 394.903 91.7699C393.392 93.5724 392.532 96.2152 392.326 99.6978H410.132C409.926 96.2152 409.047 93.5724 407.501 91.7699C405.971 89.9497 403.877 89.0396 401.216 89.0396ZM458.234 83.0543V121.276H449.711V89.4336H438.727L438.047 102.927C437.764 107.477 437.142 111.065 436.179 113.69C435.216 116.297 433.811 118.214 431.959 119.439C430.11 120.647 427.582 121.259 424.373 121.276H422.163V114.95L423.581 114.819C425.713 114.556 427.234 113.418 428.139 111.406C429.063 109.376 429.65 105.771 429.894 100.59L430.603 83.0543H458.234ZM476.75 83.0543L487.338 110.776L497.868 83.0543H509.023V121.276H500.503V110.829L501.35 92.7937L490.224 121.276H484.393L473.296 92.82L474.144 110.829V121.276H465.649V83.0543H476.75ZM550.415 103.032C550.415 106.795 549.696 110.093 548.263 112.929C546.829 115.764 544.771 117.951 542.091 119.491C539.43 121.032 536.374 121.802 532.917 121.802C529.503 121.802 526.452 121.04 523.772 119.518C521.092 117.995 519.018 115.825 517.546 113.007C516.074 110.172 515.326 106.917 515.307 103.242V101.352C515.307 97.5888 516.035 94.2812 517.488 91.4285C518.96 88.5584 521.028 86.3619 523.689 84.8395C526.369 83.2995 529.425 82.5292 532.862 82.5292C536.296 82.5292 539.343 83.2995 542.007 84.8395C544.687 86.3619 546.752 88.5584 548.205 91.4285C549.677 94.2812 550.415 97.5801 550.415 101.325V103.032ZM532.917 115.344C535.597 115.344 537.694 114.416 539.202 112.561C540.732 110.706 541.592 108.011 541.779 104.476H523.943C524.152 108.011 525.019 110.706 526.549 112.561C528.095 114.416 530.218 115.344 532.917 115.344ZM532.862 89.0396C530.182 89.0396 528.076 89.9497 526.549 91.7699C525.038 93.5724 524.178 96.2152 523.972 99.6978H541.779C541.573 96.2152 540.693 93.5724 539.147 91.7699C537.617 89.9497 535.523 89.0396 532.862 89.0396ZM564.852 107.809V121.276H556.361V83.0543H572.441C575.537 83.0543 578.252 83.5794 580.594 84.6295C582.952 85.6794 584.765 87.1758 586.031 89.1184C587.294 91.0435 587.925 93.24 587.925 95.7077C587.925 99.4529 586.54 102.41 583.763 104.581C581.009 106.733 577.186 107.809 572.299 107.809H564.852ZM564.852 101.43H572.441C574.686 101.43 576.393 100.94 577.566 99.9604C578.755 98.9804 579.347 97.5801 579.347 95.76C579.347 93.8875 578.755 92.3735 577.566 91.2185C576.374 90.0635 574.735 89.4685 572.638 89.4336H564.852V101.43ZM583.934 130.858L579.66 128.784L580.678 127.078C581.944 124.943 582.594 122.816 582.633 120.699V114.819H589.539L589.513 120.069C589.494 122.012 588.966 123.972 587.925 125.949C586.888 127.927 585.558 129.563 583.934 130.858ZM644.492 121.276H635.998V104.895H619.438V121.276H610.944V83.0543H619.438V98.5428H635.998V83.0543H644.492V121.276ZM676.653 83.0543H685.176V121.276H676.653V95.8914L660.147 121.276H651.656V83.0543H660.147V108.492L676.653 83.0543ZM717.252 83.0543H725.772V121.276H717.252V95.8914L700.747 121.276H692.253V83.0543H700.747V108.492L717.252 83.0543ZM718.895 73C718.895 75.3276 717.987 77.209 716.176 78.6442C714.382 80.0791 712.024 80.7968 709.099 80.7968C706.171 80.7968 703.804 80.0881 701.994 78.6705C700.199 77.2527 699.304 75.3626 699.304 73H705.105C705.105 74.1027 705.456 74.9603 706.155 75.5726C706.87 76.1678 707.853 76.4653 709.099 76.4653C710.324 76.4653 711.287 76.1678 711.986 75.5726C712.685 74.9603 713.033 74.1027 713.033 73H718.895ZM760.171 89.4336H741.685V121.276H733.191V83.0543H760.171V89.4336ZM776.564 83.0543L787.152 110.776L797.685 83.0543H808.837V121.276H800.317V110.829L801.167 92.7937L790.041 121.276H784.208L773.111 92.82L773.958 110.829V121.276H765.467V83.0543H776.564ZM840.971 83.0543H849.495V121.276H840.971V95.8914L824.466 121.276H815.972V83.0543H824.466V108.492L840.971 83.0543ZM881.571 83.0543H890.091V121.276H881.571V95.8914L865.066 121.276H856.571V83.0543H865.066V108.492L881.571 83.0543ZM883.211 73C883.211 75.3276 882.305 77.209 880.495 78.6442C878.701 80.0791 876.343 80.7968 873.415 80.7968C870.49 80.7968 868.123 80.0881 866.309 78.6705C864.518 77.2527 863.619 75.3626 863.619 73H869.424C869.424 74.1027 869.772 74.9603 870.471 75.5726C871.189 76.1678 872.172 76.4653 873.415 76.4653C874.642 76.4653 875.605 76.1678 876.304 75.5726C877.003 74.9603 877.351 74.1027 877.351 73H883.211ZM931 121.276H922.509V104.895H905.946V121.276H897.451V83.0543H905.946V98.5428H922.509V83.0543H931V121.276ZM280.809 158.956L288.536 145.778H298.303L286.301 164.731L298.615 184H288.736L280.809 170.612L272.881 184H263L275.316 164.731L263.311 145.778H273.078L280.809 158.956ZM326.192 176.125H311.3L308.469 184H299.437L314.782 145.778H322.652L338.081 184H329.049L326.192 176.125ZM313.591 169.745H323.898L318.715 155.438L313.591 169.745ZM353.031 145.778L363.619 173.499L374.149 145.778H385.304V184H376.784V173.552L377.631 155.517L366.505 184H360.674L349.574 155.544L350.425 173.552V184H341.93V145.778H353.031ZM419.757 152.157H401.271V184H392.777V145.778H419.757V152.157ZM442.492 176.125H427.601L424.769 184H415.737L431.083 145.778H438.952L454.382 184H445.353L442.492 176.125ZM429.894 169.745H440.199L435.019 155.438L429.894 169.745ZM481.504 176.125H466.613L463.781 184H454.752L470.095 145.778H477.967L493.397 184H484.364L481.504 176.125ZM468.906 169.745H479.211L474.031 155.438L468.906 169.745ZM531.278 145.778V184H522.754V152.157H511.77L511.091 165.65C510.807 170.201 510.185 173.788 509.222 176.413C508.259 179.021 506.851 180.937 505.003 182.163C503.154 183.37 500.625 183.982 497.417 184H495.207V177.673L496.624 177.542C498.757 177.28 500.274 176.142 501.182 174.129C502.107 172.099 502.69 168.494 502.938 163.314L503.643 145.778H531.278ZM572.725 145.778V184H564.201V152.157H553.217L552.537 165.65C552.254 170.201 551.632 173.788 550.669 176.413C549.706 179.021 548.302 180.937 546.449 182.163C544.6 183.37 542.072 183.982 538.864 184H536.654V177.673L538.071 177.542C540.204 177.28 541.724 176.142 542.629 174.129C543.554 172.099 544.14 168.494 544.385 163.314L545.093 145.778H572.725ZM588.776 159.56H595.402C600.253 159.56 604.092 160.654 606.924 162.841C609.775 165.011 611.198 167.943 611.198 171.636C611.198 175.346 609.784 178.33 606.953 180.587C604.141 182.827 600.394 183.965 595.711 184H580.227V145.778H588.776V159.56ZM623.229 184H614.738V145.778H623.229V184ZM588.776 165.913V177.673H595.543C597.714 177.673 599.441 177.122 600.723 176.019C602.024 174.917 602.678 173.438 602.678 171.583C602.678 169.85 602.053 168.485 600.807 167.488C599.583 166.473 597.892 165.948 595.74 165.913H588.776ZM664.254 184H655.76V167.619H639.197V184H630.706V145.778H639.197V161.266H655.76V145.778H664.254V184ZM705.192 184V170.218H698.283L690.839 184H681.665L690.468 167.698C686.223 165.528 684.1 162.159 684.1 157.591C684.1 153.846 685.421 150.949 688.062 148.902C690.707 146.854 694.395 145.813 699.133 145.778H713.712V184H705.192ZM692.594 158.169C692.594 160.304 693.148 161.853 694.263 162.815C695.397 163.778 697.085 164.259 699.33 164.259H705.192V152.157H699.33C694.839 152.157 692.594 154.161 692.594 158.169ZM744.007 176.125H729.113L726.285 184H717.252L732.598 145.778H740.467L755.897 184H746.865L744.007 176.125ZM731.406 169.745H741.714L736.531 155.438L731.406 169.745ZM770.846 145.778L781.434 173.499L791.964 145.778H803.119V184H794.599V173.552L795.446 155.517L784.32 184H778.49L767.39 155.544L768.24 173.552V184H759.746V145.778H770.846Z" fill="#1010B6"/>
</g>
<defs>
<clipPath id="clip0">
<rect width="960" height="205" fill="white"/>
</clipPath>
</defs>
</svg>
