<svg width="64" height="74" viewBox="0 0 64 74" fill="none" xmlns="http://www.w3.org/2000/svg">
<path fill-rule="evenodd" clip-rule="evenodd" d="M7.13506 23.1227L0.0307545 19V31.4902L7.01201 35.3685L7.13506 23.1227ZM56.4038 39.5525V60.0133L64 55.6158V35.2158L56.4038 39.5831V39.5525ZM56.4038 27.1843L45.9472 33.1698V66.0293L53.2669 61.815V37.3843L64 31.5513V19L56.4038 23.367V27.1843ZM32.0153 53.5392V61.6929L42.595 55.6464V47.4924L32.0461 53.5392H32.0153ZM32.0153 74L42.5642 67.9535L42.595 59.5552L31.9846 65.6323L28.3556 63.5557V51.615L0 35.3685V43.3698L21.0361 55.4326V67.7397L31.9538 74H32.0153ZM32.0153 28.3753L35.9214 30.6047L39.8271 32.8339V37.3233V41.8123L35.9214 44.0416L32.0153 46.2709L28.1096 44.0416L24.2038 41.8123V37.3233V32.8339L28.1096 30.6047L32.0153 28.3753ZM10.3335 37.5065L17.5916 41.4153V29.1999L10.4565 25.1688L10.3028 37.5065H10.3335ZM0.0307545 55.6158L17.7453 65.9071L17.8376 57.6008L0.0307545 47.5229V55.6158Z" fill="#2F55D3"/>
<path fill-rule="evenodd" clip-rule="evenodd" d="M14.3761 10.1665L21.5488 14.3256L39.1572 4.15902L31.9847 0L14.3761 10.1665ZM31.9539 27.8809L39.7729 32.5022L31.9539 37L24.1038 32.5022L31.9231 27.8809H31.9539ZM35.3708 22.3048L46.3916 28.6512L53.0408 24.8002L42.02 18.4538L35.3708 22.3048ZM56.3962 22.8901L64 18.4846L52.9792 12.1382L45.3754 16.5437L56.3962 22.8901ZM0 18.4846L7.11111 22.6436L10.3126 20.7952L20.81 26.8643L49.6854 10.1973L42.4818 6.03832L21.0562 18.423L10.6205 12.3847L0.030784 18.4846H0Z" fill="#9DB1F5"/>
</svg>
