<svg width="50" height="50" viewBox="0 0 50 50" fill="none" xmlns="http://www.w3.org/2000/svg">
<circle cx="25" cy="25" r="25" fill="url(#paint0_radial)"/>
<path d="M18.6029 21.4079C19.0974 21.8878 19.8875 21.8753 20.367 21.3809C20.8469 20.8864 20.8344 20.0963 20.34 19.6168C19.8455 19.1369 19.0554 19.1494 18.5759 19.6438L18.5755 19.6443C18.0964 20.1391 18.1085 20.9284 18.6029 21.4079Z" fill="#7FF48B"/>
<path d="M19.4334 11.327C19.2038 11.327 19.0175 11.1406 19.0175 10.9111V8.4159C19.0175 8.18631 19.2038 8 19.4334 8C19.6629 8 19.8492 8.18631 19.8492 8.41585V10.9111C19.8492 11.1406 19.6629 11.327 19.4334 11.327Z" fill="#7FF48B"/>
<path d="M17.4126 9.42143C17.2109 9.42143 17.0383 9.2763 17.0034 9.07791L16.931 8.66829C16.8911 8.44207 17.042 8.22622 17.2683 8.1867C17.4945 8.14678 17.7104 8.29771 17.7503 8.52399L17.8227 8.9336C17.8626 9.15983 17.7112 9.37523 17.485 9.4152C17.4613 9.41934 17.4367 9.42143 17.4126 9.42143Z" fill="#2F55D4"/>
<path d="M15.4517 9.9475C15.2766 9.9475 15.1203 9.83814 15.0608 9.67347L14.919 9.28296C14.8362 9.06877 14.9427 8.82802 15.1573 8.74522C15.3715 8.66247 15.6122 8.76891 15.695 8.98353C15.6971 8.98851 15.6988 8.99353 15.7004 8.9985L15.8427 9.3894C15.9213 9.60524 15.8098 9.84394 15.594 9.92255C15.5486 9.93917 15.5004 9.9475 15.4517 9.9475Z" fill="#2F55D4"/>
<path d="M11.9487 11.97C11.8256 11.97 11.7092 11.9156 11.6301 11.8212L11.3627 11.5026C11.2188 11.3238 11.2475 11.0618 11.4264 10.9179C11.6002 10.7781 11.8531 10.8006 11.9998 10.9682L12.2673 11.2868C12.4149 11.4627 12.392 11.7251 12.2161 11.8727C12.1413 11.9355 12.0464 11.97 11.9487 11.97Z" fill="#2F55D4"/>
<path d="M10.5147 13.4042C10.417 13.4042 10.3226 13.3697 10.2477 13.3069L9.92915 13.0395C9.75615 12.8881 9.7387 12.6257 9.89007 12.4527C10.0369 12.2851 10.2897 12.2626 10.4635 12.4024L10.7821 12.6698C10.958 12.8174 10.9809 13.0798 10.8333 13.2557C10.7542 13.3498 10.6378 13.4042 10.5147 13.4042Z" fill="#2F55D4"/>
<path d="M8.4925 16.907C8.44425 16.907 8.396 16.8983 8.35068 16.8816L7.95978 16.7394C7.74228 16.665 7.62668 16.4288 7.7011 16.2113C7.77552 15.9938 8.01173 15.8782 8.22923 15.9526C8.2342 15.9543 8.23922 15.9564 8.2442 15.958L8.6347 16.0999C8.85094 16.1776 8.96322 16.4159 8.88549 16.6317C8.8256 16.7977 8.66843 16.9079 8.4925 16.907Z" fill="#2F55D4"/>
<path d="M7.96789 18.868C7.94376 18.868 7.91925 18.8659 7.89551 18.8618L7.4859 18.7894C7.25968 18.7495 7.1087 18.5337 7.14861 18.3074C7.18852 18.0812 7.40393 17.9302 7.6302 17.9701L8.03982 18.0425C8.26604 18.082 8.41741 18.2978 8.3775 18.5241C8.343 18.7229 8.16999 18.868 7.96789 18.868Z" fill="#2F55D4"/>
<path d="M7.55719 22.9839C7.32765 22.9839 7.14133 22.7976 7.14172 22.5676C7.14172 22.3655 7.28686 22.1929 7.48564 22.1584L7.89526 22.086C8.12148 22.0461 8.33733 22.197 8.37724 22.4237C8.41716 22.6503 8.26622 22.8657 8.03956 22.9057L7.62995 22.978C7.60587 22.9818 7.58175 22.9839 7.55719 22.9839Z" fill="#2F55D4"/>
<path d="M8.10202 25.0142C7.87248 25.0142 7.68617 24.8284 7.68573 24.5988C7.68573 24.4237 7.79509 24.2673 7.95976 24.2074L8.35066 24.0652C8.56651 23.9866 8.80521 24.0981 8.88382 24.3139C8.96243 24.5298 8.85097 24.7685 8.63474 24.8471L8.24423 24.9889C8.19851 25.0055 8.15071 25.0142 8.10202 25.0142Z" fill="#2F55D4"/>
<path d="M10.1962 28.6404C9.96665 28.6404 9.78033 28.4541 9.78033 28.2245C9.78033 28.1014 9.83482 27.985 9.92878 27.9059L10.2474 27.6385C10.4204 27.4872 10.6828 27.5046 10.8342 27.6776C10.9855 27.8506 10.9681 28.113 10.7951 28.2644C10.7909 28.2682 10.7864 28.2719 10.7818 28.2756L10.4632 28.5431C10.3883 28.6059 10.2939 28.6404 10.1962 28.6404Z" fill="#2F55D4"/>
<path d="M11.6824 30.1282C11.4528 30.1282 11.2665 29.9419 11.2669 29.7119C11.2669 29.6142 11.3014 29.5202 11.3638 29.4453L11.6312 29.1267C11.7751 28.9479 12.0367 28.9192 12.2159 29.0631C12.3947 29.207 12.4234 29.4686 12.2796 29.6478C12.2758 29.6524 12.2721 29.657 12.2684 29.6611L12.0009 29.9797C11.9219 30.0737 11.8055 30.1282 11.6824 30.1282Z" fill="#2F55D4"/>
<path d="M15.3098 32.2225C15.0803 32.2225 14.894 32.0366 14.894 31.8066C14.894 31.758 14.9023 31.7097 14.9189 31.6644L15.0608 31.2739C15.1394 31.058 15.3776 30.9466 15.5935 31.0252C15.8093 31.1038 15.9208 31.3421 15.8422 31.5579L15.7 31.9488C15.6404 32.1131 15.4845 32.2225 15.3098 32.2225Z" fill="#2F55D4"/>
<path d="M17.3411 32.7674C17.3169 32.7674 17.2924 32.7653 17.2687 32.7607C17.0425 32.7212 16.8911 32.5054 16.931 32.2791L17.0034 31.8695C17.0433 31.6433 17.2591 31.4923 17.4854 31.5318C17.7116 31.5717 17.8626 31.7876 17.8227 32.0138L17.7503 32.4234C17.7153 32.6222 17.5427 32.7674 17.3411 32.7674Z" fill="#2F55D4"/>
<path d="M21.528 32.7674C21.3263 32.7674 21.1538 32.6223 21.1188 32.4235L21.0464 32.0139C21.0065 31.7877 21.1575 31.5718 21.3841 31.5319C21.6108 31.492 21.8262 31.6429 21.8661 31.8696L21.9385 32.2792C21.9784 32.5054 21.827 32.7208 21.6008 32.7608C21.5767 32.7654 21.5522 32.7674 21.528 32.7674Z" fill="#2F55D4"/>
<path d="M23.5594 32.2225C23.3847 32.2225 23.2288 32.1131 23.1689 31.9488L23.0267 31.5579C22.9481 31.3421 23.0595 31.1034 23.2757 31.0252C23.4916 30.9466 23.7303 31.058 23.8085 31.2739L23.9503 31.6644C24.0289 31.8802 23.9174 32.1189 23.7016 32.1976C23.6563 32.2142 23.608 32.2225 23.5594 32.2225Z" fill="#2F55D4"/>
<path d="M27.1869 30.1283C27.0638 30.1287 26.947 30.0742 26.8684 29.9798L26.6009 29.6613C26.4496 29.4883 26.467 29.2259 26.64 29.0745C26.813 28.9231 27.0754 28.9405 27.2268 29.1135C27.2306 29.1177 27.2343 29.1223 27.2381 29.1268L27.5055 29.4454C27.6531 29.6213 27.6298 29.8837 27.4535 30.0313C27.3787 30.0938 27.2846 30.1283 27.1869 30.1283Z" fill="#2F55D4"/>
<path d="M28.6732 28.6403C28.5755 28.6403 28.4811 28.6058 28.4062 28.5429L28.0877 28.2755C27.9089 28.1316 27.8802 27.8701 28.024 27.6908C28.1679 27.512 28.4295 27.4833 28.6087 27.6272C28.6133 27.6309 28.6179 27.6347 28.622 27.6384L28.9406 27.9058C29.1166 28.0534 29.1394 28.3158 28.9918 28.4917C28.9127 28.5858 28.7963 28.6403 28.6732 28.6403Z" fill="#2F55D4"/>
<path d="M30.7675 25.014C30.7189 25.014 30.6711 25.0053 30.6253 24.9887L30.2348 24.8468C30.019 24.7682 29.9075 24.53 29.9861 24.3141C30.0647 24.0983 30.303 23.9868 30.5189 24.065L30.9098 24.2072C31.1256 24.2854 31.2371 24.5241 31.1588 24.74C31.099 24.9047 30.9426 25.014 30.7675 25.014Z" fill="#2F55D4"/>
<path d="M31.3122 22.9832C31.2877 22.9832 31.2635 22.9811 31.2394 22.9769L30.8298 22.9046C30.6036 22.8647 30.4526 22.6493 30.4921 22.4226C30.5316 22.1959 30.7474 22.0454 30.9741 22.0849L31.3837 22.1573C31.6099 22.1968 31.7613 22.4126 31.7214 22.6389C31.6869 22.8381 31.5143 22.9832 31.3122 22.9832Z" fill="#2F55D4"/>
<path d="M30.9017 18.868C30.6722 18.868 30.4858 18.6821 30.4858 18.4521C30.4858 18.25 30.631 18.077 30.8298 18.0425L31.2394 17.9701C31.4656 17.9302 31.6814 18.0812 31.7214 18.3074C31.7613 18.5337 31.6099 18.7495 31.3837 18.7894L30.9741 18.8618C30.9504 18.8659 30.9258 18.868 30.9017 18.868Z" fill="#2F55D4"/>
<path d="M30.3769 16.9071C30.1473 16.9079 29.9602 16.7225 29.9594 16.4929C29.9585 16.317 30.0687 16.1598 30.2347 16.0999L30.6252 15.9581C30.8394 15.8754 31.0801 15.9818 31.1629 16.1964C31.2457 16.411 31.1392 16.6514 30.9246 16.7342C30.9196 16.7363 30.9146 16.7379 30.9096 16.7396L30.5187 16.8818C30.4734 16.8984 30.4251 16.9071 30.3769 16.9071Z" fill="#2F55D4"/>
<path d="M28.3555 13.4042C28.1259 13.4042 27.9396 13.2179 27.9396 12.9883C27.9396 12.8652 27.9941 12.7488 28.0881 12.6698L28.4067 12.4024C28.5855 12.2584 28.8475 12.2871 28.9914 12.466C29.1311 12.6398 29.1086 12.8927 28.941 13.0395L28.6225 13.3069C28.5476 13.3697 28.4532 13.4042 28.3555 13.4042Z" fill="#2F55D4"/>
<path d="M26.92 11.9701C26.6905 11.9701 26.5042 11.7838 26.5042 11.5543C26.5042 11.4565 26.5387 11.3617 26.6015 11.2869L26.8689 10.9683C27.0202 10.7953 27.2827 10.7778 27.4557 10.9292C27.6233 11.076 27.6458 11.3289 27.506 11.5027L27.2386 11.8212C27.1595 11.9156 27.0431 11.9701 26.92 11.9701Z" fill="#2F55D4"/>
<path d="M23.4178 9.94737C23.1883 9.94737 23.002 9.7615 23.002 9.53152C23.002 9.48289 23.0103 9.43464 23.0269 9.38932L23.1691 8.99842C23.2435 8.78091 23.4797 8.66532 23.6972 8.73973C23.9148 8.81415 24.0303 9.05037 23.9559 9.26787C23.9543 9.27284 23.9522 9.27786 23.9505 9.28283L23.8087 9.67334C23.7492 9.83801 23.5929 9.94737 23.4178 9.94737Z" fill="#2F55D4"/>
<path d="M21.4565 9.42171C21.4324 9.42171 21.4078 9.41961 21.3841 9.41547C21.1579 9.37595 21.0065 9.16015 21.0464 8.93388L21.1188 8.52426C21.1587 8.29804 21.3741 8.14706 21.6008 8.18658C21.8274 8.22611 21.978 8.4419 21.9385 8.66857L21.8661 9.07818C21.8308 9.27658 21.6581 9.42171 21.4565 9.42171Z" fill="#2F55D4"/>
<path d="M14.2366 11.8852C14.0877 11.8852 13.9505 11.8062 13.876 11.6773L13.0443 10.2368C12.9307 10.0371 13.0006 9.78304 13.2002 9.66953C13.3982 9.55725 13.6494 9.6246 13.7646 9.8209L14.5963 11.2614C14.7111 11.4602 14.6429 11.7147 14.4441 11.8295C14.3809 11.8661 14.3094 11.8852 14.2366 11.8852Z" fill="#2F55D4"/>
<path d="M10.4307 15.6916C10.3575 15.6916 10.2859 15.6724 10.2227 15.6359L8.78218 14.8041C8.58422 14.6881 8.5177 14.4332 8.63374 14.2352C8.74895 14.0389 9.00012 13.9716 9.19808 14.0838L10.6386 14.9156C10.8374 15.0304 10.9056 15.2849 10.7908 15.4837C10.7164 15.6122 10.5792 15.6916 10.4307 15.6916Z" fill="#2F55D4"/>
<path d="M8.99092 26.9189C8.76139 26.9189 8.57507 26.7326 8.57507 26.5031C8.57507 26.3546 8.65451 26.2174 8.78302 26.1429L10.2236 25.3112C10.4215 25.1952 10.6765 25.2613 10.7925 25.4596C10.9085 25.6576 10.8424 25.9125 10.644 26.0286C10.6424 26.0294 10.6407 26.0307 10.6391 26.0315L9.19853 26.8632C9.13562 26.8998 9.06412 26.9189 8.99092 26.9189Z" fill="#2F55D4"/>
<path d="M13.4048 31.333C13.1753 31.3325 12.989 31.1463 12.9894 30.9167C12.9894 30.8439 13.0085 30.7724 13.0451 30.7092L13.8768 29.2686C13.9904 29.069 14.2441 28.9991 14.4441 29.1127C14.6441 29.2262 14.7136 29.4799 14.6 29.6799C14.5992 29.6815 14.5984 29.6832 14.5971 29.6845L13.7653 31.125C13.691 31.254 13.5537 31.333 13.4048 31.333Z" fill="#2F55D4"/>
<path d="M25.4647 31.3345C25.3159 31.3345 25.1786 31.2555 25.1042 31.1265L24.2724 29.686C24.1589 29.4864 24.2288 29.2323 24.4284 29.1188C24.6264 29.0065 24.8775 29.0738 24.9927 29.2701L25.8245 30.7107C25.9393 30.9095 25.8711 31.1639 25.6723 31.2788C25.609 31.3154 25.5375 31.3345 25.4647 31.3345Z" fill="#2F55D4"/>
<path d="M29.8793 26.9193C29.8061 26.9193 29.7345 26.9001 29.6713 26.8635L28.2308 26.0318C28.0328 25.9158 27.9663 25.6608 28.0823 25.4629C28.1976 25.2666 28.4487 25.1992 28.6467 25.3115L30.0872 26.1433C30.286 26.258 30.3542 26.5126 30.2394 26.7114C30.165 26.8398 30.0278 26.9193 29.8793 26.9193Z" fill="#2F55D4"/>
<path d="M28.4386 15.6906C28.209 15.6906 28.0227 15.5043 28.0227 15.2748C28.0227 15.1263 28.1021 14.9891 28.2307 14.9146L29.6712 14.0829C29.8708 13.9693 30.1249 14.0392 30.2384 14.2388C30.3507 14.4368 30.2834 14.688 30.0871 14.8032L28.6465 15.6349C28.5833 15.6715 28.5118 15.6906 28.4386 15.6906Z" fill="#2F55D4"/>
<path d="M24.6335 11.8851C24.4039 11.8847 24.2176 11.6984 24.218 11.4688C24.218 11.3961 24.2372 11.3245 24.2737 11.2613L25.1055 9.82076C25.2215 9.6228 25.4764 9.55627 25.6744 9.67231C25.8707 9.78752 25.9381 10.0387 25.8258 10.2367L24.994 11.6772C24.9196 11.8061 24.7824 11.8851 24.6335 11.8851Z" fill="#2F55D4"/>
<path d="M9.87004 20.8912H7.37484C7.1453 20.8912 6.95898 20.7048 6.95898 20.4753C6.95898 20.2458 7.1453 20.0594 7.37484 20.0594H9.87004C10.0996 20.0594 10.2859 20.2458 10.2859 20.4753C10.2859 20.7048 10.0996 20.8912 9.87004 20.8912Z" fill="#7FF48B"/>
<path d="M19.4349 32.9522C19.2054 32.9522 19.019 32.7658 19.019 32.5363V30.0411C19.019 29.8116 19.2054 29.6252 19.4349 29.6252C19.6644 29.6252 19.8507 29.8116 19.8507 30.0411V32.5363C19.8507 32.7658 19.6644 32.9522 19.4349 32.9522Z" fill="#7FF48B"/>
<path d="M31.4955 20.8924H28.5844C28.3549 20.8924 28.1686 20.7061 28.1686 20.4765C28.1686 20.247 28.3549 20.0607 28.5844 20.0607H31.4955C31.725 20.0607 31.9113 20.247 31.9113 20.4765C31.9113 20.7061 31.725 20.8924 31.4955 20.8924Z" fill="#7FF48B"/>
<path d="M27.0755 12.8367C26.8659 12.6241 26.5252 12.6241 26.3156 12.8367L20.5192 18.7176C20.1924 18.5278 19.821 18.4302 19.4443 18.4346C19.0896 18.4428 18.7423 18.5409 18.4344 18.7192L15.6767 15.9213C15.4671 15.7076 15.1258 15.707 14.9151 15.9197C14.7045 16.1323 14.7039 16.4786 14.9135 16.6923L17.6491 19.4678C17.0171 20.4897 17.3208 21.8376 18.328 22.4795C19.3351 23.1207 20.6637 22.8126 21.2963 21.7907C21.7354 21.0808 21.7354 20.1784 21.2963 19.4684L27.0755 13.6083C27.2851 13.3951 27.2851 13.0494 27.0755 12.8367ZM18.7295 21.3982C18.3033 20.9789 18.2931 20.2886 18.7069 19.8562C18.9053 19.6489 19.1767 19.5301 19.461 19.5252C19.7469 19.517 20.0231 19.6282 20.2258 19.8327C20.6605 20.2433 20.6847 20.9331 20.28 21.3742C19.8754 21.8154 19.1955 21.8399 18.7607 21.4293C18.7504 21.4189 18.7397 21.4086 18.7295 21.3982Z" fill="#0EE624"/>
<path d="M31.0114 19.9911C30.2121 20.5145 29.9885 21.5869 30.512 22.3862L29.7477 21.2193C29.2243 20.4199 28.1519 20.1963 27.3526 20.7198C26.5533 21.2433 26.3297 22.3156 26.8531 23.1149L26.4703 22.5304C25.9469 21.7311 24.8745 21.5074 24.0752 22.0309C23.2759 22.5544 23.0523 23.6267 23.5757 24.426L20.3744 19.5378C19.851 18.7385 18.7786 18.5149 17.9793 19.0384C17.18 19.5619 16.9564 20.6342 17.4799 21.4335L24.2707 31.8027C24.3959 31.9939 24.221 32.2391 23.9995 32.1832L20.0324 31.1808C19.1065 30.9469 18.1894 31.5204 17.9945 32.4553C17.8053 33.3629 18.3517 34.3947 19.2088 34.7482L26.4554 37.7364C27.6717 38.238 29.0335 38.2566 30.263 37.7886C30.3502 37.7315 30.4672 37.7559 30.5243 37.8431L32.1237 40.2852C32.2306 40.4485 32.4497 40.4942 32.613 40.3873L41.0653 34.8519C41.2286 34.7449 41.2742 34.5259 41.1673 34.3626L39.7671 32.2246C39.6621 32.0643 39.5882 31.8858 39.549 31.6983L39.4739 31.3391C39.1645 29.8586 38.5899 28.447 37.7792 27.1712L36.7996 25.6716L33.4065 20.4905C32.8831 19.6912 31.8107 19.4676 31.0114 19.9911V19.9911Z" fill="#FFE8CA"/>
<path d="M31.0114 19.9911C30.2121 20.5145 29.9885 21.5869 30.512 22.3862L29.7477 21.2193C29.2243 20.4199 28.1519 20.1963 27.3526 20.7198C26.5533 21.2433 26.3297 22.3156 26.8531 23.1149L26.4703 22.5304C25.9469 21.7311 24.8745 21.5074 24.0752 22.0309C23.2759 22.5544 23.0523 23.6267 23.5757 24.426L20.3744 19.5378C19.851 18.7385 18.7786 18.5149 17.9793 19.0384C17.18 19.5619 16.9564 20.6342 17.4799 21.4335L24.2707 31.8027C24.3959 31.9939 24.221 32.2391 23.9995 32.1832L20.0324 31.1808C19.1065 30.9469 18.1894 31.5204 17.9945 32.4553C17.8053 33.3629 18.3517 34.3947 19.2088 34.7482L26.4554 37.7364C27.6717 38.238 29.0335 38.2566 30.263 37.7886C30.3502 37.7315 30.4672 37.7559 30.5243 37.8431L32.1237 40.2852C32.2306 40.4485 32.4497 40.4942 32.613 40.3873L41.0653 34.8519C41.2286 34.7449 41.2742 34.5259 41.1673 34.3626L39.7671 32.2246C39.6621 32.0643 39.5882 31.8858 39.549 31.6983L39.4739 31.3391C39.1645 29.8586 38.5899 28.447 37.7792 27.1712L36.7996 25.6716L33.4065 20.4905C32.8831 19.6912 31.8107 19.4676 31.0114 19.9911V19.9911Z" fill="#FFE8CA"/>
<path d="M24.2622 31.791C24.836 31.4152 24.9966 30.6454 24.6208 30.0716L18.4737 20.6852C18.1883 20.2495 18.0921 19.7497 18.1671 19.2925C18.1908 19.1492 18.2313 19.0102 18.288 18.8788C18.1819 18.921 18.0785 18.9745 17.9793 19.0395C17.5798 19.3011 17.3241 19.7003 17.2334 20.1336C17.1429 20.5673 17.2179 21.0347 17.4798 21.4346L24.2622 31.791Z" fill="#FACD91"/>
<path d="M31.7462 21.7552C31.3222 21.1078 31.3883 20.2803 31.8541 19.7114C31.5632 19.7289 31.2731 19.8203 31.012 19.9913C30.2126 20.5148 29.989 21.587 30.5122 22.3859L31.0593 23.2213C31.0801 23.253 31.1225 23.2618 31.1541 23.2411L31.4809 23.027C31.9054 22.7491 32.0241 22.1796 31.7462 21.7552V21.7552Z" fill="#FACD91"/>
<path d="M27.9611 20.4668C27.7572 20.5068 27.5598 20.5838 27.3742 20.7011C26.556 21.2176 26.3048 22.3166 26.8698 23.1421L28.3331 25.3764C28.9344 24.9827 29.1026 24.176 28.7088 23.5747L27.9388 22.399C27.5414 21.7922 27.5724 21.0286 27.9611 20.4668V20.4668Z" fill="#FACD91"/>
<path d="M24.6288 21.7936C24.427 21.8406 24.2313 21.9244 24.0494 22.0481C23.2637 22.5821 23.0618 23.6424 23.5958 24.4578L25.392 27.2004C25.942 26.8402 26.0958 26.1023 25.7356 25.5523L24.5711 23.7741C24.1622 23.1498 24.2078 22.3594 24.6288 21.7936Z" fill="#FACD91"/>
<path d="M31.3408 37.0338C31.0478 36.5864 30.5263 36.3424 29.9954 36.4075C29.078 36.52 27.6448 36.6214 26.8593 36.2977L19.4485 33.242C19.0967 33.0966 18.8127 32.8532 18.6174 32.555C18.4723 32.3333 18.3443 32.0329 18.3055 31.7689C18.1558 31.963 18.0462 32.1941 17.9921 32.4532C17.8028 33.3608 18.3493 34.3926 19.2064 34.7461L26.453 37.7343C27.6693 38.2359 29.0311 38.2545 30.2606 37.7865C30.3478 37.7294 30.4648 37.7538 30.5219 37.841L32.1213 40.2831C32.2282 40.4464 32.4473 40.4921 32.6106 40.3852L33.2579 39.9612L31.3408 37.0338Z" fill="#FACD91"/>
<path d="M42.9468 34.2883L43.5363 35.1779C43.9322 35.7754 42.9839 36.4859 42.3864 36.8819L33.9389 42.5329C33.3414 42.9289 32.3283 43.4652 31.9323 42.8677L31.0121 41.4791C30.6161 40.8816 30.7795 40.0762 31.377 39.6803L41.2631 33.1289C41.8605 32.7329 42.5508 33.6908 42.9468 34.2883Z" fill="#C6D8FB"/>
<path d="M42.0614 35.1167C42.1934 35.3159 42.139 35.5843 41.9398 35.7163L31.6931 42.5067L31.9321 42.8673C32.328 43.4648 33.1334 43.6282 33.7309 43.2323L43.617 36.6809C44.2145 36.2849 44.3779 35.4795 43.9819 34.882L43.0617 33.4934C42.6657 32.8959 41.8603 32.7325 41.2628 33.1285L40.9022 33.3674L42.0614 35.1167Z" fill="#2F55D4"/>
<defs>
<radialGradient id="paint0_radial" cx="0" cy="0" r="1" gradientUnits="userSpaceOnUse" gradientTransform="translate(7.18391 44.8276) rotate(-38.1402) scale(54.4387)">
<stop stop-color="white"/>
<stop offset="1" stop-color="white"/>
</radialGradient>
</defs>
</svg>
