<svg width="50" height="50" viewBox="0 0 50 50" fill="none" xmlns="http://www.w3.org/2000/svg">
<circle cx="25" cy="25" r="25" fill="url(#paint0_radial)"/>
<path d="M22.8726 19.3311C26.2777 19.3311 29.0381 16.5707 29.0381 13.1655C29.0381 9.7604 26.2777 7 22.8726 7C19.4674 7 16.707 9.7604 16.707 13.1655C16.707 16.5707 19.4674 19.3311 22.8726 19.3311Z" fill="#7FF48B"/>
<path d="M34.164 20.3945C33.1606 20.3945 32.3471 21.2079 32.3471 22.2113V20.7464C32.3471 19.743 31.5337 18.9296 30.5303 18.9296C29.5269 18.9296 28.7135 19.743 28.7135 20.7464V20.0126C28.7135 19.0092 27.9001 18.1958 26.8967 18.1958C25.8933 18.1958 25.0799 19.0092 25.0799 20.0126V13.8764C25.0799 12.873 24.2665 12.0596 23.2631 12.0596C22.2597 12.0596 21.4463 12.873 21.4463 13.8764V26.893C21.4463 27.133 21.1516 27.2479 20.9892 27.0712L18.0807 23.9082C17.4019 23.17 16.2662 23.1462 15.5571 23.8554C14.8686 24.5438 14.755 25.7648 15.3047 26.5684L19.9517 33.3629C20.7316 34.5033 21.9173 35.3032 23.2667 35.5994C23.3762 35.5994 23.465 35.6882 23.465 35.7976V38.8633C23.465 39.0683 23.6311 39.2345 23.8361 39.2345H34.4464C34.6514 39.2345 34.8175 39.0683 34.8175 38.8633V36.1795C34.8175 35.9783 34.8553 35.7789 34.9287 35.5916L35.0694 35.2328C35.6494 33.7542 35.9567 32.1834 35.9786 30.5962L35.9807 28.7151V22.2112C35.9808 21.2079 35.1674 20.3945 34.164 20.3945V20.3945Z" fill="#FFE8CA"/>
<path d="M34.164 20.3945C33.1606 20.3945 32.3471 21.2079 32.3471 22.2113V20.7464C32.3471 19.743 31.5337 18.9296 30.5303 18.9296C29.5269 18.9296 28.7135 19.743 28.7135 20.7464V20.0126C28.7135 19.0092 27.9001 18.1958 26.8967 18.1958C25.8933 18.1958 25.0799 19.0092 25.0799 20.0126V13.8764C25.0799 12.873 24.2665 12.0596 23.2631 12.0596C22.2597 12.0596 21.4463 12.873 21.4463 13.8764V26.893C21.4463 27.133 21.1516 27.2479 20.9892 27.0712L18.0807 23.9082C17.4019 23.17 16.2662 23.1462 15.5571 23.8554C14.8686 24.5438 14.755 25.7648 15.3047 26.5684L19.9517 33.3629C20.7316 34.5033 21.9173 35.3032 23.2667 35.5994C23.3762 35.5994 23.465 35.6882 23.465 35.7976V38.8633C23.465 39.0683 23.6311 39.2345 23.8361 39.2345H34.4464C34.6514 39.2345 34.8175 39.0683 34.8175 38.8633V36.1795C34.8175 35.9783 34.8553 35.7789 34.9287 35.5916L35.0694 35.2328C35.6494 33.7542 35.9567 32.1834 35.9786 30.5962L35.9807 28.7151V22.2112C35.9808 21.2079 35.1674 20.3945 34.164 20.3945V20.3945Z" fill="#FFE8CA"/>
<path d="M21.4456 26.877C22.1659 26.877 22.7499 26.293 22.7499 25.5727V13.7899C22.7499 13.2428 22.9529 12.7484 23.2819 12.3899C23.3851 12.2777 23.5006 12.1789 23.6261 12.096C23.5086 12.0721 23.387 12.0596 23.2624 12.0596C22.761 12.0596 22.3066 12.2632 21.9777 12.5916C21.6487 12.9206 21.4456 13.3744 21.4456 13.8764V26.877Z" fill="#FACD91"/>
<path d="M33.7949 22.366C33.7949 21.5533 34.3291 20.8644 35.0656 20.6326C34.8 20.4806 34.4926 20.3939 34.1648 20.3939C33.1614 20.3939 32.348 21.2073 32.348 22.2101V23.2589C32.348 23.2986 32.3802 23.3307 32.4199 23.3307H32.8302C33.363 23.3308 33.7949 22.8988 33.7949 22.366V22.366Z" fill="#FACD91"/>
<path d="M31.2113 19.0582C31.0092 18.9761 30.7914 18.9302 30.5609 18.9264C29.5449 18.9094 28.6919 19.7304 28.7133 20.7807V23.5856C29.4681 23.5856 30.08 22.9737 30.08 22.2189V20.7429C30.08 19.9812 30.5466 19.3283 31.2113 19.0582V19.0582Z" fill="#FACD91"/>
<path d="M27.5204 18.3046C27.3161 18.2297 27.096 18.1908 26.865 18.1947C25.8675 18.2119 25.0801 19.0272 25.0801 20.0508V23.4936C25.7706 23.4936 26.3302 22.9339 26.3302 22.2435V20.0112C26.3302 19.2276 26.825 18.5594 27.5204 18.3046Z" fill="#FACD91"/>
<path d="M13.3728 16.5019C13.1472 16.5019 12.9309 16.4053 12.8277 16.2402C12.1656 15.1816 11.83 14.0467 11.83 12.8672C11.83 11.6876 12.1656 10.5527 12.8277 9.49414C12.9706 9.26551 13.3303 9.16821 13.6313 9.27694C13.9321 9.3856 14.06 9.65902 13.9171 9.88771C13.3325 10.8224 13.0362 11.8249 13.0362 12.8672C13.0362 13.9096 13.3326 14.9121 13.9171 15.8467C14.06 16.0754 13.9321 16.3488 13.6313 16.4575C13.5477 16.4875 13.4595 16.5019 13.3728 16.5019Z" fill="#0EE524"/>
<path d="M30.9897 16.5016C30.903 16.5016 30.8148 16.4873 30.7313 16.4571C30.4305 16.3485 30.3025 16.075 30.4454 15.8464C31.0299 14.9117 31.3263 13.9092 31.3263 12.8669C31.3263 11.8246 31.0299 10.8221 30.4454 9.88738C30.3025 9.65875 30.4304 9.38533 30.7313 9.27666C31.0321 9.168 31.3919 9.26524 31.5348 9.49393C32.1968 10.5526 32.5325 11.6874 32.5325 12.867C32.5325 14.0465 32.1968 15.1813 31.5348 16.24C31.4316 16.405 31.2153 16.5016 30.9897 16.5016Z" fill="#0EE524"/>
<path d="M10.5427 17.9917C10.3172 17.9917 10.1009 17.8645 9.99765 17.6473C9.33563 16.2545 9 14.7613 9 13.2093C9 11.6573 9.33563 10.1641 9.99765 8.77135C10.1406 8.47053 10.5003 8.34252 10.8013 8.48557C11.1021 8.62854 11.23 8.98829 11.087 9.28919C10.5025 10.519 10.2062 11.8379 10.2062 13.2094C10.2062 14.5809 10.5025 15.8999 11.087 17.1297C11.23 17.4305 11.1021 17.7902 10.8013 17.9333C10.7176 17.9728 10.6295 17.9917 10.5427 17.9917Z" fill="#7FF48B"/>
<path d="M33.6607 17.5826C33.5739 17.5826 33.4858 17.5637 33.4023 17.524C33.1014 17.3811 32.9734 17.0213 33.1164 16.7205C33.7009 15.4906 33.9973 14.1716 33.9973 12.8002C33.9973 11.4289 33.7009 10.1099 33.1164 8.88001C32.9734 8.5792 33.1014 8.21944 33.4023 8.07648C33.7031 7.93351 34.0628 8.06144 34.2058 8.36233C34.8678 9.75528 35.2034 11.2484 35.2034 12.8003C35.2034 14.3522 34.8678 15.8454 34.2058 17.2383C34.1025 17.4554 33.8862 17.5826 33.6607 17.5826Z" fill="#7FF48B"/>
<path d="M24.6487 35.5564C24.6487 34.9947 24.331 34.4803 23.8272 34.2321C22.9565 33.8032 21.639 33.0676 21.1352 32.3313L16.3827 25.383C16.1573 25.0529 16.0479 24.6756 16.0479 24.3013C16.0479 24.023 16.1083 23.6855 16.2261 23.4313C15.9829 23.5156 15.7536 23.6556 15.5571 23.8521C14.8686 24.5405 14.755 25.7615 15.3047 26.5651L19.9517 33.3596C20.7316 34.5001 21.9173 35.2999 23.2667 35.5961C23.3762 35.5961 23.465 35.6849 23.465 35.7944V38.86C23.465 39.065 23.6311 39.2312 23.8361 39.2312H24.6487V35.5564Z" fill="#FACD91"/>
<path d="M36.4249 39.8212L36.431 40.9419C36.4351 41.6946 35.1932 41.7732 34.4404 41.7773L23.7678 41.8816C23.0151 41.8857 21.8164 41.774 21.8123 41.0213L21.8028 39.2719C21.7988 38.5191 22.4057 37.9056 23.1584 37.9015L35.6128 37.8339C36.3656 37.8298 36.4208 39.0684 36.4249 39.8212Z" fill="#C6D8FB"/>
<path d="M35.1706 40.0402C35.1719 40.2912 34.9697 40.4957 34.7187 40.497L21.81 40.5671L21.8124 41.0214C21.8165 41.7742 22.4301 42.3811 23.1828 42.377L35.6372 42.3094C36.3899 42.3053 36.9969 41.6917 36.9928 40.939L36.9833 39.1896C36.9792 38.4369 36.3656 37.8299 35.6129 37.834L35.1586 37.8365L35.1706 40.0402Z" fill="#2F55D4"/>
<defs>
<radialGradient id="paint0_radial" cx="0" cy="0" r="1" gradientUnits="userSpaceOnUse" gradientTransform="translate(7.18391 44.8276) rotate(-38.1402) scale(54.4387)">
<stop stop-color="white"/>
<stop offset="1" stop-color="white"/>
</radialGradient>
</defs>
</svg>
