<svg width="50" height="50" viewBox="0 0 50 50" fill="none" xmlns="http://www.w3.org/2000/svg">
<circle cx="25" cy="25" r="25" fill="url(#paint0_radial)"/>
<path d="M33.0411 23.9683L30.0942 24.955L24.4404 13.1093C24.0448 12.2803 24.5263 11.3398 25.5159 11.0084L25.9349 10.868C26.3414 10.7319 26.8027 10.8976 26.9652 11.2381L33.0411 23.9683Z" fill="#FFE8CA"/>
<path d="M27.3372 19.1782C27.3444 19.1812 27.3517 19.1842 27.3589 19.1871C27.3956 19.2021 27.4322 19.217 27.4684 19.2325C27.4723 19.2341 27.4762 19.2359 27.4801 19.2375C29.7124 20.1943 31.0561 22.0946 31.0996 24.104L31.587 23.7914L26.1254 12.3487C25.8756 11.8251 25.9759 11.2572 26.3328 10.8263C26.2024 10.8117 26.0658 10.8239 25.9349 10.8677L25.5159 11.0081C24.5263 11.3395 24.0448 12.28 24.4404 13.1089L27.3372 19.1782Z" fill="#FACD91"/>
<path d="M36.2646 25.4091L33.2019 26.1055L28.8192 12.5821C28.5399 11.7206 29.1474 10.8326 30.1759 10.5987L30.6115 10.4997C31.0339 10.4036 31.4694 10.6126 31.5841 10.9665L36.2646 25.4091Z" fill="#FFE8CA"/>
<path d="M39.0122 26.4261L35.5665 27.1102L33.2788 14.4975C33.1187 13.6149 33.843 12.7908 34.8967 12.6567L35.3429 12.5999C35.7757 12.5448 36.1798 12.7941 36.2456 13.1566L39.0122 26.4261Z" fill="#FFE8CA"/>
<path d="M34.6251 22.1847L31.631 24.105C31.5875 22.0955 30.2438 20.1951 28.0115 19.2385C28.0076 19.2368 28.0037 19.235 27.9998 19.2334C27.9636 19.218 27.927 19.203 27.8903 19.188C27.8743 19.1814 27.8583 19.1748 27.8422 19.1683C27.8135 19.1568 27.7843 19.1457 27.7554 19.1346C27.7316 19.1254 27.708 19.1162 27.6841 19.1072C27.6588 19.0978 27.6332 19.0886 27.6077 19.0795C27.5869 19.072 27.5665 19.0642 27.5456 19.0569C27.5403 19.0551 27.535 19.0535 27.5298 19.0516C27.5221 19.0488 27.5144 19.046 27.5066 19.0433C27.4551 19.0255 27.4047 19.0089 27.3552 18.9933C24.9258 18.212 22.2703 18.7033 20.462 20.0934C19.7347 20.6523 19.9586 21.6581 20.8713 21.9728C21.4988 22.1892 22.4622 22.0938 23.0262 21.7777C23.9663 21.2506 25.1946 21.1144 26.316 21.5069C26.3669 21.5248 26.4174 21.5432 26.4668 21.5628C26.4709 21.5643 26.4748 21.5662 26.4788 21.5678C26.5279 21.5875 26.5762 21.608 26.6238 21.6294C26.6387 21.636 26.6529 21.6433 26.6676 21.6501C26.7034 21.6667 26.7388 21.6835 26.7736 21.701C26.7933 21.711 26.8123 21.7214 26.8316 21.7316C26.86 21.7466 26.8883 21.7616 26.9161 21.7772C26.9392 21.7903 26.9619 21.8038 26.9846 21.8172C27.0068 21.8304 27.029 21.8436 27.0509 21.8572C27.0772 21.8736 27.103 21.8904 27.1287 21.9074C27.1451 21.9182 27.1615 21.9292 27.1776 21.9403C27.2071 21.9605 27.2362 21.9811 27.2648 22.002C27.2751 22.0096 27.2854 22.0173 27.2956 22.025C27.3287 22.0499 27.3614 22.0751 27.3932 22.1009C27.3966 22.1036 27.3998 22.1064 27.4032 22.1092C28.1219 22.6983 28.5097 23.5294 28.4533 24.3737C28.453 24.3784 28.4529 24.3831 28.4525 24.3879C28.45 24.4225 28.4463 24.457 28.4423 24.4916C28.4406 24.5057 28.4391 24.5198 28.4372 24.5338C28.4334 24.5625 28.4287 24.5912 28.4238 24.6199C28.4204 24.6401 28.4168 24.6603 28.4128 24.6805C28.408 24.7049 28.4028 24.7293 28.3972 24.7537C28.3917 24.7782 28.3856 24.8026 28.3792 24.8271C28.3737 24.8483 28.368 24.8696 28.3619 24.8908C28.3539 24.9183 28.3453 24.9457 28.3364 24.9731C28.3302 24.992 28.3242 25.0109 28.3175 25.0297C28.3071 25.0589 28.2958 25.088 28.2844 25.1171C28.2775 25.1347 28.271 25.1523 28.2636 25.1698C28.2533 25.1943 28.2418 25.2186 28.2307 25.243C28.2196 25.2676 28.2087 25.2922 28.1968 25.3163C28.185 25.3405 28.1719 25.3644 28.1593 25.3884C28.1467 25.4122 28.1343 25.4363 28.121 25.4598C28.1116 25.4766 28.1014 25.493 28.0916 25.5095C28.0752 25.5369 28.0589 25.5643 28.0416 25.5911C28.0305 25.6083 28.0189 25.6253 28.0074 25.6424C27.9907 25.6672 27.9738 25.6918 27.9564 25.7159C27.943 25.7345 27.9291 25.753 27.9152 25.7714C27.8992 25.7924 27.883 25.8133 27.8664 25.834C27.8499 25.8546 27.8331 25.8751 27.8159 25.8953C27.8018 25.9119 27.7874 25.9284 27.7729 25.9447C27.7523 25.968 27.7314 25.9911 27.71 26.0137C27.6995 26.0249 27.6888 26.0357 27.6781 26.0467C27.6518 26.0736 27.6255 26.1004 27.5982 26.1264C27.5944 26.1299 27.5906 26.1334 27.5868 26.137C26.9171 26.7698 25.9431 27.1313 24.9375 27.1257C24.9329 27.1257 24.9284 27.1257 24.9238 27.1257C24.8794 27.1254 24.835 27.124 24.7905 27.1222C24.7767 27.1216 24.763 27.121 24.7492 27.1203C24.7113 27.1184 24.6733 27.1158 24.6353 27.1128C24.6146 27.1111 24.5939 27.1093 24.5732 27.1073C24.5405 27.1042 24.508 27.1008 24.4754 27.097C24.4485 27.0938 24.4218 27.09 24.395 27.0863C24.3674 27.0825 24.3399 27.0786 24.3125 27.0742C24.2798 27.0689 24.2471 27.063 24.2145 27.0569C24.1921 27.0527 24.1697 27.0488 24.1473 27.0443C24.108 27.0362 24.0689 27.0273 24.0297 27.018C24.0133 27.0142 23.997 27.0108 23.9807 27.0068C23.9293 26.994 23.8781 26.9801 23.827 26.9652C23.8224 26.9639 23.8178 26.9628 23.8133 26.9615C23.7617 26.9463 23.7105 26.9296 23.6594 26.9123C22.5331 26.5297 21.7753 25.7086 21.5508 24.7799C21.4161 24.2228 20.812 23.5868 20.1846 23.3704L20.16 23.3619C19.1346 23.2342 18.2329 23.9512 18.3472 24.8143C18.569 26.4894 19.6932 28.0354 21.4696 28.9519C21.4696 28.9519 25.557 32.6694 27.2084 33.4666L27.2832 33.5402V35.905H38.3228V32.9242V32.3335C38.711 31.9034 39.012 31.0809 39.012 30.5614V26.4264L34.6251 22.1847Z" fill="#FFE8CA"/>
<path d="M29.3231 36.2435V32.7793L29.2483 32.7056C27.5969 31.9085 23.5093 28.191 23.5093 28.191C21.7329 27.2745 20.6089 25.7284 20.3871 24.0533C20.3609 23.8556 20.3886 23.6657 20.4583 23.4917C20.3684 23.4433 20.2768 23.4014 20.1846 23.3696L20.16 23.3611C19.1346 23.2334 18.2329 23.9504 18.3472 24.8135C18.569 26.4886 19.6932 28.0346 21.4696 28.9511C21.4696 28.9511 25.557 32.6686 27.2084 33.4658L27.2832 33.5394V35.9633L38.1417 36.2435H29.3231Z" fill="#FACD91"/>
<path d="M39.4142 37.7147L39.4033 38.7884C39.3959 39.5095 38.205 39.5662 37.4839 39.5589L27.2582 39.4992C26.5371 39.4919 25.3905 39.367 25.3978 38.6458L25.4149 36.9698C25.4222 36.2486 26.0128 35.67 26.734 35.6773L38.666 35.7987C39.3871 35.8061 39.4215 36.9935 39.4142 37.7147Z" fill="#C6D8FB"/>
<path d="M38.214 37.9053C38.2116 38.1457 38.0147 38.3386 37.7743 38.3361L25.4071 38.2103L25.4026 38.6455C25.3953 39.3667 25.974 39.9572 26.6951 39.9646L38.6271 40.086C39.3483 40.0934 39.9389 39.5147 39.9462 38.7935L39.9632 37.1175C39.9706 36.3964 39.3919 35.8058 38.6708 35.7984L38.2355 35.794L38.214 37.9053Z" fill="#2F55D4"/>
<path d="M16.1198 26.5851C16.3055 26.7369 16.4603 26.9315 16.5638 27.1599C16.8871 27.8747 16.5825 28.6463 15.8832 28.8835L10.5353 30.6962C9.83595 30.9331 9.00681 30.5459 8.68325 29.8311C8.35995 29.1163 8.66459 28.3446 9.36392 28.1075L14.7118 26.2947C15.1876 26.1334 15.7239 26.2614 16.1198 26.5851Z" fill="#7FF48B"/>
<path fill-rule="evenodd" clip-rule="evenodd" d="M16.5638 27.1599C16.4603 26.9315 16.3055 26.7369 16.1198 26.5851C15.7239 26.2614 15.1876 26.1334 14.7118 26.2947L9.36392 28.1075C8.66459 28.3446 8.35995 29.1163 8.68325 29.8311L16.5638 27.1599Z" fill="#0EE524"/>
<path d="M15.8659 20.8035C15.8947 21.0416 15.8716 21.2892 15.7882 21.5256C15.5264 22.2652 14.7723 22.611 14.1036 22.2978L8.99008 19.9025C8.32148 19.5891 7.99144 18.7356 8.25298 17.9958C8.51471 17.2562 9.26882 16.9105 9.93757 17.2237L15.0511 19.619C15.506 19.8321 15.8043 20.2958 15.8659 20.8035Z" fill="#7FF48B"/>
<path fill-rule="evenodd" clip-rule="evenodd" d="M15.7882 21.5256C15.8716 21.2892 15.8947 21.0416 15.8659 20.8035C15.8043 20.2958 15.506 19.8321 15.0511 19.619L9.93757 17.2237C9.26882 16.9105 8.51471 17.2562 8.25298 17.9958L15.7882 21.5256Z" fill="#0EE524"/>
<path d="M20.7301 17.1887C20.5738 17.3706 20.3754 17.5205 20.1445 17.6184C19.422 17.924 18.6581 17.6004 18.4382 16.8955L16.7577 11.5046C16.5381 10.7996 16.9457 9.98025 17.6682 9.6744C18.3908 9.3688 19.1547 9.69235 19.3745 10.3973L21.0551 15.7882C21.2046 16.2678 21.0634 16.8008 20.7301 17.1887Z" fill="#7FF48B"/>
<path fill-rule="evenodd" clip-rule="evenodd" d="M20.1445 17.6184C20.3754 17.5205 20.5738 17.3706 20.7301 17.1887C21.0634 16.8008 21.2046 16.2678 21.0551 15.7882L19.3745 10.3973C19.1547 9.69235 18.3908 9.3688 17.6682 9.6744L20.1445 17.6184Z" fill="#0EE524"/>
<defs>
<radialGradient id="paint0_radial" cx="0" cy="0" r="1" gradientUnits="userSpaceOnUse" gradientTransform="translate(7.18391 44.8276) rotate(-38.1402) scale(54.4387)">
<stop stop-color="white"/>
<stop offset="1" stop-color="white"/>
</radialGradient>
</defs>
</svg>
