<svg width="50" height="50" viewBox="0 0 50 50" fill="none" xmlns="http://www.w3.org/2000/svg">
<circle cx="25" cy="25" r="25" fill="url(#paint0_radial)"/>
<path d="M18.1073 21.2337V19.6985C18.1073 19.5665 18.1471 19.4376 18.2216 19.3285L20.4008 16.1394C20.9467 15.3406 20.7416 14.2505 19.9427 13.7047C19.1439 13.1588 18.0538 13.3639 17.5079 14.1627L15.0735 17.7254C14.7674 18.1734 14.6036 18.7034 14.6036 19.246V24.166V28.316L18.41 25.7304L18.1073 21.2337Z" fill="#FFE8CA"/>
<path d="M22.5825 26.3288L23.5841 21.2185L19.6633 24.5037L19.6662 24.5219C20.0793 24.4577 20.514 24.569 20.8522 24.8567L22.5825 26.3288ZM24.8758 18.5144L24.9189 18.4962C25.1164 18.3498 25.3332 18.2272 25.5641 18.1325C25.7951 18.0377 26.0402 17.9713 26.2956 17.9361C27.1883 17.8135 27.9646 18.5496 27.8903 19.4474L27.4805 24.3999C27.4629 24.6172 27.5032 24.8346 27.598 25.0309L28.3562 26.5983C29.3635 28.6816 29.3975 31.1036 28.4498 33.2147L26.1254 38.3908V40.9945C26.1254 41.3393 25.8454 41.6185 25.5007 41.6176L16.2249 41.5931C15.8815 41.5922 15.6035 41.3135 15.6035 40.97V38.8363L13.7552 36.513C12.9698 35.5261 12.4976 34.3275 12.3989 33.0706L12.0102 28.1317C11.9267 27.0744 12.3609 26.0416 13.1747 25.3606L22.1387 17.8584C22.4668 17.5831 22.8663 17.4492 23.2635 17.4492C23.7635 17.4492 24.2606 17.662 24.6068 18.0757C24.7203 18.2114 24.8099 18.3595 24.8758 18.5144Z" fill="#FFE8CA"/>
<path d="M25.8973 18.0202C25.7835 18.0518 25.6719 18.09 25.5639 18.1344C25.3329 18.2291 25.1161 18.3517 24.9186 18.4981L24.8755 18.5163C24.8097 18.3614 24.72 18.2132 24.6065 18.0776C24.5192 17.9733 24.4224 17.8819 24.3183 17.8033L23.5342 21.2621L23.5839 21.2204L23.2367 22.9921L25.1185 21.4153C26.1294 20.5677 26.4121 19.1684 25.8973 18.0202Z" fill="#FACD91"/>
<path d="M16.1883 24.3082L18.2225 22.9427L18.1073 21.2323V20.1225L16.7982 21.2181C16.5192 21.4516 16.0944 21.2532 16.0944 20.8893V19.6069C16.0944 19.0642 16.2582 18.5343 16.5643 18.0863L18.9987 14.5236C19.2614 14.1391 19.6502 13.8927 20.0719 13.8008C20.0306 13.7667 19.9878 13.734 19.9427 13.7032C19.1439 13.1573 18.0538 13.3624 17.5079 14.1613L15.0735 17.724C14.7674 18.172 14.6036 18.7019 14.6036 19.2446V24.1646V24.3081H16.1883V24.3082Z" fill="#FACD91"/>
<path d="M24.607 18.0757C25.2284 18.8174 25.1308 19.9223 24.3896 20.5437L19.6636 24.5037L19.6664 24.5219C19.398 24.5627 19.1386 24.6785 18.9213 24.868L16.6405 26.8531L12.1801 26.8049C12.3719 26.2499 12.7118 25.7482 13.1749 25.3606L22.139 17.8584C22.467 17.5831 22.8665 17.4492 23.2637 17.4492C23.7637 17.4492 24.2608 17.662 24.607 18.0757Z" fill="#FFE8CA"/>
<path d="M18.6441 41.593C18.3006 41.5921 18.0227 41.3134 18.0227 40.97V39.7988C18.0227 39.1756 17.8114 38.5706 17.4233 38.0829L16.1744 36.5129C15.3889 35.526 14.9168 34.3275 14.818 33.0705L14.4293 28.1316C14.3459 27.0744 14.78 26.0415 15.5938 25.3606L24.4711 17.931C24.1371 17.6125 23.7014 17.4492 23.2635 17.4492C22.8663 17.4492 22.4668 17.5831 22.1387 17.8584L13.1747 25.3606C12.3609 26.0416 11.9267 27.0744 12.0102 28.1317L12.3989 33.0706C12.4976 34.3275 12.9698 35.5261 13.7552 36.513L15.6035 38.8363V40.97C15.6035 41.3135 15.8815 41.5922 16.2249 41.5931H18.6441V41.593Z" fill="#FACD91"/>
<path d="M25.15 30.8131C25.5501 30.3426 25.7704 29.7438 25.7704 29.1272C25.7704 28.3618 25.4362 27.6388 24.8538 27.1441L22.7706 25.3721L22.5828 26.3301L20.8526 24.858C20.6147 24.6557 20.329 24.541 20.0367 24.5128V31.7961C20.0367 32.9989 20.5647 34.1412 21.4809 34.9205C21.951 35.3204 22.5496 35.5406 23.1663 35.5406C23.9318 35.5406 24.6549 35.2063 25.15 34.6238C25.5501 34.1532 25.7704 33.5547 25.7704 32.9385C25.7704 32.2118 25.4685 31.5234 24.939 31.0314C25.0129 30.9626 25.0841 30.8906 25.15 30.8131Z" fill="#FACD91"/>
<path d="M24.9197 29.1255C24.9197 29.5268 24.7823 29.9302 24.502 30.26C24.2211 30.5902 23.8443 30.7906 23.447 30.8547L23.438 30.8655L20.853 28.667C20.2952 28.1926 19.474 28.1971 18.9219 28.6784L16.6411 30.6634V26.8527L18.9219 24.8677C19.1392 24.6781 19.3986 24.5623 19.667 24.5215C20.0801 24.4574 20.5148 24.5686 20.853 24.8563L22.5833 26.3284L24.3028 27.7908C24.7103 28.137 24.9197 28.6296 24.9197 29.1255Z" fill="#FFE8CA"/>
<path d="M24.4875 30.2744C24.3882 30.0953 24.256 29.9304 24.0907 29.79L22.3712 28.3275L20.6409 26.8555C20.3027 26.5677 19.868 26.4565 19.4548 26.5206C19.1864 26.5615 18.9271 26.6773 18.7097 26.8668L17.0512 28.3103C16.79 28.5376 16.6401 28.8669 16.6401 29.213V30.6634L18.9209 28.6783C19.4731 28.1971 20.2942 28.1926 20.8521 28.667L23.437 30.8655L23.4461 30.8547C23.8372 30.7916 24.2081 30.5957 24.4875 30.2744Z" fill="#FACD91"/>
<path d="M24.9199 32.9371C24.9199 33.3383 24.7826 33.7412 24.5022 34.0709C23.8757 34.8081 22.7697 34.8972 22.0331 34.2707L19.8976 32.4542L19.2637 33.0881L16.6414 30.6637L18.9221 28.6786C19.4743 28.1974 20.2954 28.1929 20.8533 28.6673L24.3031 31.6018C24.7105 31.9485 24.9199 32.4411 24.9199 32.9371Z" fill="#FFE8CA"/>
<path d="M25.0301 13.9033C24.822 14.0377 24.5815 14.1281 24.3241 14.1575C23.5187 14.2486 22.8567 13.7043 22.8454 12.9415L22.7595 7.1083C22.7485 6.34552 23.3923 5.65314 24.1977 5.56177C25.0031 5.47066 25.6651 6.01498 25.6765 6.7778L25.7623 12.611C25.7699 13.1299 25.474 13.6167 25.0301 13.9033Z" fill="#7FF48B"/>
<path fill-rule="evenodd" clip-rule="evenodd" d="M24.3241 14.1575C24.5815 14.1281 24.822 14.0377 25.0301 13.9033C25.474 13.6167 25.7699 13.1299 25.7623 12.611L25.6765 6.7778C25.6651 6.01498 25.0031 5.47066 24.1977 5.56177L24.3241 14.1575Z" fill="#0EE524"/>
<path d="M30.0606 15.326C29.85 15.1953 29.6655 15.0166 29.5289 14.7965C29.1022 14.1074 29.3111 13.2762 29.9959 12.9398L35.2322 10.368C35.917 10.0319 36.8182 10.3178 37.2451 11.0068C37.6719 11.6959 37.4629 12.5271 36.7782 12.8635L31.5419 15.4353C31.076 15.6641 30.5095 15.6047 30.0606 15.326Z" fill="#7FF48B"/>
<path fill-rule="evenodd" clip-rule="evenodd" d="M29.5289 14.7965C29.6655 15.0166 29.85 15.1953 30.0606 15.326C30.5095 15.6047 31.076 15.6641 31.5419 15.4353L36.7782 12.8635C37.4629 12.5271 37.6719 11.6959 37.2451 11.0068L29.5289 14.7965Z" fill="#0EE524"/>
<path d="M31.0925 22.4683C30.9632 22.2569 30.8788 22.0143 30.8557 21.7562C30.7845 20.9488 31.3449 20.3004 32.1078 20.3079L37.9413 20.3657C38.7041 20.3735 39.3804 21.0341 39.4519 21.8415C39.5232 22.6489 38.9627 23.2974 38.1999 23.2899L32.3664 23.232C31.8474 23.2269 31.3681 22.919 31.0925 22.4683Z" fill="#7FF48B"/>
<path fill-rule="evenodd" clip-rule="evenodd" d="M30.8557 21.7562C30.8788 22.0143 30.9632 22.2569 31.0925 22.4683C31.3681 22.919 31.8474 23.2269 32.3664 23.232L38.1999 23.2899C38.9627 23.2974 39.5232 22.6489 39.4519 21.8415L30.8557 21.7562Z" fill="#0EE524"/>
<path d="M28.0065 42.0639L28.0125 43.1732C28.0165 43.9183 26.7872 43.9961 26.0422 44.0001L15.4781 44.1034C14.7331 44.1075 13.5466 43.9969 13.5426 43.2518L13.5332 41.5202C13.5291 40.7751 14.1298 40.1678 14.8749 40.1638L27.2027 40.0968C27.9477 40.0928 28.0024 41.3188 28.0065 42.0639Z" fill="#C6D8FB"/>
<path d="M26.7652 42.281C26.7666 42.5294 26.5663 42.7318 26.318 42.7331L13.5405 42.8025L13.543 43.2522C13.547 43.9973 14.1543 44.598 14.8994 44.594L27.2271 44.527C27.9722 44.523 28.5729 43.9157 28.5689 43.1706L28.5595 41.439C28.5554 40.6939 27.9481 40.0932 27.2031 40.0972L26.7534 40.0997L26.7652 42.281Z" fill="#2F55D4"/>
<defs>
<radialGradient id="paint0_radial" cx="0" cy="0" r="1" gradientUnits="userSpaceOnUse" gradientTransform="translate(7.18391 44.8276) rotate(-38.1402) scale(54.4387)">
<stop stop-color="white"/>
<stop offset="1" stop-color="white"/>
</radialGradient>
</defs>
</svg>
