<svg width="50" height="50" viewBox="0 0 50 50" fill="none" xmlns="http://www.w3.org/2000/svg">
<circle cx="25" cy="25" r="25" fill="url(#paint0_radial)"/>
<path d="M40.1501 13.3139C40.1581 13.2551 40.1869 13.1998 40.2282 13.1574L41.9175 11.5107C42.0801 11.3522 41.9904 11.0761 41.7657 11.0435L39.4311 10.7042C39.3419 10.6913 39.2647 10.6352 39.2248 10.5544L38.1808 8.43883C38.0804 8.23523 37.79 8.23523 37.6896 8.43883L36.6455 10.5544C36.6056 10.6352 36.5285 10.6912 36.4393 10.7042H36.4392L35.6498 10.8189L34.2988 11.0559C34.0742 11.0884 33.9848 11.3648 34.1473 11.5229L35.7916 13.1352C35.8566 13.1987 35.8862 13.2889 35.8707 13.3783L35.4856 15.429C35.448 15.6529 35.6822 15.8237 35.8832 15.718L37.8108 14.7997C37.8906 14.7575 37.9859 14.7575 38.0657 14.7997L40.0155 15.8626C40.2165 15.9683 40.4515 15.7976 40.4131 15.5736L40.2764 14.1383L40.1498 13.4001C40.1472 13.3714 40.1438 13.3424 40.1501 13.3139Z" fill="#7FF48B"/>
<path d="M40.1501 16.0139L38.0623 14.9157C37.9825 14.8736 37.8872 14.8736 37.8074 14.9157L35.7189 16.0139C35.5179 16.1196 35.2836 15.9489 35.3213 15.725L35.7204 13.4C35.7359 13.3106 35.7063 13.2204 35.6413 13.1569L33.9526 11.5103C33.7901 11.3522 33.8795 11.0758 34.1041 11.0433L35.6494 10.8186C36.2311 12.7408 38.0165 14.1405 40.1287 14.1405C40.1782 14.1405 40.2269 14.1398 40.2757 14.1383L40.5477 15.725C40.5861 15.9489 40.3511 16.1196 40.1501 16.0139Z" fill="#0EE624"/>
<path d="M15.2805 13.3139C15.2886 13.2551 15.3173 13.1998 15.3586 13.1574L17.048 11.5107C17.2105 11.3522 17.1208 11.0761 16.8962 11.0435L14.5615 10.7042C14.4723 10.6913 14.3952 10.6352 14.3553 10.5544L13.3112 8.43883C13.2108 8.23523 12.9205 8.23523 12.82 8.43883L11.7759 10.5544C11.736 10.6352 11.6589 10.6912 11.5697 10.7042H11.5697L10.7802 10.8189L9.42931 11.0559C9.20465 11.0884 9.11523 11.3648 9.27781 11.5229L10.9221 13.1352C10.9871 13.1987 11.0167 13.2889 11.0011 13.3783L10.6161 15.429C10.5784 15.6529 10.8127 15.8237 11.0137 15.718L12.9412 14.7997C13.021 14.7575 13.1164 14.7575 13.1962 14.7997L15.1459 15.8626C15.347 15.9683 15.582 15.7976 15.5435 15.5736L15.4068 14.1383L15.2803 13.4001C15.2778 13.3714 15.2743 13.3424 15.2805 13.3139Z" fill="#7FF48B"/>
<path d="M15.2805 16.0139L13.1928 14.9157C13.113 14.8736 13.0177 14.8736 12.9378 14.9157L10.8494 16.0139C10.6484 16.1196 10.4141 15.9489 10.4518 15.725L10.8508 13.4C10.8664 13.3106 10.8368 13.2204 10.7718 13.1569L9.08311 11.5103C8.92052 11.3522 9.00995 11.0758 9.23461 11.0433L10.7799 10.8186C11.3615 12.7408 13.147 14.1405 15.2591 14.1405C15.3086 14.1405 15.3574 14.1398 15.4062 14.1383L15.6781 15.725C15.7166 15.9489 15.4816 16.1196 15.2805 16.0139Z" fill="#0EE624"/>
<path d="M27.2373 23.7803L27.6485 21.5765C27.8577 20.455 27.4323 19.3316 26.5838 18.6299C26.4024 18.4798 26.1138 18.5323 25.8957 18.425C25.3848 18.1735 25.1329 18.5526 24.9507 19.0941L22.8881 25.3163C22.3232 26.995 21.7636 28.9143 20.1951 29.7243V37.6096C20.1951 38.9012 20.4519 40.756 23.4469 40.756L30.8051 40.7588L34.0893 39.7052V28.5139L30.9496 27.2171H30.0496C28.2263 27.217 26.9014 25.581 27.2373 23.7803Z" fill="#FFE8CA"/>
<path d="M21.0061 37.3671V30.482C21.0061 29.9968 21.2222 29.5358 21.5986 29.2297C22.8342 28.2247 23.7706 26.3822 24.2515 24.9531L26.2164 19.1139C26.2859 18.9073 26.4185 18.7426 26.584 18.6312C26.4025 18.4811 26.2021 18.3499 25.984 18.2425C25.4731 17.991 24.8586 18.2481 24.6764 18.7896L22.7114 24.6289C22.1465 26.3076 20.9535 28.0536 19.385 28.8635L18.5744 33.9887L19.385 38.4208C19.385 39.7125 20.7136 40.7569 23.7085 40.7569C23.7086 40.7569 20.964 40.2585 21.0061 37.3671Z" fill="#FACD91"/>
<path d="M34.6002 40.3548H30.8056C29.9493 40.3548 29.7415 40.066 29.7415 39.2098C29.7415 38.3535 29.9493 37.6594 30.8056 37.6594H30.9251L32.879 36.8489L34.6813 37.6594C35.2404 37.6594 35.6937 38.1128 35.6937 38.6719V39.1803C35.6937 39.7394 35.1594 40.3548 34.6002 40.3548Z" fill="#FFE8CA"/>
<path d="M32.4269 39.1382C31.5945 39.1382 30.9173 38.4817 30.8801 37.6586H30.8058C29.9495 37.6586 29.2554 38.3527 29.2554 39.2089C29.2554 40.0651 29.9495 40.7592 30.8058 40.7592H34.6815C35.2406 40.7592 35.6939 40.3059 35.6939 39.7468V39.1382H32.4269Z" fill="#FACD91"/>
<path d="M34.7409 37.173L30.9954 37.254C30.0343 37.3351 29.8226 36.0157 29.8226 35.9191H29.7415C29.7415 34.958 30.0343 34.179 30.9953 34.179L32.8185 33.3684L35.3082 34.179C36.0072 34.179 36.5738 34.7456 36.5738 35.4445V36.0695C36.5738 36.7684 35.4398 37.254 34.7409 37.173Z" fill="#FFE8CA"/>
<path d="M32.6167 36.0384C31.6556 36.0384 30.8766 35.2593 30.8766 34.2982C30.8766 34.2599 30.8799 34.2224 30.8822 34.1848C29.9743 34.2435 29.2554 34.9965 29.2554 35.9193C29.2554 36.8804 30.0345 37.6595 30.9956 37.6595H35.3085C36.0074 37.6595 36.574 37.0929 36.574 36.3939V36.0384H32.6167V36.0384Z" fill="#FACD91"/>
<path d="M35.7685 33.6925L30.9725 33.7736C30.0114 33.7736 29.7187 33.3998 29.7187 32.4387C29.7187 31.4776 30.0115 30.6985 30.9725 30.6985L33.3392 29.8879L35.3949 30.6985H36.417C37.1159 30.6985 37.6825 31.2651 37.6825 31.9641V32.5891C37.6825 33.288 36.4674 33.6925 35.7685 33.6925Z" fill="#FFE8CA"/>
<path d="M32.5939 32.5579C31.6328 32.5579 30.8537 31.7788 30.8537 30.8177C30.8537 30.7794 30.857 30.742 30.8594 30.7043C29.9515 30.763 29.2326 31.516 29.2326 32.4388C29.2326 33.3999 30.0117 34.179 30.9728 34.179H36.4172C37.1162 34.179 37.6828 33.6124 37.6828 32.9134V32.558H32.5939V32.5579Z" fill="#FACD91"/>
<path d="M34.579 30.2922H30.9956C30.0345 30.2922 29.8228 28.9573 29.8228 28.9573C29.8228 27.9962 30.0345 27.2172 30.9956 27.2172H35.3084C36.0074 27.2172 36.574 27.7838 36.574 28.4827V29.1077C36.574 29.8067 35.2779 30.2922 34.579 30.2922Z" fill="#FFE8CA"/>
<path d="M32.6167 29.0774C31.6556 29.0774 30.8766 28.2983 30.8766 27.3372C30.8766 27.299 30.8799 27.2615 30.8822 27.2239C29.9743 27.2826 29.2554 28.0355 29.2554 28.9584C29.2554 29.9195 30.0345 30.6985 30.9956 30.6985H35.3085C36.0074 30.6985 36.574 30.1319 36.574 29.433V29.0775H32.6167V29.0774Z" fill="#FACD91"/>
<path d="M17.6085 40.2579H16.6088C15.9373 40.2579 15.8732 39.1497 15.8732 38.4782L15.8318 28.9573C15.8318 28.2859 15.9373 27.2172 16.6088 27.2172H18.1693C18.8408 27.2172 19.3852 27.7615 19.3852 28.433V39.5432C19.3852 40.2146 18.28 40.2579 17.6085 40.2579Z" fill="#C6D8FB"/>
<path d="M17.4191 39.1379C17.1953 39.1379 17.0138 38.9565 17.0138 38.7326V27.2172H16.6086C15.9371 27.2172 15.3927 27.7615 15.3927 28.433V39.5432C15.3927 40.2146 15.9371 40.759 16.6086 40.759H18.1692C18.8406 40.759 19.385 40.2146 19.385 39.5432V39.1379H17.4191Z" fill="#2F55D4"/>
<path d="M28.9365 11.8276C28.9461 11.7278 28.9899 11.6335 29.0628 11.562L31.6852 9.00575C31.9376 8.75973 31.7984 8.33109 31.4496 8.2804L27.8253 7.75377C27.6868 7.73367 27.5671 7.64669 27.5052 7.52113L25.8844 4.23706C25.7284 3.92098 25.2778 3.92098 25.1218 4.23706L23.5009 7.52113C23.4393 7.64602 23.3182 7.73382 23.181 7.75348L22.0088 7.92389L20.1955 8.54179C19.8467 8.59278 19.707 9.02141 19.9598 9.26677L22.4505 11.6083C22.551 11.7066 22.5968 11.847 22.5732 11.9852L21.7373 15.2087C21.6782 15.556 22.0426 15.8213 22.3544 15.6572L25.302 13.825C25.4262 13.7592 25.574 13.7592 25.6981 13.825L28.6055 15.4603C28.9174 15.6244 29.2825 15.359 29.2226 15.0117L29.1376 13.0891L28.9406 11.9406C28.9351 11.9029 28.9319 11.865 28.9365 11.8276Z" fill="#7FF48B"/>
<path d="M28.9427 15.9973L25.7013 14.2931C25.5772 14.2273 25.4294 14.2273 25.3052 14.2931L22.0639 15.9973C21.752 16.1613 21.3877 15.896 21.4468 15.5487L22.0661 11.9393C22.0897 11.8011 22.0439 11.6607 21.9434 11.5624L19.3213 9.00612C19.0685 8.76076 19.2082 8.33213 19.557 8.28114L22.0091 7.92493C22.621 10.8965 25.2512 13.1313 28.4039 13.1313C28.6522 13.1313 28.8968 13.1173 29.1377 13.09L29.5597 15.5487C29.6196 15.896 29.2546 16.1613 28.9427 15.9973Z" fill="#0EE624"/>
<defs>
<radialGradient id="paint0_radial" cx="0" cy="0" r="1" gradientUnits="userSpaceOnUse" gradientTransform="translate(7.18391 44.8276) rotate(-38.1402) scale(54.4387)">
<stop stop-color="white"/>
<stop offset="1" stop-color="white"/>
</radialGradient>
</defs>
</svg>
