<svg width="810" height="232" viewBox="0 0 810 232" fill="none" xmlns="http://www.w3.org/2000/svg">
<path fill-rule="evenodd" clip-rule="evenodd" d="M22.4644 71.3815L0.288018 58.4213V97.6861L22.0804 109.878L22.4644 71.3815ZM176.259 123.031V187.352L199.972 173.527V109.398L176.259 123.127V123.031ZM176.259 84.1498L143.619 102.966V206.264L166.467 193.016V116.214L199.972 97.8781V58.4213L176.259 72.1496V84.1498ZM100.13 166.999V192.632L133.155 173.624V147.991L100.226 166.999H100.13ZM100.13 231.321L133.059 212.312L133.155 185.912L100.034 205.016L88.7057 198.488V160.951L0.192017 109.878V135.031L65.8573 172.951V211.64L99.9379 231.321H100.13ZM100.13 87.8939L124.514 101.91V130.135L100.13 144.151L75.7455 130.135V101.91L100.13 87.8939ZM32.4486 116.598L55.1051 128.887V90.4859L32.8326 77.8137L32.3526 116.598H32.4486ZM0.288018 173.527L55.5851 205.88L55.8731 179.768L0.288018 148.087V173.527Z" fill="#2F55D3"/>
<path fill-rule="evenodd" clip-rule="evenodd" d="M45.2169 32.5008L67.5853 45.461L122.498 13.7804L100.13 0.82019L45.2169 32.5008ZM100.034 87.7019L124.418 102.102L100.034 116.118L75.5535 102.102L99.9379 87.7019H100.034ZM110.69 70.3255L145.059 90.1019L165.795 78.1017L131.427 58.3253L110.69 70.3255ZM176.259 72.1496L199.972 58.4213L165.603 38.6449L141.891 52.3732L176.259 72.1496ZM0.38402 58.4213L22.5604 71.3815L32.5446 65.6214L65.2813 84.5338L155.331 32.5968L132.867 19.6366L66.0493 58.2293L33.5047 39.4129L0.480022 58.4213H0.38402Z" fill="#9DB1F5"/>
<path d="M220.456 171.451V58.3765H244.363V151.74H292.839V171.451H220.456Z" fill="#2F55D3"/>
<path d="M332.412 173.052C327.001 173.052 322.179 172.113 317.946 170.236C313.713 168.322 310.364 165.506 307.898 161.789C305.468 158.034 304.254 153.36 304.254 147.765C304.254 143.053 305.119 139.096 306.849 135.894C308.579 132.692 310.934 130.115 313.916 128.164C316.897 126.214 320.284 124.741 324.075 123.748C327.903 122.754 331.915 122.054 336.111 121.649C341.043 121.134 345.019 120.656 348.037 120.214C351.055 119.735 353.245 119.036 354.607 118.116C355.969 117.196 356.65 115.834 356.65 114.03V113.699C356.65 110.202 355.546 107.497 353.337 105.583C351.166 103.669 348.074 102.712 344.062 102.712C339.829 102.712 336.461 103.65 333.958 105.528C331.455 107.368 329.798 109.687 328.989 112.484L307.235 110.717C308.339 105.564 310.511 101.111 313.75 97.3562C316.989 93.565 321.167 90.6571 326.283 88.6327C331.436 86.5714 337.399 85.5408 344.172 85.5408C348.883 85.5408 353.392 86.0929 357.699 87.1972C362.042 88.3014 365.889 90.013 369.238 92.3319C372.625 94.6508 375.293 97.6322 377.244 101.276C379.195 104.883 380.17 109.208 380.17 114.251V171.451H357.865V159.69H357.202C355.84 162.341 354.018 164.678 351.736 166.702C349.454 168.69 346.712 170.254 343.509 171.395C340.307 172.5 336.608 173.052 332.412 173.052ZM339.148 156.819C342.608 156.819 345.663 156.139 348.313 154.777C350.963 153.378 353.043 151.501 354.552 149.145C356.061 146.789 356.816 144.121 356.816 141.139V132.14C356.079 132.618 355.067 133.06 353.779 133.465C352.527 133.833 351.11 134.183 349.528 134.514C347.945 134.808 346.362 135.084 344.779 135.342C343.197 135.563 341.761 135.765 340.473 135.949C337.712 136.354 335.301 136.998 333.24 137.882C331.179 138.765 329.578 139.961 328.437 141.471C327.296 142.943 326.725 144.783 326.725 146.992C326.725 150.194 327.884 152.642 330.203 154.335C332.559 155.991 335.541 156.819 339.148 156.819Z" fill="#2F55D3"/>
<path d="M398.418 171.451V86.6451H420.834V101.608H421.828C423.594 96.6384 426.539 92.7184 430.662 89.8474C434.784 86.9763 439.716 85.5408 445.458 85.5408C451.274 85.5408 456.225 86.9947 460.31 89.9026C464.396 92.7736 467.12 96.6752 468.482 101.608H469.365C471.095 96.7489 474.224 92.8656 478.751 89.9578C483.315 87.0131 488.708 85.5408 494.928 85.5408C502.842 85.5408 509.265 88.0622 514.197 93.1049C519.166 98.1107 521.651 105.215 521.651 114.417V171.451H498.186V119.054C498.186 114.343 496.934 110.809 494.431 108.454C491.928 106.098 488.8 104.92 485.045 104.92C480.776 104.92 477.444 106.282 475.052 109.006C472.659 111.693 471.463 115.245 471.463 119.662V171.451H448.661V118.558C448.661 114.398 447.464 111.086 445.072 108.619C442.716 106.153 439.606 104.92 435.741 104.92C433.128 104.92 430.772 105.583 428.674 106.908C426.613 108.196 424.975 110.018 423.76 112.374C422.545 114.693 421.938 117.417 421.938 120.545V171.451H398.418Z" fill="#2F55D3"/>
<path d="M540.671 171.451V58.3765H564.192V100.89H564.909C565.94 98.6077 567.431 96.2888 569.382 93.933C571.369 91.5405 573.946 89.5529 577.111 87.9702C580.314 86.3506 584.289 85.5408 589.037 85.5408C595.221 85.5408 600.926 87.1604 606.153 90.3995C611.38 93.6018 615.557 98.442 618.686 104.92C621.815 111.362 623.379 119.441 623.379 129.158C623.379 138.618 621.851 146.605 618.796 153.12C615.778 159.598 611.656 164.512 606.429 167.862C601.239 171.175 595.423 172.831 588.982 172.831C584.418 172.831 580.534 172.076 577.332 170.567C574.167 169.058 571.572 167.163 569.547 164.88C567.523 162.562 565.977 160.224 564.909 157.868H563.86V171.451H540.671ZM563.695 129.048C563.695 134.091 564.394 138.489 565.793 142.244C567.192 145.998 569.216 148.924 571.866 151.022C574.516 153.083 577.737 154.114 581.528 154.114C585.356 154.114 588.595 153.065 591.246 150.967C593.896 148.832 595.902 145.888 597.264 142.133C598.662 138.342 599.362 133.98 599.362 129.048C599.362 124.152 598.681 119.846 597.319 116.128C595.957 112.411 593.951 109.503 591.301 107.405C588.651 105.307 585.393 104.258 581.528 104.258C577.7 104.258 574.461 105.27 571.811 107.294C569.198 109.319 567.192 112.19 565.793 115.907C564.394 119.625 563.695 124.005 563.695 129.048Z" fill="#2F55D3"/>
<path d="M670.323 172.831C663.881 172.831 658.047 171.175 652.821 167.862C647.631 164.512 643.508 159.598 640.453 153.12C637.435 146.605 635.926 138.618 635.926 129.158C635.926 119.441 637.49 111.362 640.619 104.92C643.748 98.442 647.907 93.6018 653.097 90.3995C658.323 87.1604 664.047 85.5408 670.268 85.5408C675.016 85.5408 678.973 86.3506 682.138 87.9702C685.341 89.5529 687.917 91.5405 689.868 93.933C691.856 96.2888 693.365 98.6077 694.395 100.89H695.113V58.3765H718.578V171.451H695.389V157.868H694.395C693.291 160.224 691.727 162.562 689.702 164.88C687.715 167.163 685.12 169.058 681.917 170.567C678.752 172.076 674.887 172.831 670.323 172.831ZM677.776 154.114C681.568 154.114 684.77 153.083 687.383 151.022C690.034 148.924 692.058 145.998 693.457 142.244C694.892 138.489 695.61 134.091 695.61 129.048C695.61 124.005 694.911 119.625 693.512 115.907C692.113 112.19 690.089 109.319 687.439 107.294C684.788 105.27 681.568 104.258 677.776 104.258C673.912 104.258 670.654 105.307 668.004 107.405C665.354 109.503 663.348 112.411 661.986 116.128C660.624 119.846 659.943 124.152 659.943 129.048C659.943 133.98 660.624 138.342 661.986 142.133C663.385 145.888 665.391 148.832 668.004 150.967C670.654 153.065 673.912 154.114 677.776 154.114Z" fill="#2F55D3"/>
<path d="M762.099 173.052C756.688 173.052 751.866 172.113 747.633 170.236C743.401 168.322 740.051 165.506 737.585 161.789C735.156 158.034 733.941 153.36 733.941 147.765C733.941 143.053 734.806 139.096 736.536 135.894C738.266 132.692 740.622 130.115 743.603 128.164C746.584 126.214 749.971 124.741 753.762 123.748C757.59 122.754 761.602 122.054 765.798 121.649C770.73 121.134 774.706 120.656 777.724 120.214C780.742 119.735 782.932 119.036 784.294 118.116C785.656 117.196 786.337 115.834 786.337 114.03V113.699C786.337 110.202 785.233 107.497 783.024 105.583C780.853 103.669 777.761 102.712 773.749 102.712C769.516 102.712 766.148 103.65 763.645 105.528C761.142 107.368 759.486 109.687 758.676 112.484L736.922 110.717C738.027 105.564 740.198 101.111 743.437 97.3562C746.676 93.565 750.854 90.6571 755.97 88.6327C761.124 86.5714 767.086 85.5408 773.859 85.5408C778.571 85.5408 783.08 86.0929 787.386 87.1972C791.729 88.3014 795.576 90.013 798.925 92.3319C802.312 94.6508 804.98 97.6322 806.931 101.276C808.882 104.883 809.857 109.208 809.857 114.251V171.451H787.552V159.69H786.889C785.527 162.341 783.705 164.678 781.423 166.702C779.141 168.69 776.399 170.254 773.197 171.395C769.994 172.5 766.295 173.052 762.099 173.052ZM768.835 156.819C772.295 156.819 775.35 156.139 778 154.777C780.65 153.378 782.73 151.501 784.239 149.145C785.748 146.789 786.503 144.121 786.503 141.139V132.14C785.767 132.618 784.754 133.06 783.466 133.465C782.215 133.833 780.797 134.183 779.215 134.514C777.632 134.808 776.049 135.084 774.466 135.342C772.884 135.563 771.448 135.765 770.16 135.949C767.399 136.354 764.988 136.998 762.927 137.882C760.866 138.765 759.265 139.961 758.124 141.471C756.983 142.943 756.412 144.783 756.412 146.992C756.412 150.194 757.572 152.642 759.891 154.335C762.246 155.991 765.228 156.819 768.835 156.819Z" fill="#2F55D3"/>
</svg>
